<svg width="109" height="40" viewBox="0 0 109 40" fill="none" xmlns="http://www.w3.org/2000/svg">
<path opacity="0.65" d="M18.0979 5.8541C18.6966 4.01148 21.3034 4.01148 21.9021 5.8541L24.0413 12.4377C24.309 13.2617 25.0769 13.8197 25.9434 13.8197L32.8658 13.8197C34.8032 13.8197 35.6088 16.2989 34.0413 17.4377L28.441 21.5066C27.74 22.0159 27.4467 22.9186 27.7145 23.7426L29.8536 30.3262C30.4523 32.1689 28.3433 33.7011 26.7759 32.5623L21.1756 28.4934C20.4746 27.9841 19.5254 27.9841 18.8244 28.4934L13.2241 32.5623C11.6567 33.7011 9.5477 32.1689 10.1464 30.3262L12.2855 23.7426C12.5533 22.9186 12.26 22.0159 11.559 21.5066L5.95866 17.4377C4.39124 16.2989 5.19679 13.8197 7.13424 13.8197L14.0566 13.8197C14.9231 13.8197 15.691 13.2617 15.9587 12.4377L18.0979 5.8541Z" fill="#FFD598"/>
<path opacity="0.65" d="M54.0979 5.8541C54.6966 4.01148 57.3034 4.01148 57.9021 5.8541L60.0413 12.4377C60.309 13.2617 61.0769 13.8197 61.9434 13.8197L68.8658 13.8197C70.8032 13.8197 71.6088 16.2989 70.0413 17.4377L64.441 21.5066C63.74 22.0159 63.4467 22.9186 63.7145 23.7426L65.8536 30.3262C66.4523 32.1689 64.3433 33.7011 62.7759 32.5623L57.1756 28.4934C56.4746 27.9841 55.5254 27.9841 54.8244 28.4934L49.2241 32.5623C47.6567 33.7011 45.5477 32.1689 46.1464 30.3262L48.2855 23.7426C48.5533 22.9186 48.26 22.0159 47.559 21.5066L41.9587 17.4377C40.3912 16.2989 41.1968 13.8197 43.1342 13.8197L50.0566 13.8197C50.9231 13.8197 51.691 13.2617 51.9587 12.4377L54.0979 5.8541Z" fill="#FFD598"/>
<path opacity="0.65" d="M87.0979 5.8541C87.6966 4.01148 90.3034 4.01148 90.9021 5.8541L93.0413 12.4377C93.309 13.2617 94.0769 13.8197 94.9434 13.8197L101.866 13.8197C103.803 13.8197 104.609 16.2989 103.041 17.4377L97.441 21.5066C96.74 22.0159 96.4467 22.9186 96.7145 23.7426L98.8536 30.3262C99.4523 32.1689 97.3433 33.7011 95.7759 32.5623L90.1756 28.4934C89.4746 27.9841 88.5254 27.9841 87.8244 28.4934L82.2241 32.5623C80.6567 33.7011 78.5477 32.1689 79.1464 30.3262L81.2855 23.7426C81.5533 22.9186 81.26 22.0159 80.559 21.5066L74.9587 17.4377C73.3912 16.2989 74.1968 13.8197 76.1342 13.8197L83.0566 13.8197C83.9231 13.8197 84.691 13.2617 84.9587 12.4377L87.0979 5.8541Z" fill="#FFD598"/>
</svg>
