<svg width="32" height="25" viewBox="0 0 32 25" fill="none" xmlns="http://www.w3.org/2000/svg">
<path id="Vector" d="M0.530627 11.1494C0.190867 11.5015 0 11.979 0 12.4769C0 12.9748 0.190867 13.4524 0.530627 13.8045L10.783 24.4268C10.9502 24.6061 11.1502 24.7491 11.3713 24.8476C11.5924 24.946 11.8302 24.9978 12.0708 24.9999C12.3115 25.0021 12.5501 24.9546 12.7729 24.8602C12.9956 24.7658 13.1979 24.6263 13.3681 24.45C13.5383 24.2737 13.6728 24.0641 13.764 23.8333C13.8551 23.6025 13.901 23.3553 13.8989 23.106C13.8968 22.8566 13.8468 22.6102 13.7518 22.3812C13.6568 22.1521 13.5187 21.9449 13.3456 21.7717L6.18692 14.3546L30.1877 14.3546C30.6683 14.3546 31.1293 14.1568 31.4692 13.8047C31.8091 13.4525 32 12.9749 32 12.4769C32 11.9789 31.8091 11.5013 31.4692 11.1492C31.1293 10.797 30.6683 10.5992 30.1877 10.5992L6.18692 10.5992L13.3456 3.1822C13.6758 2.82805 13.8584 2.35374 13.8543 1.86141C13.8502 1.36908 13.6596 0.898119 13.3236 0.549973C12.9875 0.201828 12.533 0.00434875 12.0578 7.05719e-05C11.5826 -0.00420761 11.1248 0.185057 10.783 0.527098L0.530627 11.1494Z" fill="white"/>
</svg>
