<svg width="245" height="252" viewBox="0 0 245 252" fill="none" xmlns="http://www.w3.org/2000/svg">
<path opacity="0.65" d="M93.3735 7.43024C93.7472 0.659484 102.567 -1.67738 106.244 4.01996L149.901 71.6576C151.546 74.2055 154.644 75.4047 157.575 74.628L235.393 54.0088C241.948 52.272 246.896 59.9377 242.614 65.1957L191.778 127.617C189.863 129.969 189.68 133.286 191.324 135.834L234.981 203.471C238.659 209.169 232.897 216.243 226.573 213.796L151.497 184.737C148.669 183.642 145.458 184.493 143.543 186.844L92.7065 249.266C88.4244 254.524 79.9156 251.23 80.2894 244.46L84.7264 164.079C84.8936 161.051 83.092 158.259 80.2638 157.165L5.18806 128.106C-1.13582 125.658 -0.632925 116.548 5.92194 114.811L83.74 94.192C86.6714 93.4152 88.7693 90.8393 88.9364 87.8113L93.3735 7.43024Z" fill="#FFD598"/>
</svg>
