<svg width="440" height="351" viewBox="0 0 440 351" fill="none" xmlns="http://www.w3.org/2000/svg">
<path opacity="0.65" d="M508.591 104.465C511.479 104.142 513.093 107.703 510.947 109.662L458.43 157.593C457.47 158.469 457.184 159.864 457.72 161.047L487.076 225.805C488.276 228.452 485.388 231.088 482.861 229.652L421.048 194.517C419.918 193.874 418.503 194.033 417.543 194.909L365.027 242.839C362.88 244.799 359.481 242.866 360.066 240.02L374.38 170.374C374.641 169.101 374.054 167.805 372.924 167.162L311.111 132.027C308.584 130.591 309.371 126.761 312.259 126.438L382.919 118.53C384.211 118.385 385.262 117.425 385.524 116.152L399.838 46.5073C400.423 43.6606 404.309 43.2257 405.509 45.8726L434.865 110.63C435.402 111.814 436.64 112.518 437.931 112.373L508.591 104.465Z" fill="#FFD598"/>
<path opacity="0.65" d="M395.478 268.758C397.122 266.362 400.872 267.47 400.95 270.375L400.998 272.153C401.033 273.452 401.9 274.581 403.147 274.95L404.852 275.454C407.639 276.277 407.744 280.186 405.005 281.158L403.329 281.753C402.104 282.187 401.298 283.361 401.333 284.661L401.381 286.438C401.459 289.344 397.774 290.651 396.003 288.347L394.92 286.936C394.128 285.906 392.762 285.502 391.537 285.937L389.861 286.532C387.123 287.503 384.74 284.403 386.385 282.007L387.391 280.54C388.127 279.469 388.088 278.045 387.297 277.015L386.213 275.605C384.442 273.3 386.655 270.076 389.442 270.9L391.148 271.404C392.394 271.772 393.736 271.296 394.471 270.224L395.478 268.758Z" fill="#FFD598"/>
<path opacity="0.65" d="M43.4778 139.758C45.1224 137.362 48.8723 138.47 48.9502 141.375L48.9979 143.153C49.0327 144.452 49.9002 145.581 51.1466 145.95L52.8522 146.454C55.6392 147.277 55.744 151.186 53.0051 152.158L51.329 152.753C50.1042 153.187 49.2985 154.361 49.3333 155.661L49.381 157.438C49.4589 160.344 45.7738 161.651 44.0032 159.347L42.9196 157.936C42.1278 156.906 40.7623 156.502 39.5375 156.937L37.8614 157.532C35.1225 158.503 32.7402 155.403 34.3847 153.007L35.3911 151.54C36.1266 150.469 36.0884 149.045 35.2966 148.015L34.213 146.605C32.4424 144.3 34.6552 141.076 37.4422 141.9L39.1477 142.404C40.3941 142.772 41.7359 142.296 42.4714 141.224L43.4778 139.758Z" fill="#FFD598"/>
<path opacity="0.65" d="M-27.8222 175.876C-27.4469 171.17 -21.3606 169.558 -18.7047 173.46L9.91367 215.505C11.1072 217.258 13.2773 218.068 15.3277 217.524L67.2948 203.755C72.0705 202.489 75.5927 208.179 72.3303 211.89L38.3206 250.568C36.8141 252.281 36.6584 254.797 37.9421 256.683L65.8938 297.748C68.6002 301.724 64.681 306.855 60.1331 305.29L9.62017 287.903C7.7029 287.243 5.5769 287.806 4.23796 289.329L-31.038 329.447C-34.214 333.059 -40.1595 330.542 -39.7771 325.748L-35.8271 276.229C-35.6457 273.955 -37.0267 271.846 -39.184 271.104L-87.8836 254.341C-92.5552 252.733 -92.3127 246.046 -87.5369 244.78L-35.5699 231.011C-33.5194 230.467 -32.035 228.689 -31.8663 226.575L-27.8222 175.876Z" fill="#FFD598"/>
</svg>
