<svg width="139" height="252" viewBox="0 0 139 252" fill="none" xmlns="http://www.w3.org/2000/svg">
<path opacity="0.65" d="M-12.2593 7.2862C-11.8856 0.515439 -3.06606 -1.82143 0.611322 3.87591L44.2685 71.5136C45.913 74.0615 49.0112 75.2607 51.9426 74.484L129.761 53.8647C136.316 52.1279 141.263 59.7937 136.981 65.0516L86.1449 127.473C84.2298 129.825 84.0467 133.142 85.6913 135.69L129.348 203.327C133.026 209.025 127.264 216.099 120.94 213.652L45.8646 184.593C43.0365 183.498 39.8251 184.349 37.9101 186.7L-12.9263 249.122C-17.2085 254.38 -25.7172 251.086 -25.3434 244.316L-20.9064 163.935C-20.7392 160.907 -22.5408 158.115 -25.369 157.021L-100.445 127.962C-106.769 125.514 -106.266 116.404 -99.7109 114.667L-21.8928 94.0479C-18.9614 93.2712 -16.8635 90.6952 -16.6964 87.6672L-12.2593 7.2862Z" fill="#FFD598"/>
</svg>
