<svg width="31" height="23" viewBox="0 0 31 23" fill="none" xmlns="http://www.w3.org/2000/svg">
<path d="M30.315 5.22727C30.315 3.84091 29.7643 2.51134 28.784 1.53103C27.8037 0.550729 26.4741 0 25.0877 0H5.22411C4.02376 0.000728059 2.86024 0.414546 1.92901 1.17193C0.997772 1.92932 0.355574 2.98413 0.110299 4.15915C-0.134976 5.33417 0.0316184 6.5578 0.582093 7.62448C1.13257 8.69116 2.03338 9.53589 3.1332 10.0168V20.9091C3.1332 21.4636 3.35349 21.9955 3.74561 22.3876C4.13773 22.7797 4.66957 23 5.22411 23H25.0877C25.6423 23 26.1741 22.7797 26.5662 22.3876C26.9584 21.9955 27.1787 21.4636 27.1787 20.9091V10.0168C28.11 9.60919 28.9026 8.93924 29.4595 8.08873C30.0165 7.23821 30.3138 6.24392 30.315 5.22727ZM5.22411 10.4545C5.50138 10.4545 5.7673 10.3444 5.96336 10.1483C6.15942 9.95228 6.26956 9.68636 6.26956 9.40909C6.26956 9.13182 6.15942 8.8659 5.96336 8.66984C5.7673 8.47378 5.50138 8.36364 5.22411 8.36364C4.39229 8.36364 3.59455 8.0332 3.00637 7.44502C2.41818 6.85684 2.08775 6.05909 2.08775 5.22727C2.08775 4.39546 2.41818 3.59771 3.00637 3.00953C3.59455 2.42135 4.39229 2.09091 5.22411 2.09091H17.7696C18.6014 2.09091 19.3991 2.42135 19.9873 3.00953C20.5755 3.59771 20.9059 4.39546 20.9059 5.22727C20.9059 6.05909 20.5755 6.85684 19.9873 7.44502C19.3991 8.0332 18.6014 8.36364 17.7696 8.36364C17.4923 8.36364 17.2264 8.47378 17.0303 8.66984C16.8343 8.8659 16.7241 9.13182 16.7241 9.40909C16.7241 9.68636 16.8343 9.95228 17.0303 10.1483C17.2264 10.3444 17.4923 10.4545 17.7696 10.4545V20.9091H5.22411V10.4545ZM25.0877 8.36364C24.8105 8.36364 24.5446 8.47378 24.3485 8.66984C24.1524 8.8659 24.0423 9.13182 24.0423 9.40909C24.0423 9.68636 24.1524 9.95228 24.3485 10.1483C24.5446 10.3444 24.8105 10.4545 25.0877 10.4545V20.9091H19.8605V10.0168C20.5831 9.70126 21.2249 9.22638 21.738 8.62769C22.251 8.02899 22.622 7.32199 22.8231 6.55961C23.0243 5.79723 23.0503 4.99924 22.8993 4.22536C22.7484 3.45149 22.4243 2.7218 21.9514 2.09091H25.0877C25.9196 2.09091 26.7173 2.42135 27.3055 3.00953C27.8937 3.59771 28.2241 4.39546 28.2241 5.22727C28.2241 6.05909 27.8937 6.85684 27.3055 7.44502C26.7173 8.0332 25.9196 8.36364 25.0877 8.36364Z" fill="black"/>
</svg>
