<svg width="49" height="55" viewBox="0 0 49 55" fill="none" xmlns="http://www.w3.org/2000/svg">
<path d="M24.5 0C27.5711 0 30.5163 1.15893 32.6879 3.22183C34.8595 5.28473 36.0795 8.08262 36.0795 11H41.9705C43.4706 10.9998 44.9122 11.5527 45.9916 12.5422C47.0711 13.5318 47.7041 14.8806 47.7573 16.3048L48.9963 49.3048C49.0239 50.0428 48.8948 50.7786 48.6166 51.4682C48.3384 52.1579 47.9168 52.7872 47.377 53.3187C46.8372 53.8502 46.1903 54.273 45.4748 54.5619C44.7593 54.8507 43.9898 54.9997 43.2124 55H5.78759C5.01015 54.9997 4.24073 54.8507 3.52523 54.5619C2.80972 54.273 2.16278 53.8502 1.623 53.3187C1.08321 52.7872 0.66164 52.1579 0.383425 51.4682C0.10521 50.7786 -0.0239495 50.0428 0.00364964 49.3048L1.24265 16.3048C1.2959 14.8806 1.92893 13.5318 3.00837 12.5422C4.08782 11.5527 5.52941 10.9998 7.02949 11H12.9205C12.9205 8.08262 14.1405 5.28473 16.3121 3.22183C18.4837 1.15893 21.4289 0 24.5 0ZM18.7103 16.5H12.9205V19.25C12.9214 19.9509 13.2039 20.6251 13.7104 21.1348C14.2169 21.6444 14.9092 21.9511 15.6457 21.9922C16.3823 22.0333 17.1076 21.8056 17.6734 21.3558C18.2392 20.9059 18.6029 20.2678 18.69 19.5717L18.7103 19.25V16.5ZM36.0795 16.5H30.2897V19.25C30.2897 19.9793 30.5947 20.6788 31.1376 21.1945C31.6805 21.7103 32.4168 22 33.1846 22C33.9524 22 34.6887 21.7103 35.2316 21.1945C35.7745 20.6788 36.0795 19.9793 36.0795 19.25V16.5ZM24.5 5.5C23.0393 5.49956 21.6324 6.02362 20.5614 6.96712C19.4903 7.91062 18.8343 9.20382 18.7247 10.5875L18.7103 11H30.2897C30.2897 9.54131 29.6797 8.14236 28.594 7.11091C27.5082 6.07946 26.0355 5.5 24.5 5.5Z" fill="#470D01"/>
</svg>
