<svg width="18" height="25" viewBox="0 0 18 25" fill="none" xmlns="http://www.w3.org/2000/svg">
<path d="M1 4.45H17.1M1 20.55H17.1M2.15 1H15.95M2.06605 3.17005L3.185 1.828C3.52425 1.4209 3.69445 1.21735 3.9256 1.1081C4.1579 1 4.4224 1 4.95255 1H13.1474C13.6764 1 13.9421 1 14.1744 1.1081C14.4055 1.21735 14.5758 1.4209 14.915 1.828L16.0339 3.17005C16.5618 3.8037 16.8252 4.11995 16.9632 4.49945C17.1 4.87895 17.1 5.2918 17.1 6.1152V18.8848C17.1 19.7082 17.1 20.1211 16.962 20.5006C16.8251 20.8801 16.5618 21.1963 16.0339 21.83L14.57 23.586C14.3998 23.7895 14.3159 23.8919 14.1997 23.9459C14.0847 24 13.9513 24 13.6868 24H4.4132C4.1487 24 4.01645 24 3.9003 23.9459C3.7853 23.8919 3.7002 23.7895 3.53 23.586L2.06605 21.83C1.5382 21.1963 1.27485 20.8801 1.13685 20.5006C1 20.1211 1 19.7082 1 18.8848V6.1152C1 5.2918 1 4.87895 1.138 4.49945C1.27485 4.11995 1.5382 3.8037 2.06605 3.17005Z" stroke="black" stroke-width="1.5" stroke-linecap="round" stroke-linejoin="round"/>
<path d="M9.0498 15.375C10.6376 15.375 11.9248 14.0878 11.9248 12.5C11.9248 10.9122 10.6376 9.625 9.0498 9.625C7.46199 9.625 6.1748 10.9122 6.1748 12.5C6.1748 14.0878 7.46199 15.375 9.0498 15.375Z" stroke="black" stroke-width="1.5" stroke-linecap="round" stroke-linejoin="round"/>
</svg>
