<svg width="25" height="26" viewBox="0 0 25 26" fill="none" xmlns="http://www.w3.org/2000/svg">
<path d="M24.4463 0.829761C24.2708 0.653605 24.0625 0.513849 23.8331 0.418494C23.6037 0.323139 23.3578 0.274056 23.1094 0.274056C22.8611 0.274056 22.6152 0.323139 22.3858 0.418494C22.1564 0.513849 21.948 0.653605 21.7726 0.829761L12.5 10.1028L3.22743 0.810759C3.05187 0.634834 2.84345 0.495282 2.61408 0.400073C2.3847 0.304863 2.13886 0.255859 1.89058 0.255859C1.64231 0.255859 1.39646 0.304863 1.16709 0.400073C0.937711 0.495282 0.729295 0.634834 0.553738 0.810759C0.378181 0.986683 0.238922 1.19554 0.143912 1.42539C0.0489009 1.65525 -1.84979e-09 1.90161 0 2.15041C1.84979e-09 2.3992 0.0489008 2.64556 0.143912 2.87542C0.238922 3.10527 0.378181 3.31413 0.553738 3.49005L9.82631 12.7821L0.553738 22.0741C0.378181 22.25 0.238922 22.4589 0.143912 22.6887C0.0489009 22.9186 0 23.1649 0 23.4137C0 23.6625 0.0489009 23.9089 0.143912 24.1387C0.238922 24.3686 0.378181 24.5774 0.553738 24.7534C0.729295 24.9293 0.937711 25.0688 1.16709 25.1641C1.39646 25.2593 1.64231 25.3083 1.89058 25.3083C2.13886 25.3083 2.3847 25.2593 2.61408 25.1641C2.84345 25.0688 3.05187 24.9293 3.22743 24.7534L12.5 15.4614L21.7726 24.7534C21.9481 24.9293 22.1565 25.0688 22.3859 25.1641C22.6153 25.2593 22.8611 25.3083 23.1094 25.3083C23.3577 25.3083 23.6035 25.2593 23.8329 25.1641C24.0623 25.0688 24.2707 24.9293 24.4463 24.7534C24.6218 24.5774 24.7611 24.3686 24.8561 24.1387C24.9511 23.9089 25 23.6625 25 23.4137C25 23.1649 24.9511 22.9186 24.8561 22.6887C24.7611 22.4589 24.6218 22.25 24.4463 22.0741L15.1737 12.7821L24.4463 3.49005C25.1668 2.76797 25.1668 1.55184 24.4463 0.829761Z" fill="white"/>
</svg>
