<svg width="40" height="40" viewBox="0 0 40 40" fill="none" xmlns="http://www.w3.org/2000/svg">
<rect x="9.25" y="9.25" width="21.5" height="21.5" rx="2.75" stroke="white" stroke-width="2.5"/>
<path d="M26.5882 15.3413C26.8417 15.569 26.9896 15.8831 26.9995 16.2144C27.0093 16.5457 26.8803 16.8672 26.6408 17.1082L19.1857 24.6091C19.0648 24.7304 18.9196 24.8275 18.7586 24.8946C18.5977 24.9618 18.4241 24.9975 18.2484 24.9999C18.0726 25.0022 17.8981 24.971 17.7352 24.9082C17.5723 24.8454 17.4243 24.7522 17.2999 24.6341L13.3531 20.8836C13.1207 20.6466 12.9942 20.3332 13.0002 20.0093C13.0062 19.6854 13.1443 19.3764 13.3853 19.1474C13.6264 18.9183 13.9516 18.7871 14.2924 18.7814C14.6332 18.7757 14.9631 18.8959 15.2125 19.1167L18.2033 21.9571L24.7288 15.3913C24.9684 15.1505 25.2989 15.0099 25.6476 15.0005C25.9963 14.9911 26.3346 15.1137 26.5882 15.3413Z" fill="white"/>
</svg>
