<svg width="65" height="65" viewBox="0 0 65 65" fill="none" xmlns="http://www.w3.org/2000/svg">
<path fill-rule="evenodd" clip-rule="evenodd" d="M32.5 65C36.768 65 40.9941 64.1594 44.9372 62.5261C48.8803 60.8928 52.4631 58.4989 55.481 55.481C58.4989 52.4631 60.8928 48.8803 62.5261 44.9372C64.1594 40.9941 65 36.768 65 32.5C65 28.232 64.1594 24.0059 62.5261 20.0628C60.8928 16.1197 58.4989 12.5369 55.481 9.51903C52.4631 6.50112 48.8803 4.10719 44.9372 2.47391C40.9941 0.840637 36.768 -6.35976e-08 32.5 0C23.8805 1.28441e-07 15.614 3.4241 9.51903 9.51903C3.4241 15.614 0 23.8805 0 32.5C0 41.1195 3.4241 49.386 9.51903 55.481C15.614 61.5759 23.8805 65 32.5 65ZM31.6622 45.6444L49.7178 23.9778L44.1711 19.3556L28.6433 37.9853L20.6086 29.9469L15.5025 35.0531L26.3358 45.8864L29.1308 48.6814L31.6622 45.6444Z" fill="#C73715"/>
</svg>
