<svg width="25" height="25" viewBox="0 0 25 25" fill="none" xmlns="http://www.w3.org/2000/svg">
<path d="M5.96401 23.9997H18.374M12.169 23.9997C15.1312 23.9997 17.9721 22.7663 20.0667 20.5709C22.1613 18.3754 23.3381 15.3978 23.3381 12.293H1C1 15.3978 2.17673 18.3754 4.27133 20.5709C6.36593 22.7663 9.20682 23.9997 12.169 23.9997Z" stroke="black" stroke-width="2" stroke-linecap="round" stroke-linejoin="round"/>
<path d="M11.3997 12.2945C10.6481 12.3018 9.92168 12.0111 9.36607 11.4805C8.81046 10.9499 8.46679 10.2188 8.40398 9.43371C8.34117 8.64865 8.56387 7.86772 9.02741 7.24757C9.49095 6.62741 10.1611 6.21389 10.9033 6.08993C10.7845 5.5387 10.8106 4.96401 10.979 4.42714C11.1473 3.89027 11.4515 3.41136 11.8592 3.0415C12.2668 2.67164 12.7626 2.4247 13.2937 2.32702C13.8247 2.22934 14.3711 2.28458 14.8745 2.48685C15.095 2.12311 15.3849 1.81115 15.726 1.5706C16.0671 1.33006 16.452 1.16613 16.8565 1.08916C17.2611 1.01218 17.6764 1.02381 18.0764 1.12333C18.4764 1.22284 18.8525 1.40808 19.1808 1.66738C19.7536 1.1955 20.4716 0.960041 21.1988 1.00555C21.9261 1.05106 22.6122 1.37439 23.1274 1.91436C23.6425 2.45432 23.951 3.17347 23.9944 3.93574C24.0378 4.69801 23.8132 5.45052 23.363 6.0509C23.6432 6.44104 23.8322 6.89463 23.9148 7.37524C23.9973 7.85584 23.9712 8.35004 23.8384 8.81813C23.7057 9.28621 23.47 9.71512 23.1503 10.0704C22.8307 10.4256 22.4359 10.6974 21.9979 10.8637C22.1115 11.3318 22.1243 11.8206 22.0351 12.2945M13.4102 12.2945L18.3742 7.0915" stroke="black" stroke-width="2" stroke-linecap="round" stroke-linejoin="round"/>
<path d="M10.8042 6.11579C10.1235 5.3552 9.23997 4.82719 8.2688 4.60058C7.29762 4.37397 6.28383 4.45927 5.35958 4.84536C4.43533 5.23146 3.64349 5.90044 3.08726 6.7651C2.53104 7.62977 2.23623 8.65001 2.24127 9.69285C2.24127 10.6424 2.48948 11.5269 2.91142 12.2943" stroke="black" stroke-width="2" stroke-linecap="round" stroke-linejoin="round"/>
</svg>
