<svg width="68" height="68" viewBox="0 0 68 68" fill="none" xmlns="http://www.w3.org/2000/svg">
<path d="M65.5594 2.27812L65.2219 1.94062C62.6344 -0.646875 58.3594 -0.646875 55.7719 1.94062L44.5219 13.3031C33.2719 6.32812 18.3094 7.67812 8.52188 17.4656C-2.84063 28.9406 -2.84063 47.5031 8.52188 58.8656C19.8844 70.3406 38.4469 70.3406 49.8094 58.8656C59.4844 49.1906 60.9469 34.2281 54.1969 22.9781L65.5594 11.6156C68.1469 9.02812 68.1469 4.86562 65.5594 2.27812ZM60.2719 11.3906C57.9094 11.3906 56.1094 9.47812 56.1094 7.22812C56.1094 4.86562 58.0219 3.06562 60.2719 3.06562C62.5219 3.06562 64.4344 4.97812 64.4344 7.22812C64.4344 9.59062 62.6344 11.3906 60.2719 11.3906Z" fill="#C73715"/>
<path d="M11.4468 31.6408C6.83427 41.8783 10.0968 53.3533 18.8718 57.2908C27.5343 61.2283 38.3343 56.0533 42.9468 45.8158C47.5593 35.5783 44.2968 24.1033 35.5218 20.1658C26.8593 16.2283 16.0593 21.2908 11.4468 31.6408Z" fill="white"/>
<path d="M23.5967 47.2783C28.5672 47.2783 32.5967 43.2489 32.5967 38.2783C32.5967 33.3078 28.5672 29.2783 23.5967 29.2783C18.6261 29.2783 14.5967 33.3078 14.5967 38.2783C14.5967 43.2489 18.6261 47.2783 23.5967 47.2783Z" fill="#F29A2E"/>
</svg>
