<svg width="40" height="40" viewBox="0 0 40 40" fill="none" xmlns="http://www.w3.org/2000/svg">
<path d="M20.1663 30.9167L19.9997 31.0833L19.8163 30.9167C11.8997 23.7333 6.66634 18.9833 6.66634 14.1667C6.66634 10.8333 9.16634 8.33333 12.4997 8.33333C15.0663 8.33333 17.5663 10 18.4497 12.2667H21.5497C22.433 10 24.933 8.33333 27.4997 8.33333C30.833 8.33333 33.333 10.8333 33.333 14.1667C33.333 18.9833 28.0997 23.7333 20.1663 30.9167ZM27.4997 5C24.5997 5 21.8163 6.35 19.9997 8.46667C18.183 6.35 15.3997 5 12.4997 5C7.36634 5 3.33301 9.01667 3.33301 14.1667C3.33301 20.45 8.99967 25.6 17.583 33.3833L19.9997 35.5833L22.4163 33.3833C30.9997 25.6 36.6663 20.45 36.6663 14.1667C36.6663 9.01667 32.633 5 27.4997 5Z" fill="#C73715"/>
<path d="M19.6667 35.5833L17.25 33.3833C8.66667 25.6 3 20.45 3 14.1667C3 9.01667 7.03333 5 12.1667 5C15.0667 5 17.85 6.35 19.6667 8.46667C21.4833 6.35 24.2667 5 27.1667 5C32.3 5 36.3333 9.01667 36.3333 14.1667C36.3333 20.45 30.6667 25.6 22.0833 33.3833L19.6667 35.5833Z" fill="#C73715"/>
</svg>
