<svg width="41" height="40" viewBox="0 0 41 40" fill="none" xmlns="http://www.w3.org/2000/svg">
<path fill-rule="evenodd" clip-rule="evenodd" d="M18.9267 0.650644C19.344 0.234037 19.9099 0 20.5 0C21.0901 0 21.656 0.234037 22.0733 0.650644L35.4248 13.9841L39.8753 18.4286C40.2807 18.8478 40.505 19.4091 40.4999 19.9918C40.4948 20.5744 40.2608 21.1318 39.8482 21.5438C39.4357 21.9558 38.8775 22.1896 38.2941 22.1946C37.7106 22.1997 37.1485 21.9757 36.7288 21.5709L36.0768 20.9198V35.5555C36.0768 36.7343 35.6079 37.8647 34.7733 38.6982C33.9387 39.5317 32.8067 40 31.6263 40H24.9505C24.3603 40 23.7943 39.7659 23.377 39.3491C22.9597 38.9324 22.7253 38.3671 22.7253 37.7778V31.111H18.2747V37.7778C18.2747 38.3671 18.0403 38.9324 17.623 39.3491C17.2057 39.7659 16.6397 40 16.0495 40H9.3737C8.19335 40 7.06134 39.5317 6.2267 38.6982C5.39207 37.8647 4.92318 36.7343 4.92318 35.5555V20.9198L4.27117 21.5709C3.85149 21.9757 3.28938 22.1997 2.70592 22.1946C2.12247 22.1896 1.56435 21.9558 1.15176 21.5438C0.739183 21.1318 0.505154 20.5744 0.500084 19.9918C0.495014 19.4091 0.719308 18.8478 1.12466 18.4286L5.57518 13.9841L18.9267 0.650644Z" fill="white"/>
</svg>
