<svg width="26" height="27" viewBox="0 0 26 27" fill="none" xmlns="http://www.w3.org/2000/svg">
<path d="M15.1564 8.56239L17.5118 6.16373C17.2331 5.88017 17.0275 5.53105 16.913 5.14727C16.7986 4.76349 16.7789 4.35691 16.8557 3.96354C16.9325 3.57017 17.1034 3.20214 17.3533 2.89206C17.6033 2.58198 17.9244 2.33942 18.2885 2.18586C18.6525 2.03229 19.0481 1.97247 19.4402 2.01169C19.8324 2.05091 20.209 2.18795 20.5367 2.41069C20.8644 2.63342 21.133 2.93498 21.3189 3.28863C21.5047 3.64229 21.602 4.03714 21.6021 4.4382C21.9962 4.43792 22.3844 4.5366 22.7321 4.72549C23.0798 4.91439 23.3764 5.18767 23.5955 5.52112C23.8146 5.85457 23.9496 6.23789 23.9884 6.63711C24.0272 7.03633 23.9686 7.43913 23.8179 7.8098C23.6671 8.18048 23.4289 8.50758 23.1243 8.76214C22.8196 9.01669 22.458 9.19083 22.0714 9.26912C21.6849 9.34741 21.2853 9.32743 20.9081 9.21096C20.531 9.09449 20.1879 8.88512 19.9092 8.60141L17.7287 10.822M7.82404 17.8522L9.02213 19.0716M5.91189 21.0179C9.18627 24.3518 12.9806 25.8957 14.3824 24.4677C15.7866 23.0385 14.2698 19.1777 10.9942 15.845C7.71981 12.511 3.92545 10.9671 2.52368 12.3951C1.11952 13.8243 2.6363 17.6851 5.91189 21.0179Z" stroke="black" stroke-width="2.5" stroke-linecap="round" stroke-linejoin="round"/>
<path d="M14.3843 24.4671C19.0629 19.7039 20.2011 13.1409 16.9255 9.8081C13.6511 6.47412 7.20296 7.6326 2.52441 12.3946" stroke="black" stroke-width="2.5" stroke-linecap="round" stroke-linejoin="round"/>
</svg>
