<svg width="51" height="47" viewBox="0 0 51 47" fill="none" xmlns="http://www.w3.org/2000/svg">
<path d="M47.5526 12.006L27.3605 0.483863C26.1931 -0.164257 24.7704 -0.164257 23.603 0.501866L3.42918 12.006C3.13231 12.1763 2.89337 12.4297 2.74268 12.7342C2.592 13.0387 2.53636 13.3806 2.58283 13.7163H2.55365V18.2892C2.55365 18.6762 2.68498 19.0633 2.94764 19.373C1.2677 20.3668 0.0419528 22.1527 0 24.7344C0.0383047 27.1036 1.078 28.8031 2.55365 29.8347V33.502C2.55365 34.0781 2.84549 34.6542 3.42918 34.9783L23.6212 46.5004C24.7704 47.1665 26.2114 47.1665 27.3605 46.5004L47.5526 34.9783C48.1363 34.6542 48.4281 34.0781 48.4281 33.502V29.8419C49.9056 28.8121 50.9526 27.109 51 24.7344C50.9416 22.1599 49.7104 20.374 48.0268 19.3802C48.2867 19.0746 48.4288 18.6882 48.4281 18.2892V13.7163H48.4008C48.4471 13.3804 48.3911 13.0384 48.2401 12.7339C48.0891 12.4294 47.8498 12.176 47.5526 12.006ZM4.47071 13.4913L24.5168 2.05916C25.117 1.71709 25.8484 1.71349 26.4576 2.04835L46.5111 13.4913L26.4467 24.9414L26.4376 24.9468C25.8575 25.2817 25.1243 25.2817 24.5442 24.9468L4.47071 13.4913ZM3.83047 19.9941L23.6212 31.2876C24.7704 31.9537 26.2114 31.9537 27.3605 31.2876L47.133 20.0049L47.5343 20.2335C48.6835 20.8997 48.6835 22.538 47.5343 23.2041L27.3423 34.7262C26.1931 35.3923 24.7521 35.3923 23.603 34.7262L3.41094 23.2041C3.14834 23.0523 2.93055 22.8354 2.7792 22.5748C2.62785 22.3143 2.54822 22.0192 2.54822 21.7188C2.54822 21.4185 2.62785 21.1233 2.7792 20.8628C2.93055 20.6022 3.14834 20.3853 3.41094 20.2335L3.83047 19.9941ZM4.1971 30.6557C5.17016 30.9785 6.20248 31.0897 7.22318 30.9815C8.18991 30.8735 9.10193 31.3776 9.52146 32.2418C10.8895 35.1043 14.2275 36.1845 17.0912 35.4644C18.0397 35.2303 19.0247 35.5904 19.5354 36.3825C20.0029 37.4575 20.7604 38.3852 21.7253 39.0646C22.6902 39.7439 23.8255 40.1489 25.0075 40.2352H25.0258C25.1717 40.2532 25.3176 40.2533 25.4818 40.2533H25.5182C25.6642 40.2533 25.8101 40.2532 25.9743 40.2352H25.9925C27.1745 40.1489 28.3098 39.7439 29.2747 39.0646C30.2396 38.3852 30.9971 37.4575 31.4646 36.3825C31.9753 35.5904 32.9603 35.2303 33.9088 35.4644C36.7543 36.1845 40.1105 35.1043 41.4785 32.2418C41.8981 31.3776 42.8101 30.8735 43.7768 30.9815C44.7545 31.0846 45.7433 30.9865 46.6807 30.6935L44.957 31.6783C44.6243 32.9609 44.0335 34.1644 43.2196 35.2169C42.4058 36.2695 41.3857 37.1496 40.22 37.8048C37.7038 39.238 34.742 39.7095 31.8969 39.1298L27.3423 41.7295C26.1931 42.3956 24.7521 42.3956 23.603 41.7295L19.052 39.1334C16.2111 39.7084 13.2552 39.2357 10.7436 37.8048C9.57952 37.1508 8.56052 36.2726 7.74708 35.2223C6.93365 34.172 6.34237 32.9711 6.00837 31.6909L4.1971 30.6557Z" fill="white"/>
</svg>
