<svg width="32" height="25" viewBox="0 0 32 25" fill="none" xmlns="http://www.w3.org/2000/svg">
<path id="Vector" d="M31.4694 11.1494C31.8091 11.5015 32 11.979 32 12.4769C32 12.9748 31.8091 13.4524 31.4694 13.8045L21.217 24.4268C21.0498 24.6061 20.8498 24.7491 20.6287 24.8476C20.4076 24.946 20.1698 24.9978 19.9292 24.9999C19.6885 25.0021 19.4499 24.9546 19.2271 24.8602C19.0044 24.7658 18.8021 24.6263 18.6319 24.45C18.4617 24.2737 18.3272 24.0641 18.236 23.8333C18.1449 23.6025 18.099 23.3553 18.1011 23.106C18.1032 22.8566 18.1532 22.6102 18.2482 22.3812C18.3432 22.1521 18.4813 21.9449 18.6544 21.7717L25.8131 14.3546L1.81233 14.3546C1.33167 14.3546 0.870697 14.1568 0.530819 13.8047C0.190939 13.4525 0 12.9749 0 12.4769C0 11.9789 0.190939 11.5013 0.530819 11.1492C0.870697 10.797 1.33167 10.5992 1.81233 10.5992L25.8131 10.5992L18.6544 3.1822C18.3242 2.82805 18.1416 2.35374 18.1457 1.86141C18.1498 1.36908 18.3404 0.898119 18.6764 0.549973C19.0125 0.201828 19.467 0.00434875 19.9422 7.05719e-05C20.4174 -0.00420761 20.8752 0.185057 21.217 0.527098L31.4694 11.1494Z" fill="#FFEEDC"/>
</svg>
