<svg width="14" height="14" viewBox="0 0 14 14" fill="none" xmlns="http://www.w3.org/2000/svg">
<path id="Vector" d="M12.9663 8H7.99448V13C7.99448 13.2652 7.88972 13.5196 7.70324 13.7071C7.51676 13.8946 7.26384 14 7.00011 14C6.73639 14 6.48347 13.8946 6.29699 13.7071C6.11051 13.5196 6.00575 13.2652 6.00575 13V8H1.03392C0.770195 8 0.517274 7.89464 0.330794 7.70711C0.144314 7.51957 0.0395508 7.26522 0.0395508 7C0.0395508 6.73478 0.144314 6.48043 0.330794 6.29289C0.517274 6.10536 0.770195 6 1.03392 6H6.00575V1C6.00575 0.734784 6.11051 0.480429 6.29699 0.292893C6.48347 0.105357 6.73639 0 7.00011 0C7.26384 0 7.51676 0.105357 7.70324 0.292893C7.88972 0.480429 7.99448 0.734784 7.99448 1V6H12.9663C13.23 6 13.483 6.10536 13.6694 6.29289C13.8559 6.48043 13.9607 6.73478 13.9607 7C13.9607 7.26522 13.8559 7.51957 13.6694 7.70711C13.483 7.89464 13.23 8 12.9663 8Z" fill="#C73715"/>
</svg>
