<svg width="14" height="14" viewBox="0 0 14 14" fill="none" xmlns="http://www.w3.org/2000/svg">
<path id="Vector" d="M12.9658 8H7.99399V13C7.99399 13.2652 7.88923 13.5196 7.70275 13.7071C7.51627 13.8946 7.26335 14 6.99963 14C6.7359 14 6.48298 13.8946 6.2965 13.7071C6.11002 13.5196 6.00526 13.2652 6.00526 13V8H1.03343C0.769706 8 0.516786 7.89464 0.330306 7.70711C0.143826 7.51957 0.0390625 7.26522 0.0390625 7C0.0390625 6.73478 0.143826 6.48043 0.330306 6.29289C0.516786 6.10536 0.769706 6 1.03343 6H6.00526V1C6.00526 0.734784 6.11002 0.480429 6.2965 0.292893C6.48298 0.105357 6.7359 0 6.99963 0C7.26335 0 7.51627 0.105357 7.70275 0.292893C7.88923 0.480429 7.99399 0.734784 7.99399 1V6H12.9658C13.2295 6 13.4825 6.10536 13.6689 6.29289C13.8554 6.48043 13.9602 6.73478 13.9602 7C13.9602 7.26522 13.8554 7.51957 13.6689 7.70711C13.4825 7.89464 13.2295 8 12.9658 8Z" fill="#C73715"/>
</svg>
