<svg width="40" height="40" viewBox="0 0 40 40" fill="none" xmlns="http://www.w3.org/2000/svg">
<path d="M20 7.5C16.6848 7.5 13.5054 8.81696 11.1612 11.1612C8.81696 13.5054 7.5 16.6848 7.5 20C7.5 23.3152 8.81696 26.4946 11.1612 28.8388C13.5054 31.183 16.6848 32.5 20 32.5C23.3152 32.5 26.4946 31.183 28.8388 28.8388C31.183 26.4946 32.5 23.3152 32.5 20C32.5 16.6848 31.183 13.5054 28.8388 11.1612C26.4946 8.81696 23.3152 7.5 20 7.5ZM5 20C5 18.0302 5.38799 16.0796 6.14181 14.2597C6.89563 12.4399 8.00052 10.7863 9.3934 9.3934C10.7863 8.00052 12.4399 6.89563 14.2597 6.14181C16.0796 5.38799 18.0302 5 20 5C21.9698 5 23.9204 5.38799 25.7403 6.14181C27.5601 6.89563 29.2137 8.00052 30.6066 9.3934C31.9995 10.7863 33.1044 12.4399 33.8582 14.2597C34.612 16.0796 35 18.0302 35 20C35 23.9782 33.4196 27.7936 30.6066 30.6066C27.7936 33.4196 23.9782 35 20 35C16.0218 35 12.2064 33.4196 9.3934 30.6066C6.58035 27.7936 5 23.9782 5 20Z" fill="white"/>
</svg>
