<svg width="22" height="22" viewBox="0 0 22 22" fill="none" xmlns="http://www.w3.org/2000/svg">
<path d="M9.95951 1.31271C11.6024 -1.09392 15.3656 0.0182181 15.4364 2.93126L15.4772 4.61261C15.5088 5.9147 16.377 7.04763 17.6261 7.41676L19.2789 7.90521C22.0599 8.72706 22.1724 12.6244 19.4435 13.6053L17.7649 14.2087C16.5487 14.6459 15.7492 15.8128 15.7806 17.1047L15.8233 18.8622C15.8939 21.7699 12.2004 23.0667 10.4378 20.753L9.43148 19.4321C8.63836 18.391 7.26188 17.9842 6.03026 18.4269L4.46759 18.9887C1.73047 19.9726 -0.664827 16.8764 0.975031 14.4741L1.96617 13.0222C2.69479 11.9548 2.65799 10.5408 1.87483 9.51281L0.793894 8.09391C-0.963434 5.78714 1.24953 2.57707 4.03052 3.39892L5.68332 3.88737C6.93239 4.2565 8.27695 3.7775 9.01128 2.70177L9.95951 1.31271Z" fill="#C73715"/>
</svg>
