<svg width="20" height="26" viewBox="0 0 20 26" fill="none" xmlns="http://www.w3.org/2000/svg">
<path d="M10.0012 14.5439V14.5582M7.06924 18.8563V18.8707M12.9332 18.8563V18.8707M3.4043 7.35641H16.5981L16.1862 4.12493C16.0975 3.42948 15.7529 2.78973 15.217 2.32594C14.6811 1.86216 13.9909 1.60629 13.2762 1.60645H6.7262C6.0112 1.60594 5.32066 1.86165 4.78447 2.32547C4.24829 2.78928 3.90343 3.42923 3.81477 4.12493L3.4043 7.35641Z" stroke="black" stroke-width="2" stroke-linecap="round" stroke-linejoin="round"/>
<path d="M3.4031 7.35693L1.03994 21.2589C0.969886 21.6708 0.992182 22.0927 1.10528 22.4953C1.21838 22.8979 1.41956 23.2715 1.69483 23.5902C1.97011 23.9088 2.31287 24.1648 2.69927 24.3404C3.08568 24.516 3.50645 24.6069 3.93232 24.6068H16.0677C16.4936 24.6069 16.9143 24.516 17.3007 24.3404C17.6871 24.1648 18.0299 23.9088 18.3052 23.5902C18.5804 23.2715 18.7816 22.8979 18.8947 22.4953C19.0078 22.0927 19.0301 21.6708 18.9601 21.2589L16.5969 7.35693" stroke="black" stroke-width="2" stroke-linecap="round" stroke-linejoin="round"/>
</svg>
