<svg width="34" height="40" viewBox="0 0 34 40" fill="none" xmlns="http://www.w3.org/2000/svg">
<path d="M16.9265 0C19.0483 0 21.0831 0.842855 22.5834 2.34315C24.0837 3.84344 24.9265 5.87827 24.9265 8H28.9965C30.0329 7.99987 31.0289 8.40197 31.7746 9.12162C32.5204 9.84128 32.9577 10.8223 32.9945 11.858L33.8505 35.858C33.8696 36.3948 33.7803 36.9299 33.5881 37.4314C33.3959 37.933 33.1047 38.3907 32.7317 38.7772C32.3588 39.1638 31.9119 39.4713 31.4175 39.6814C30.9232 39.8914 30.3916 39.9998 29.8545 40H3.99852C3.4614 39.9998 2.92983 39.8914 2.4355 39.6814C1.94117 39.4713 1.49422 39.1638 1.12129 38.7772C0.748368 38.3907 0.457113 37.933 0.2649 37.4314C0.0726872 36.9299 -0.0165462 36.3948 0.00252145 35.858L0.858521 11.858C0.895312 10.8223 1.33265 9.84128 2.07842 9.12162C2.82418 8.40197 3.82015 7.99987 4.85652 8H8.92652C8.92652 5.87827 9.76937 3.84344 11.2697 2.34315C12.77 0.842855 14.8048 0 16.9265 0ZM12.9265 12H8.92652V14C8.92709 14.5098 9.12228 15.0001 9.47222 15.3707C9.82215 15.7414 10.3004 15.9645 10.8093 15.9943C11.3182 16.0242 11.8193 15.8587 12.2102 15.5315C12.6011 15.2043 12.8523 14.7402 12.9125 14.234L12.9265 14V12ZM24.9265 12H20.9265V14C20.9265 14.5304 21.1372 15.0391 21.5123 15.4142C21.8874 15.7893 22.3961 16 22.9265 16C23.457 16 23.9657 15.7893 24.3407 15.4142C24.7158 15.0391 24.9265 14.5304 24.9265 14V12ZM16.9265 4C15.9174 3.99968 14.9454 4.38081 14.2054 5.06699C13.4655 5.75317 13.0122 6.69369 12.9365 7.7L12.9265 8H20.9265C20.9265 6.93913 20.5051 5.92172 19.7549 5.17157C19.0048 4.42143 17.9874 4 16.9265 4Z" fill="white"/>
</svg>
