<svg width="24" height="24" viewBox="0 0 24 24" fill="none" xmlns="http://www.w3.org/2000/svg">
<path d="M15.6332 4.14049L17.7852 5.43649L18.5592 4.15149L16.4072 2.85549L15.6332 4.14049ZM8.7032 20.1705L8.0382 19.7705L7.2642 21.0555L7.9292 21.4555L8.7032 20.1705ZM13.3102 17.1005L13.0622 18.1955L14.5252 18.5275L14.7732 17.4325L13.3102 17.1005ZM7.4732 14.7725L8.2582 14.0015L7.2062 12.9315L6.4222 13.7035L7.4732 14.7725ZM13.3182 5.66049L16.3502 4.17049L15.6892 2.82449L12.6572 4.31449L13.3182 5.66049ZM17.4242 4.85349L17.7042 8.33849L19.1982 8.21949L18.9192 4.73449L17.4242 4.85349ZM16.6762 3.86049L17.1022 3.09049L15.7902 2.36349L15.3632 3.13449L16.6762 3.86049ZM17.1722 3.07049L17.9522 3.54149L18.7262 2.25649L17.9462 1.78649L17.1722 3.07049ZM17.9702 3.60849L17.5152 4.43049L18.8282 5.15749L19.2832 4.33549L17.9702 3.60849ZM17.7032 8.33849L17.7172 8.51449L19.2142 8.41949L19.1982 8.21949L17.7032 8.33849ZM17.1092 13.4635C17.1772 13.4035 17.2182 13.3685 17.2562 13.3335L16.2462 12.2235L16.1182 12.3375L17.1092 13.4635ZM17.7172 8.51349C17.8072 9.93249 17.2572 11.3025 16.2462 12.2235L17.2562 13.3335C18.6142 12.0955 19.3322 10.2785 19.2142 8.41949L17.7172 8.51349ZM10.8092 9.08549L10.8392 8.91249L9.3662 8.63449C9.3562 8.68649 9.3462 8.74049 9.3312 8.83149L10.8092 9.08549ZM12.6572 4.31449C12.5772 4.35349 12.5282 4.37749 12.4822 4.40149L13.1672 5.73549L13.3182 5.66049L12.6572 4.31449ZM10.8402 8.91249C11.1022 7.52149 11.9682 6.35149 13.1672 5.73549L12.4822 4.40149C10.8562 5.23649 9.7102 6.80549 9.3662 8.63449L10.8402 8.91249ZM8.2582 14.0005L8.3922 13.8675L7.3282 12.8095L7.2062 12.9315L8.2582 14.0005ZM9.3302 8.83049L9.3002 9.00449L10.7752 9.27449C10.7852 9.22449 10.7932 9.17449 10.8082 9.08449L9.3302 8.83049ZM8.3912 13.8675C9.63146 12.612 10.4626 11.0104 10.7752 9.27349L9.3002 9.00449C9.04183 10.4432 8.35501 11.7691 7.3282 12.8095L8.3912 13.8675ZM14.7712 17.4315L14.8112 17.2605L13.3512 16.9125L13.3092 17.1005L14.7712 17.4315ZM16.1172 12.3365L15.9762 12.4615L16.9802 13.5755L17.1082 13.4625L16.1172 12.3365ZM14.8112 17.2605C15.1444 15.8409 15.9007 14.5558 16.9802 13.5755L15.9762 12.4615C14.671 13.6452 13.7559 15.1983 13.3522 16.9135L14.8112 17.2605ZM8.0372 19.7705C7.4062 19.3895 6.9672 19.1245 6.6422 18.8955C6.3202 18.6695 6.1702 18.5185 6.0832 18.3895L4.8402 19.2295C5.0762 19.5795 5.3982 19.8545 5.7792 20.1225C6.1572 20.3885 6.6512 20.6855 7.2632 21.0545L8.0372 19.7705ZM6.4212 13.7025C5.9082 14.2065 5.4942 14.6125 5.1872 14.9605C4.8772 15.3105 4.6272 15.6545 4.4772 16.0485L5.8782 16.5825C5.9342 16.4345 6.0482 16.2505 6.3112 15.9535C6.5752 15.6535 6.9442 15.2915 7.4722 14.7715L6.4212 13.7025ZM6.0832 18.3895C5.90774 18.1261 5.79761 17.8257 5.76196 17.5113C5.7263 17.1969 5.76615 16.8784 5.8782 16.5825L4.4762 16.0485C4.27879 16.5691 4.20883 17.1295 4.27215 17.6827C4.33548 18.2359 4.53025 18.7669 4.8402 19.2295L6.0832 18.3895ZM7.9282 21.4545C8.5402 21.8245 9.0332 22.1215 9.4442 22.3305C9.8562 22.5405 10.2512 22.6965 10.6692 22.7355L10.8092 21.2425C10.6692 21.2295 10.4742 21.1725 10.1242 20.9935C9.7742 20.8145 9.3342 20.5505 8.7022 20.1695L7.9282 21.4545ZM13.0612 18.1945C12.8942 18.9315 12.7762 19.4475 12.6602 19.8385C12.5432 20.2275 12.4472 20.4235 12.3542 20.5455L13.5492 21.4515C13.8032 21.1165 13.9622 20.7205 14.0972 20.2675C14.2312 19.8175 14.3612 19.2425 14.5242 18.5265L13.0612 18.1945ZM10.6692 22.7355C11.219 22.7854 11.7723 22.6936 12.2765 22.4688C12.7807 22.244 13.2189 21.8938 13.5492 21.4515L12.3532 20.5455C12.1773 20.7842 11.943 20.9736 11.6728 21.0957C11.4026 21.2177 11.1056 21.2683 10.8102 21.2425L10.6692 22.7355ZM17.9522 3.54149L18.0952 3.62749C18.1319 3.65083 18.1569 3.66749 18.1702 3.67749C18.1992 3.69749 18.1582 3.67449 18.1182 3.61049L19.3822 2.80249C19.2923 2.66784 19.178 2.55117 19.0452 2.45849C18.9492 2.38849 18.8312 2.31849 18.7252 2.25549L17.9522 3.54149ZM19.2822 4.33349C19.3422 4.22549 19.4082 4.10649 19.4572 3.99849C19.5102 3.88249 19.5682 3.72449 19.5772 3.53249L18.0782 3.46449C18.0822 3.38849 18.1052 3.34849 18.0912 3.38049L18.0502 3.46049L17.9702 3.60849L19.2822 4.33349ZM18.1182 3.61049C18.0905 3.56701 18.0758 3.51602 18.0782 3.46449L19.5772 3.53249C19.5891 3.27487 19.521 3.01988 19.3822 2.80249L18.1182 3.61049ZM17.1012 3.08849L17.1892 2.93249C17.2132 2.88949 17.2292 2.86449 17.2392 2.84849C17.2612 2.81549 17.2392 2.85949 17.1712 2.90449L16.3452 1.65249C16.1752 1.76449 16.0652 1.90549 15.9912 2.01649C15.9222 2.11949 15.8532 2.24649 15.7892 2.36249L17.1012 3.08849ZM17.9452 1.78549C17.8322 1.71749 17.7082 1.64149 17.5962 1.58649C17.4442 1.50856 17.2784 1.46132 17.1082 1.44749L17.0182 2.94549C16.9382 2.94049 16.8962 2.91349 16.9312 2.93149C16.9472 2.93816 16.9755 2.95383 17.0162 2.97849C17.0592 3.00249 17.1072 3.03249 17.1712 3.07049L17.9452 1.78549ZM17.1712 2.90449C17.1259 2.93403 17.0722 2.94907 17.0182 2.94549L17.1082 1.44749C16.8384 1.43154 16.5707 1.50347 16.3452 1.65249L17.1712 2.90449Z" fill="black"/>
<path opacity="0.5" d="M10 9.50098L11.452 8.77498C11.9141 8.54316 12.4329 8.44887 12.947 8.50329C13.4611 8.55771 13.9487 8.75856 14.352 9.08198C14.7043 9.3643 15.1217 9.55379 15.5662 9.6331C16.0106 9.71242 16.4678 9.67902 16.896 9.53598L18.5 9.00098" stroke="black" stroke-width="1.5" stroke-linecap="round"/>
</svg>
