<svg width="25" height="23" viewBox="0 0 25 23" fill="none" xmlns="http://www.w3.org/2000/svg">
<path d="M6.89032 8.62422C6.89032 8.37008 6.98431 8.12634 7.15161 7.94664C7.31891 7.76693 7.54582 7.66597 7.78242 7.66597H13.4919C13.7285 7.66597 13.9554 7.76693 14.1227 7.94664C14.29 8.12634 14.384 8.37008 14.384 8.62422V14.3737C14.384 14.6278 14.29 14.8716 14.1227 15.0513C13.9554 15.231 13.7285 15.3319 13.4919 15.3319H7.78242C7.54582 15.3319 7.31891 15.231 7.15161 15.0513C6.98431 14.8716 6.89032 14.6278 6.89032 14.3737V8.62422ZM8.67452 13.4155H12.5998V9.58247H8.67452V13.4155ZM0.499297 3.85215C1.37356 1.72868 3.35224 0 5.73059 0H19.6474C22.2113 0 25 2.27296 25 5.74948C25 7.7733 23.9473 9.48856 23.2087 10.3625C23.1962 11.4127 23.2354 12.8041 23.2836 14.2932L23.2979 14.7436C23.346 16.2614 23.396 17.8387 23.396 19.1649C23.396 20.3915 23.2782 21.5395 22.5146 22.2601C22.1364 22.6185 21.676 22.7929 21.2121 22.8848C20.6947 22.9718 20.171 23.0096 19.6474 22.9979H5.37374C3.69124 22.9979 2.60287 22.4556 2.04442 21.4551C1.60194 20.6636 1.61799 19.7399 1.62513 19.2953L1.62691 19.1649V10.3874C-0.207248 8.4709 -0.3482 5.91238 0.499297 3.85215ZM5.73059 1.91649C4.18368 1.91649 2.77416 3.06447 2.13184 4.62641C1.50737 6.14619 1.65903 7.92278 3.0971 9.23558C3.19558 9.32558 3.27466 9.43749 3.32889 9.56357C3.38311 9.68965 3.41117 9.82688 3.41112 9.96576V19.2933C3.41112 19.8127 3.41112 20.1749 3.57348 20.4681C3.6841 20.6655 4.02489 21.0814 5.37553 21.0814H16.0808C16.6374 21.0814 17.0157 21.0565 17.2851 21.0009C17.5438 20.9473 17.6205 20.8802 17.6419 20.8553C17.6633 20.8304 17.7294 20.7537 17.7829 20.4758C17.8364 20.1883 17.8632 19.7763 17.8632 19.1649C17.8632 18.2316 17.856 17.1986 17.8507 16.156C17.8267 14.2115 17.8309 12.2666 17.8632 10.3222C17.8697 10.077 17.9636 9.84375 18.1255 9.67062C18.2682 9.51858 18.405 9.37676 18.5358 9.24516C18.882 8.89253 19.1853 8.58397 19.4618 8.14893C19.8008 7.61231 20.0792 6.88979 20.0792 5.74948C20.0792 4.49226 19.5475 3.56084 18.7803 2.9169C18.0032 2.2805 17.0561 1.92972 16.079 1.91649H5.73059ZM19.5296 20.861L19.4815 21.0814H19.6474C20.2041 21.0814 20.5984 21.0565 20.8892 20.999C21.1747 20.9415 21.2871 20.8668 21.3388 20.8189C21.4369 20.7269 21.6118 20.4356 21.6118 19.1649C21.6118 17.8732 21.5636 16.3304 21.5137 14.8049L21.4994 14.3584C21.4476 12.7064 21.4013 11.0927 21.4316 9.93893C21.4382 9.68518 21.5383 9.44463 21.7099 9.27008C22.2488 8.72004 23.2158 7.29417 23.2158 5.74948C23.2158 3.86557 21.9437 2.47036 20.5288 2.04873C21.3263 2.9744 21.8634 4.21437 21.8634 5.74948C21.8634 7.27501 21.478 8.37508 20.9356 9.22983C20.5395 9.85269 20.0399 10.3606 19.6652 10.7381L19.6385 10.7669C19.6099 12.2157 19.6206 14.1552 19.6349 16.089C19.6402 17.143 19.6474 18.1971 19.6474 19.1649C19.6474 19.8031 19.6224 20.3742 19.5296 20.861Z" fill="black"/>
</svg>
