<svg width="25" height="25" viewBox="0 0 25 25" fill="none" xmlns="http://www.w3.org/2000/svg">
<path d="M10.8328 2.50008C10.7224 2.49858 10.6129 2.51903 10.5104 2.56023C10.408 2.60144 10.3148 2.66258 10.2362 2.74011C10.1576 2.81765 10.0952 2.91002 10.0526 3.01187C10.01 3.11372 9.98811 3.22301 9.98811 3.33341H4.9995C4.88907 3.33185 4.77944 3.35225 4.67696 3.39343C4.57449 3.43461 4.48122 3.49574 4.40258 3.57328C4.32394 3.65081 4.26149 3.74321 4.21887 3.84509C4.17625 3.94697 4.1543 4.05631 4.1543 4.16674C4.1543 4.27718 4.17625 4.38652 4.21887 4.4884C4.26149 4.59028 4.32394 4.68267 4.40258 4.76021C4.48122 4.83775 4.57449 4.89888 4.67696 4.94006C4.77944 4.98124 4.88907 5.00164 4.9995 5.00008H19.9995C20.1099 5.00164 20.2196 4.98124 20.322 4.94006C20.4245 4.89888 20.5178 4.83775 20.5964 4.76021C20.6751 4.68267 20.7375 4.59028 20.7801 4.4884C20.8228 4.38652 20.8447 4.27718 20.8447 4.16674C20.8447 4.05631 20.8228 3.94697 20.7801 3.84509C20.7375 3.74321 20.6751 3.65081 20.5964 3.57328C20.5178 3.49574 20.4245 3.43461 20.322 3.39343C20.2196 3.35225 20.1099 3.33185 19.9995 3.33341H15.0109C15.0109 3.22301 14.989 3.11372 14.9464 3.01187C14.9038 2.91002 14.8414 2.81765 14.7628 2.74011C14.6842 2.66258 14.591 2.60144 14.4886 2.56023C14.3861 2.51903 14.2766 2.49858 14.1662 2.50008H10.8328ZM4.9995 6.66674V20.0001C4.9995 20.9209 5.74533 21.6667 6.66617 21.6667H18.3328C19.2537 21.6667 19.9995 20.9209 19.9995 20.0001V6.66674H4.9995Z" fill="#470D01"/>
</svg>
