<svg width="31" height="31" viewBox="0 0 31 31" fill="none" xmlns="http://www.w3.org/2000/svg">
<path fill-rule="evenodd" clip-rule="evenodd" d="M22.4746 25.5746C22.4746 26.3968 22.148 27.1853 21.5666 27.7666C20.9853 28.348 20.1968 28.6746 19.3746 28.6746C18.5524 28.6746 17.7639 28.348 17.1826 27.7666C16.6012 27.1853 16.2746 26.3968 16.2746 25.5746C16.2746 24.7524 16.6012 23.9639 17.1826 23.3826C17.7639 22.8012 18.5524 22.4746 19.3746 22.4746C20.1968 22.4746 20.9853 22.8012 21.5666 23.3826C22.148 23.9639 22.4746 24.7524 22.4746 25.5746ZM17.8246 25.5746C17.8246 25.9857 17.9879 26.3799 18.2786 26.6706C18.5693 26.9613 18.9635 27.1246 19.3746 27.1246C19.7857 27.1246 20.1799 26.9613 20.4706 26.6706C20.7613 26.3799 20.9246 25.9857 20.9246 25.5746C20.9246 25.1635 20.7613 24.7693 20.4706 24.4786C20.1799 24.1879 19.7857 24.0246 19.3746 24.0246C18.9635 24.0246 18.5693 24.1879 18.2786 24.4786C17.9879 24.7693 17.8246 25.1635 17.8246 25.5746ZM8.52461 25.5746C8.52461 26.3968 8.198 27.1853 7.61664 27.7666C7.03528 28.348 6.24678 28.6746 5.42461 28.6746C4.60244 28.6746 3.81394 28.348 3.23258 27.7666C2.65121 27.1853 2.32461 26.3968 2.32461 25.5746C2.32461 24.7524 2.65121 23.9639 3.23258 23.3826C3.81394 22.8012 4.60244 22.4746 5.42461 22.4746C6.24678 22.4746 7.03528 22.8012 7.61664 23.3826C8.198 23.9639 8.52461 24.7524 8.52461 25.5746ZM3.87461 25.5746C3.87461 25.9857 4.03791 26.3799 4.32859 26.6706C4.61927 26.9613 5.01352 27.1246 5.42461 27.1246C5.83569 27.1246 6.22994 26.9613 6.52062 26.6706C6.81131 26.3799 6.97461 25.9857 6.97461 25.5746C6.97461 25.1635 6.81131 24.7693 6.52062 24.4786C6.22994 24.1879 5.83569 24.0246 5.42461 24.0246C5.01352 24.0246 4.61927 24.1879 4.32859 24.4786C4.03791 24.7693 3.87461 25.1635 3.87461 25.5746Z" fill="white"/>
<path fill-rule="evenodd" clip-rule="evenodd" d="M4.65039 6.97461H17.0504C17.8726 6.97461 18.6611 7.30122 19.2424 7.88258C19.8238 8.46394 20.1504 9.25244 20.1504 10.0746V20.9246C20.1504 21.7468 19.8238 22.5353 19.2424 23.1166C18.6611 23.698 17.8726 24.0246 17.0504 24.0246H4.65039C3.82822 24.0246 3.03972 23.698 2.45836 23.1166C1.877 22.5353 1.55039 21.7468 1.55039 20.9246V10.0746C1.55039 9.25244 1.877 8.46394 2.45836 7.88258C3.03972 7.30122 3.82822 6.97461 4.65039 6.97461ZM18.6004 10.0746C18.6004 9.66352 18.4371 9.26928 18.1464 8.97859C17.8557 8.68791 17.4615 8.52461 17.0504 8.52461H4.65039C4.23931 8.52461 3.84506 8.68791 3.55438 8.97859C3.26369 9.26928 3.10039 9.66352 3.10039 10.0746V20.9246C3.10039 21.3357 3.26369 21.7299 3.55438 22.0206C3.84506 22.3113 4.23931 22.4746 4.65039 22.4746H17.0504C17.4615 22.4746 17.8557 22.3113 18.1464 22.0206C18.4371 21.7299 18.6004 21.3357 18.6004 20.9246V10.0746Z" fill="white"/>
<path d="M15.1125 13.175C15.318 13.175 15.5151 13.0933 15.6605 12.948C15.8058 12.8027 15.8875 12.6055 15.8875 12.4C15.8875 12.1945 15.8058 11.9973 15.6605 11.852C15.5151 11.7067 15.318 11.625 15.1125 11.625H6.58745C6.38191 11.625 6.18478 11.7067 6.03944 11.852C5.8941 11.9973 5.81245 12.1945 5.81245 12.4C5.81245 12.6055 5.8941 12.8027 6.03944 12.948C6.18478 13.0933 6.38191 13.175 6.58745 13.175H15.1125ZM15.1125 16.275C15.318 16.275 15.5151 16.1933 15.6605 16.048C15.8058 15.9027 15.8875 15.7055 15.8875 15.5C15.8875 15.2945 15.8058 15.0973 15.6605 14.952C15.5151 14.8067 15.318 14.725 15.1125 14.725H6.58745C6.38191 14.725 6.18478 14.8067 6.03944 14.952C5.8941 15.0973 5.81245 15.2945 5.81245 15.5C5.81245 15.7055 5.8941 15.9027 6.03944 16.048C6.18478 16.1933 6.38191 16.275 6.58745 16.275H15.1125ZM15.1125 19.375C15.318 19.375 15.5151 19.2933 15.6605 19.148C15.8058 19.0027 15.8875 18.8055 15.8875 18.6C15.8875 18.3945 15.8058 18.1973 15.6605 18.052C15.5151 17.9067 15.318 17.825 15.1125 17.825H6.58745C6.38191 17.825 6.18478 17.9067 6.03944 18.052C5.8941 18.1973 5.81245 18.3945 5.81245 18.6C5.81245 18.8055 5.8941 19.0027 6.03944 19.148C6.18478 19.2933 6.38191 19.375 6.58745 19.375H15.1125Z" fill="white"/>
<path fill-rule="evenodd" clip-rule="evenodd" d="M21.7 11.625H26.7995C27.4617 11.6253 28.1064 11.8377 28.6391 12.231C29.1718 12.6242 29.5647 13.1778 29.76 13.8105L31 17.825V20.925C31 21.7472 30.6734 22.5357 30.092 23.117C29.5107 23.6984 28.7222 24.025 27.9 24.025H21.7C20.8778 24.025 20.0893 23.6984 19.508 23.117C18.9266 22.5357 18.6 21.7472 18.6 20.925V14.725C18.6 13.9028 18.9266 13.1143 19.508 12.533C20.0893 11.9516 20.8778 11.625 21.7 11.625ZM29.45 20.925V18.0575L28.2797 14.2678C28.1821 13.9514 27.9857 13.6746 27.7193 13.478C27.4529 13.2813 27.1306 13.1752 26.7995 13.175H21.7C21.2889 13.175 20.8947 13.3383 20.604 13.629C20.3133 13.9197 20.15 14.3139 20.15 14.725V20.925C20.15 21.3361 20.3133 21.7303 20.604 22.021C20.8947 22.3117 21.2889 22.475 21.7 22.475H27.9C28.3111 22.475 28.7053 22.3117 28.996 22.021C29.2867 21.7303 29.45 21.3361 29.45 20.925Z" fill="white"/>
<path fill-rule="evenodd" clip-rule="evenodd" d="M24.0254 14.8799H26.6759C26.8483 14.8802 27.0157 14.938 27.1515 15.0441C27.2874 15.1502 27.384 15.2986 27.4261 15.4658L27.8756 17.2483L27.9004 17.4374V18.7549C27.9004 18.9604 27.8187 19.1575 27.6734 19.3029C27.5281 19.4482 27.3309 19.5299 27.1254 19.5299H24.0254C23.8198 19.5299 23.6227 19.4482 23.4774 19.3029C23.332 19.1575 23.2504 18.9604 23.2504 18.7549V15.6549C23.2504 15.4493 23.332 15.2522 23.4774 15.1069C23.6227 14.9615 23.8198 14.8799 24.0254 14.8799ZM26.3504 17.9799V17.5335L26.0714 16.4299H24.8004V17.9799H26.3504Z" fill="white"/>
</svg>
