<svg width="22" height="22" viewBox="0 0 22 22" fill="none" xmlns="http://www.w3.org/2000/svg">
<path d="M9.95951 1.33908C11.6024 -1.06755 15.3656 0.0445853 15.4364 2.95763L15.4772 4.63898C15.5088 5.94107 16.377 7.074 17.6261 7.44313L19.2789 7.93157C22.0599 8.75343 22.1724 12.6508 19.4435 13.6317L17.7649 14.2351C16.5487 14.6723 15.7492 15.8391 15.7806 17.1311L15.8233 18.8885C15.8939 21.7963 12.2004 23.0931 10.4378 20.7794L9.43148 19.4585C8.63836 18.4174 7.26188 18.0106 6.03026 18.4533L4.46759 19.015C1.73047 19.9989 -0.664827 16.9027 0.975031 14.5005L1.96617 13.0486C2.69479 11.9812 2.65799 10.5672 1.87483 9.53918L0.793894 8.12028C-0.963434 5.81351 1.24953 2.60343 4.03052 3.42529L5.68332 3.91373C6.93239 4.28287 8.27695 3.80386 9.01128 2.72813L9.95951 1.33908Z" fill="#FFBB00"/>
</svg>
