<svg width="87" height="20" viewBox="0 0 87 20" fill="none" xmlns="http://www.w3.org/2000/svg">
<rect width="87" height="20" fill="white"/>
<path d="M0.996 14V5.6H4.632C5.384 5.6 6.032 5.724 6.576 5.972C7.12 6.212 7.54 6.56 7.836 7.016C8.132 7.472 8.28 8.016 8.28 8.648C8.28 9.272 8.132 9.812 7.836 10.268C7.54 10.724 7.12 11.076 6.576 11.324C6.032 11.564 5.384 11.684 4.632 11.684H2.076L2.94 10.808V14H0.996ZM2.94 11.024L2.076 10.1H4.524C5.124 10.1 5.572 9.972 5.868 9.716C6.164 9.46 6.312 9.104 6.312 8.648C6.312 8.184 6.164 7.824 5.868 7.568C5.572 7.312 5.124 7.184 4.524 7.184H2.076L2.94 6.26V11.024ZM13.4373 14V12.74L13.3173 12.464V10.208C13.3173 9.808 13.1933 9.496 12.9453 9.272C12.7053 9.048 12.3333 8.936 11.8293 8.936C11.4853 8.936 11.1453 8.992 10.8093 9.104C10.4813 9.208 10.2013 9.352 9.96928 9.536L9.29728 8.228C9.64928 7.98 10.0733 7.788 10.5693 7.652C11.0653 7.516 11.5693 7.448 12.0813 7.448C13.0653 7.448 13.8293 7.68 14.3733 8.144C14.9173 8.608 15.1893 9.332 15.1893 10.316V14H13.4373ZM11.4693 14.096C10.9653 14.096 10.5333 14.012 10.1733 13.844C9.81328 13.668 9.53728 13.432 9.34528 13.136C9.15328 12.84 9.05728 12.508 9.05728 12.14C9.05728 11.756 9.14928 11.42 9.33328 11.132C9.52528 10.844 9.82528 10.62 10.2333 10.46C10.6413 10.292 11.1733 10.208 11.8293 10.208H13.5453V11.3H12.0333C11.5933 11.3 11.2893 11.372 11.1213 11.516C10.9613 11.66 10.8813 11.84 10.8813 12.056C10.8813 12.296 10.9733 12.488 11.1573 12.632C11.3493 12.768 11.6093 12.836 11.9373 12.836C12.2493 12.836 12.5293 12.764 12.7773 12.62C13.0253 12.468 13.2053 12.248 13.3173 11.96L13.6053 12.824C13.4693 13.24 13.2213 13.556 12.8613 13.772C12.5013 13.988 12.0373 14.096 11.4693 14.096ZM17.5823 16.424C17.2463 16.424 16.9143 16.372 16.5863 16.268C16.2583 16.164 15.9903 16.02 15.7823 15.836L16.4663 14.504C16.6103 14.632 16.7743 14.732 16.9583 14.804C17.1503 14.876 17.3383 14.912 17.5223 14.912C17.7863 14.912 17.9943 14.848 18.1463 14.72C18.3063 14.6 18.4503 14.396 18.5783 14.108L18.9143 13.316L19.0583 13.112L21.3743 7.544H23.1743L20.2583 14.396C20.0503 14.916 19.8103 15.324 19.5383 15.62C19.2743 15.916 18.9783 16.124 18.6503 16.244C18.3303 16.364 17.9743 16.424 17.5823 16.424ZM18.6863 14.252L15.8063 7.544H17.7383L19.9703 12.944L18.6863 14.252ZM27.4687 14V5.6H29.4127V14H27.4687ZM35.1982 7.448C35.7102 7.448 36.1662 7.552 36.5662 7.76C36.9742 7.96 37.2942 8.272 37.5262 8.696C37.7582 9.112 37.8742 9.648 37.8742 10.304V14H36.0022V10.592C36.0022 10.072 35.8862 9.688 35.6542 9.44C35.4302 9.192 35.1102 9.068 34.6942 9.068C34.3982 9.068 34.1302 9.132 33.8902 9.26C33.6582 9.38 33.4742 9.568 33.3382 9.824C33.2102 10.08 33.1462 10.408 33.1462 10.808V14H31.2742V7.544H33.0622V9.332L32.7262 8.792C32.9582 8.36 33.2902 8.028 33.7222 7.796C34.1542 7.564 34.6462 7.448 35.1982 7.448ZM43.1015 14V5.6H46.7375C47.4895 5.6 48.1375 5.724 48.6815 5.972C49.2255 6.212 49.6455 6.56 49.9415 7.016C50.2375 7.472 50.3855 8.016 50.3855 8.648C50.3855 9.272 50.2375 9.812 49.9415 10.268C49.6455 10.724 49.2255 11.076 48.6815 11.324C48.1375 11.564 47.4895 11.684 46.7375 11.684H44.1815L45.0455 10.808V14H43.1015ZM45.0455 11.024L44.1815 10.1H46.6295C47.2295 10.1 47.6775 9.972 47.9735 9.716C48.2695 9.46 48.4175 9.104 48.4175 8.648C48.4175 8.184 48.2695 7.824 47.9735 7.568C47.6775 7.312 47.2295 7.184 46.6295 7.184H44.1815L45.0455 6.26V11.024ZM54.8336 14.096C54.0976 14.096 53.4496 13.952 52.8896 13.664C52.3376 13.376 51.9096 12.984 51.6056 12.488C51.3016 11.984 51.1496 11.412 51.1496 10.772C51.1496 10.124 51.2976 9.552 51.5936 9.056C51.8976 8.552 52.3096 8.16 52.8296 7.88C53.3496 7.592 53.9376 7.448 54.5936 7.448C55.2256 7.448 55.7936 7.584 56.2976 7.856C56.8096 8.12 57.2136 8.504 57.5096 9.008C57.8056 9.504 57.9536 10.1 57.9536 10.796C57.9536 10.868 57.9496 10.952 57.9416 11.048C57.9336 11.136 57.9256 11.22 57.9176 11.3H52.6736V10.208H56.9336L56.2136 10.532C56.2136 10.196 56.1456 9.904 56.0096 9.656C55.8736 9.408 55.6856 9.216 55.4456 9.08C55.2056 8.936 54.9256 8.864 54.6056 8.864C54.2856 8.864 54.0016 8.936 53.7536 9.08C53.5136 9.216 53.3256 9.412 53.1896 9.668C53.0536 9.916 52.9856 10.212 52.9856 10.556V10.844C52.9856 11.196 53.0616 11.508 53.2136 11.78C53.3736 12.044 53.5936 12.248 53.8736 12.392C54.1616 12.528 54.4976 12.596 54.8816 12.596C55.2256 12.596 55.5256 12.544 55.7816 12.44C56.0456 12.336 56.2856 12.18 56.5016 11.972L57.4976 13.052C57.2016 13.388 56.8296 13.648 56.3816 13.832C55.9336 14.008 55.4176 14.096 54.8336 14.096ZM59.1999 14V7.544H60.9879V9.368L60.7359 8.84C60.9279 8.384 61.2359 8.04 61.6599 7.808C62.0839 7.568 62.5999 7.448 63.2079 7.448V9.176C63.1279 9.168 63.0559 9.164 62.9919 9.164C62.9279 9.156 62.8599 9.152 62.7879 9.152C62.2759 9.152 61.8599 9.3 61.5399 9.596C61.2279 9.884 61.0719 10.336 61.0719 10.952V14H59.1999ZM66.5399 14.096C65.9879 14.096 65.4559 14.032 64.9439 13.904C64.4399 13.768 64.0399 13.6 63.7439 13.4L64.3679 12.056C64.6639 12.24 65.0119 12.392 65.4119 12.512C65.8199 12.624 66.2199 12.68 66.6119 12.68C67.0439 12.68 67.3479 12.628 67.5239 12.524C67.7079 12.42 67.7999 12.276 67.7999 12.092C67.7999 11.94 67.7279 11.828 67.5839 11.756C67.4479 11.676 67.2639 11.616 67.0319 11.576C66.7999 11.536 66.5439 11.496 66.2639 11.456C65.9919 11.416 65.7159 11.364 65.4359 11.3C65.1559 11.228 64.8999 11.124 64.6679 10.988C64.4359 10.852 64.2479 10.668 64.1039 10.436C63.9679 10.204 63.8999 9.904 63.8999 9.536C63.8999 9.128 64.0159 8.768 64.2479 8.456C64.4879 8.144 64.8319 7.9 65.2799 7.724C65.7279 7.54 66.2639 7.448 66.8879 7.448C67.3279 7.448 67.7759 7.496 68.2319 7.592C68.6879 7.688 69.0679 7.828 69.3719 8.012L68.7479 9.344C68.4359 9.16 68.1199 9.036 67.7999 8.972C67.4879 8.9 67.1839 8.864 66.8879 8.864C66.4719 8.864 66.1679 8.92 65.9759 9.032C65.7839 9.144 65.6879 9.288 65.6879 9.464C65.6879 9.624 65.7559 9.744 65.8919 9.824C66.0359 9.904 66.2239 9.968 66.4559 10.016C66.6879 10.064 66.9399 10.108 67.2119 10.148C67.4919 10.18 67.7719 10.232 68.0519 10.304C68.3319 10.376 68.5839 10.48 68.8079 10.616C69.0399 10.744 69.2279 10.924 69.3719 11.156C69.5159 11.38 69.5879 11.676 69.5879 12.044C69.5879 12.444 69.4679 12.8 69.2279 13.112C68.9879 13.416 68.6399 13.656 68.1839 13.832C67.7359 14.008 67.1879 14.096 66.5399 14.096ZM73.8149 14.096C73.1269 14.096 72.5149 13.952 71.9789 13.664C71.4509 13.376 71.0309 12.984 70.7189 12.488C70.4149 11.984 70.2629 11.412 70.2629 10.772C70.2629 10.124 70.4149 9.552 70.7189 9.056C71.0309 8.552 71.4509 8.16 71.9789 7.88C72.5149 7.592 73.1269 7.448 73.8149 7.448C74.4949 7.448 75.1029 7.592 75.6389 7.88C76.1749 8.16 76.5949 8.548 76.8989 9.044C77.2029 9.54 77.3549 10.116 77.3549 10.772C77.3549 11.412 77.2029 11.984 76.8989 12.488C76.5949 12.984 76.1749 13.376 75.6389 13.664C75.1029 13.952 74.4949 14.096 73.8149 14.096ZM73.8149 12.56C74.1269 12.56 74.4069 12.488 74.6549 12.344C74.9029 12.2 75.0989 11.996 75.2429 11.732C75.3869 11.46 75.4589 11.14 75.4589 10.772C75.4589 10.396 75.3869 10.076 75.2429 9.812C75.0989 9.548 74.9029 9.344 74.6549 9.2C74.4069 9.056 74.1269 8.984 73.8149 8.984C73.5029 8.984 73.2229 9.056 72.9749 9.2C72.7269 9.344 72.5269 9.548 72.3749 9.812C72.2309 10.076 72.1589 10.396 72.1589 10.772C72.1589 11.14 72.2309 11.46 72.3749 11.732C72.5269 11.996 72.7269 12.2 72.9749 12.344C73.2229 12.488 73.5029 12.56 73.8149 12.56ZM82.5302 7.448C83.0422 7.448 83.4982 7.552 83.8982 7.76C84.3062 7.96 84.6262 8.272 84.8582 8.696C85.0902 9.112 85.2062 9.648 85.2062 10.304V14H83.3342V10.592C83.3342 10.072 83.2182 9.688 82.9862 9.44C82.7622 9.192 82.4422 9.068 82.0262 9.068C81.7302 9.068 81.4622 9.132 81.2222 9.26C80.9902 9.38 80.8062 9.568 80.6702 9.824C80.5422 10.08 80.4782 10.408 80.4782 10.808V14H78.6062V7.544H80.3942V9.332L80.0582 8.792C80.2902 8.36 80.6222 8.028 81.0542 7.796C81.4862 7.564 81.9782 7.448 82.5302 7.448Z" fill="black"/>
</svg>
