<svg width="159" height="25" viewBox="0 0 159 25" fill="none" xmlns="http://www.w3.org/2000/svg">
<path d="M125.816 2L154 24H1V5C1 3.34315 3.16318 2 5.83158 2H125.816Z" fill="#FFD598" stroke="black"/>
<path d="M6.9 9.2V7.4H15.9V9.2H12.3V18.2H11.4V19.1H12.3V20H10.5V9.2H6.9ZM17.693 20V7.4H19.493V13.7H24.893V7.4H26.693V20H24.893V15.5H20.393V14.6H19.493V20H17.693ZM29.3859 8.3H28.4859V7.4H35.6859V9.2H30.2859V12.8H34.7859V13.7H33.8859V14.6H30.2859V18.2H35.6859V20H28.4859V9.2H29.3859V8.3ZM43.7789 16.4H44.6789V13.7H45.5789V11.9H46.4789V10.1H47.3789V8.3H48.2789V7.4H49.1789V8.3H50.0789V10.1H50.9789V11.9H51.8789V13.7H52.7789V16.4H53.6789V20H51.8789V17.3H47.3789V16.4H46.4789V17.3H45.5789V20H43.7789V16.4ZM46.4789 15.5H50.9789V13.7H50.0789V11.9H49.1789V10.1H48.2789V11.9H47.3789V13.7H46.4789V15.5ZM56.3859 8.3H55.4859V7.4H62.6859V9.2H57.2859V12.8H61.7859V13.7H60.8859V14.6H57.2859V18.2H62.6859V20H55.4859V9.2H56.3859V8.3ZM71.6859 10.1H70.7859V9.2H69.8859V8.3H68.9859V9.2H67.1859V10.1H66.2859V11.9H67.1859V12.8H69.8859V13.7H71.6859V14.6H72.5859V15.5H73.4859V18.2H72.5859V19.1H71.6859V20H66.2859V19.1H65.3859V18.2H64.4859V16.4H66.2859V17.3H67.1859V18.2H68.9859V19.1H69.8859V18.2H71.6859V15.5H69.8859V14.6H67.1859V13.7H65.3859V12.8H64.4859V9.2H65.3859V8.3H66.2859V7.4H70.7859V8.3H72.5859V10.1H73.4859V11.9H71.6859V10.1ZM75.1031 9.2V7.4H84.1031V9.2H80.5031V18.2H79.6031V19.1H80.5031V20H78.7031V9.2H75.1031ZM85.8961 20V7.4H87.6961V13.7H93.0961V7.4H94.8961V20H93.0961V15.5H88.5961V14.6H87.6961V20H85.8961ZM97.5891 8.3H96.6891V7.4H103.889V9.2H98.4891V12.8H102.989V13.7H102.089V14.6H98.4891V18.2H103.889V20H96.6891V9.2H97.5891V8.3ZM105.689 9.2V7.4H114.689V9.2H111.089V18.2H110.189V19.1H111.089V20H109.289V9.2H105.689ZM116.482 20V9.2H117.382V8.3H116.482V7.4H118.282V20H116.482ZM127.286 9.2H123.686V10.1H122.786V11H121.886V16.4H122.786V17.3H123.686V18.2H127.286V17.3H128.186V15.5H129.086V14.6H129.986V18.2H129.086V19.1H128.186V20H122.786V19.1H120.986V17.3H120.086V10.1H120.986V9.2H121.886V8.3H122.786V7.4H128.186V8.3H129.086V9.2H129.986V11H128.186V10.1H127.286V9.2Z" fill="black"/>
</svg>
