<svg width="431" height="25" viewBox="0 0 431 25" fill="none" xmlns="http://www.w3.org/2000/svg">
<path d="M0 5C0 3.34315 1.34315 2 3 2H428C429.657 2 431 3.34315 431 5V24H0V5Z" fill="#FFD598"/>
<rect x="412.24" y="5.15" width="15.7896" height="15.7896" rx="1.85" fill="#FFBD5C" stroke="black" stroke-width="0.3"/>
<rect x="393.195" y="5.15" width="15.7896" height="15.7896" rx="1.85" fill="#FFBD5C" stroke="black" stroke-width="0.3"/>
<rect x="374.15" y="5.15" width="15.7896" height="15.7896" rx="1.85" fill="#FFBD5C" stroke="black" stroke-width="0.3"/>
<rect x="377.941" y="12.7163" width="8.37313" height="0.492537" rx="0.246269" fill="black"/>
<rect x="397.879" y="8.5355" width="8.23564" height="8.23564" rx="0.85" fill="#FFBD5C" stroke="black" stroke-width="0.3"/>
<rect x="396.659" y="9.75474" width="8.23564" height="8.23564" rx="0.85" fill="#FFBD5C" stroke="black" stroke-width="0.3"/>
<path d="M417.661 16.3546L417.317 16.0107L420.037 13.2908L417.317 10.5709L417.661 10.2271L420.381 12.947L423.101 10.2271L423.445 10.5709L420.725 13.2908L423.445 16.0107L423.101 16.3546L420.381 13.6347L417.661 16.3546Z" fill="black"/>
<path d="M7.9 9.2V7.4H16.9V9.2H13.3V18.2H12.4V19.1H13.3V20H11.5V9.2H7.9ZM18.693 20V7.4H20.493V13.7H25.893V7.4H27.693V20H25.893V15.5H21.393V14.6H20.493V20H18.693ZM30.3859 8.3H29.4859V7.4H36.6859V9.2H31.2859V12.8H35.7859V13.7H34.8859V14.6H31.2859V18.2H36.6859V20H29.4859V9.2H30.3859V8.3ZM44.7789 16.4H45.6789V13.7H46.5789V11.9H47.4789V10.1H48.3789V8.3H49.2789V7.4H50.1789V8.3H51.0789V10.1H51.9789V11.9H52.8789V13.7H53.7789V16.4H54.6789V20H52.8789V17.3H48.3789V16.4H47.4789V17.3H46.5789V20H44.7789V16.4ZM47.4789 15.5H51.9789V13.7H51.0789V11.9H50.1789V10.1H49.2789V11.9H48.3789V13.7H47.4789V15.5ZM57.3859 8.3H56.4859V7.4H63.6859V9.2H58.2859V12.8H62.7859V13.7H61.8859V14.6H58.2859V18.2H63.6859V20H56.4859V9.2H57.3859V8.3ZM72.6859 10.1H71.7859V9.2H70.8859V8.3H69.9859V9.2H68.1859V10.1H67.2859V11.9H68.1859V12.8H70.8859V13.7H72.6859V14.6H73.5859V15.5H74.4859V18.2H73.5859V19.1H72.6859V20H67.2859V19.1H66.3859V18.2H65.4859V16.4H67.2859V17.3H68.1859V18.2H69.9859V19.1H70.8859V18.2H72.6859V15.5H70.8859V14.6H68.1859V13.7H66.3859V12.8H65.4859V9.2H66.3859V8.3H67.2859V7.4H71.7859V8.3H73.5859V10.1H74.4859V11.9H72.6859V10.1ZM76.1031 9.2V7.4H85.1031V9.2H81.5031V18.2H80.6031V19.1H81.5031V20H79.7031V9.2H76.1031ZM86.8961 20V7.4H88.6961V13.7H94.0961V7.4H95.8961V20H94.0961V15.5H89.5961V14.6H88.6961V20H86.8961ZM98.5891 8.3H97.6891V7.4H104.889V9.2H99.4891V12.8H103.989V13.7H103.089V14.6H99.4891V18.2H104.889V20H97.6891V9.2H98.5891V8.3ZM106.689 9.2V7.4H115.689V9.2H112.089V18.2H111.189V19.1H112.089V20H110.289V9.2H106.689ZM117.482 20V9.2H118.382V8.3H117.482V7.4H119.282V20H117.482ZM128.286 9.2H124.686V10.1H123.786V11H122.886V16.4H123.786V17.3H124.686V18.2H128.286V17.3H129.186V15.5H130.086V14.6H130.986V18.2H130.086V19.1H129.186V20H123.786V19.1H121.986V17.3H121.086V10.1H121.986V9.2H122.886V8.3H123.786V7.4H129.186V8.3H130.086V9.2H130.986V11H129.186V10.1H128.286V9.2Z" fill="black"/>
</svg>
