<svg width="431" height="25" viewBox="0 0 431 25" fill="none" xmlns="http://www.w3.org/2000/svg">
<path d="M0 5C0 3.34315 1.34315 2 3 2H428C429.657 2 431 3.34315 431 5V24H0V5Z" fill="#FFD598"/>
<rect x="412.24" y="5.15" width="15.7896" height="15.7896" rx="1.85" fill="#FFBD5C" stroke="black" stroke-width="0.3"/>
<rect x="393.195" y="5.15" width="15.7896" height="15.7896" rx="1.85" fill="#FFBD5C" stroke="black" stroke-width="0.3"/>
<rect x="374.15" y="5.15" width="15.7896" height="15.7896" rx="1.85" fill="#FFBD5C" stroke="black" stroke-width="0.3"/>
<rect x="377.941" y="12.7163" width="8.37313" height="0.492537" rx="0.246269" fill="black"/>
<rect x="397.879" y="8.5355" width="8.23564" height="8.23564" rx="0.85" fill="#FFBD5C" stroke="black" stroke-width="0.3"/>
<rect x="396.659" y="9.75474" width="8.23564" height="8.23564" rx="0.85" fill="#FFBD5C" stroke="black" stroke-width="0.3"/>
<path d="M417.661 16.3546L417.317 16.0107L420.037 13.2908L417.317 10.5709L417.661 10.2271L420.381 12.947L423.101 10.2271L423.445 10.5709L420.725 13.2908L423.445 16.0107L423.101 16.3546L420.381 13.6347L417.661 16.3546Z" fill="black"/>
<path d="M7.9 9.2V7.4H16.9V9.2H13.3V18.2H12.4V19.1H13.3V20H11.5V9.2H7.9ZM18.693 20V7.4H20.493V13.7H25.893V7.4H27.693V20H25.893V15.5H21.393V14.6H20.493V20H18.693ZM30.3859 8.3H29.4859V7.4H36.6859V9.2H31.2859V12.8H35.7859V13.7H34.8859V14.6H31.2859V18.2H36.6859V20H29.4859V9.2H30.3859V8.3ZM45.6789 8.3H44.7789V7.4H52.8789V9.2H46.5789V12.8H51.0789V13.7H50.1789V14.6H46.5789V20H44.7789V9.2H45.6789V8.3ZM61.1547 9.2H57.5547V10.1H56.6547V11H55.7547V13.7H54.8547V14.6H55.7547V16.4H56.6547V17.3H57.5547V18.2H61.1547V17.3H62.0547V15.5H62.9547V13.7H63.8547V12.8H62.9547V11H62.0547V10.1H61.1547V9.2ZM53.9547 17.3V10.1H54.8547V9.2H55.7547V8.3H56.6547V7.4H62.0547V8.3H62.9547V9.2H63.8547V10.1H64.7547V16.4H63.8547V18.2H62.9547V19.1H62.0547V20H56.6547V19.1H54.8547V17.3H53.9547ZM73.7582 9.2H70.1582V10.1H69.2582V11H68.3582V13.7H67.4582V14.6H68.3582V16.4H69.2582V17.3H70.1582V18.2H73.7582V17.3H74.6582V15.5H75.5582V13.7H76.4582V12.8H75.5582V11H74.6582V10.1H73.7582V9.2ZM66.5582 17.3V10.1H67.4582V9.2H68.3582V8.3H69.2582V7.4H74.6582V8.3H75.5582V9.2H76.4582V10.1H77.3582V16.4H76.4582V18.2H75.5582V19.1H74.6582V20H69.2582V19.1H67.4582V17.3H66.5582ZM79.1617 7.4H84.5617V8.3H85.4617V9.2H86.3617V10.1H87.2617V11.9H88.1617V16.4H87.2617V18.2H86.3617V19.1H84.5617V20H79.1617V7.4ZM80.0617 9.2H80.9617V18.2H83.6617V17.3H85.4617V15.5H86.3617V11.9H85.4617V11H84.5617V10.1H83.6617V9.2H80.9797V8.3H80.0617V9.2ZM96.2477 9.2V7.4H111.548V8.3H113.348V9.2H114.248V10.1H115.148V14.6H114.248V15.5H112.448V16.4H113.348V17.3H114.248V18.2H115.148V20H113.348V18.2H111.548V17.3H110.648V16.4H108.848V20H107.048V9.2H101.648V18.2H100.748V19.1H101.648V20H99.8477V9.2H96.2477ZM107.948 12.8H108.848V14.6H112.448V13.7H113.348V11H112.448V10.1H111.548V9.2H108.848V11.9H107.948V12.8ZM125.955 18.2V19.1H125.055V20H118.755V19.1H117.855V18.2H116.955V7.4H118.755V17.3H119.655V18.2H121.455V19.1H122.355V18.2H124.155V17.3H125.055V7.4H126.855V18.2H125.955ZM135.862 9.2H132.262V10.1H131.362V11H130.462V16.4H131.362V17.3H132.262V18.2H135.862V17.3H136.762V15.5H137.662V14.6H138.562V18.2H137.662V19.1H136.762V20H131.362V19.1H129.562V17.3H128.662V10.1H129.562V9.2H130.462V8.3H131.362V7.4H136.762V8.3H137.662V9.2H138.562V11H136.762V10.1H135.862V9.2ZM140.369 7.4H142.169V13.7H143.069V12.8H143.969V11.9H144.869V11H145.769V9.2H146.669V7.4H148.469V10.1H147.569V11H146.669V12.8H145.769V13.7H144.869V14.6H145.769V15.5H146.669V16.4H147.569V18.2H148.469V20H146.669V18.2H145.769V17.3H144.869V16.4H143.969V15.5H142.169V20H140.369V7.4Z" fill="black"/>
</svg>
