<svg width="161" height="25" viewBox="0 0 161 25" fill="none" xmlns="http://www.w3.org/2000/svg">
<path d="M125.816 2L154 24H1V5C1 3.34315 3.16318 2 5.83158 2H125.816Z" fill="#FFD598" stroke="black"/>
<path d="M8.9 9.2V7.4H17.9V9.2H14.3V18.2H13.4V19.1H14.3V20H12.5V9.2H8.9ZM19.693 20V7.4H21.493V13.7H26.893V7.4H28.693V20H26.893V15.5H22.393V14.6H21.493V20H19.693ZM31.3859 8.3H30.4859V7.4H37.6859V9.2H32.2859V12.8H36.7859V13.7H35.8859V14.6H32.2859V18.2H37.6859V20H30.4859V9.2H31.3859V8.3ZM51.1789 7.4H52.9789V18.2H52.0789V19.1H51.1789V20H47.5789V19.1H46.6789V18.2H45.7789V16.4H46.6789V15.5H47.5789V17.3H48.4789V18.2H50.2789V17.3H51.1789V7.4ZM61.9789 9.2H58.3789V10.1H57.4789V11H56.5789V13.7H55.6789V14.6H56.5789V16.4H57.4789V17.3H58.3789V18.2H61.9789V17.3H62.8789V15.5H63.7789V13.7H64.6789V12.8H63.7789V11H62.8789V10.1H61.9789V9.2ZM54.7789 17.3V10.1H55.6789V9.2H56.5789V8.3H57.4789V7.4H62.8789V8.3H63.7789V9.2H64.6789V10.1H65.5789V16.4H64.6789V18.2H63.7789V19.1H62.8789V20H57.4789V19.1H55.6789V17.3H54.7789ZM76.3824 18.2V19.1H75.4824V20H69.1824V19.1H68.2824V18.2H67.3824V7.4H69.1824V17.3H70.0824V18.2H71.8824V19.1H72.7824V18.2H74.5824V17.3H75.4824V7.4H77.2824V18.2H76.3824ZM79.0895 20V7.4H83.5895V8.3H85.3895V9.2H86.2895V10.1H87.1895V14.6H86.2895V15.5H84.4895V16.4H85.3895V17.3H86.2895V18.2H87.1895V20H85.3895V18.2H83.5895V17.3H82.6895V16.4H80.8895V20H79.0895ZM79.9895 12.8H80.8895V14.6H84.4895V13.7H85.3895V11H84.4895V10.1H83.5895V9.2H80.8895V11.9H79.9895V12.8ZM88.9859 20V7.4H90.7859V10.1H91.6859V11H92.5859V11.9H93.4859V12.8H94.3859V13.7H95.2859V14.6H96.1859V15.5H97.0859V7.4H98.8859V20H97.0859V18.2H96.1859V17.3H95.2859V16.4H94.3859V15.5H93.4859V14.6H92.5859V13.7H91.6859V12.8H90.7859V20H88.9859ZM101.593 8.3H100.693V7.4H107.893V9.2H102.493V12.8H106.993V13.7H106.093V14.6H102.493V18.2H107.893V20H100.693V9.2H101.593V8.3ZM110.593 9.2H109.693V7.4H111.493V8.3H112.393V9.2H113.293V11H114.193V12.8H115.993V11H116.893V9.2H117.793V8.3H118.693V7.4H120.493V9.2H119.593V10.1H118.693V11.9H117.793V12.8H116.893V14.6H115.993V20H114.193V14.6H113.293V12.8H112.393V11.9H111.493V10.1H110.593V9.2Z" fill="black"/>
</svg>
