<?xml version="1.0" encoding="UTF-8"?>
<svg id="Layer_1" data-name="Layer 1" xmlns="http://www.w3.org/2000/svg" viewBox="0 0 1812 1665">
  <defs>
    <style>
      .cls-1 {
        fill: #df742c;
      }

      .cls-2 {
        fill: #ee9475;
      }

      .cls-3 {
        fill: #e79c8d;
      }

      .cls-4 {
        fill: #91231f;
      }

      .cls-5 {
        fill: #fbdfca;
      }

      .cls-6 {
        fill: #fbd5b9;
      }

      .cls-7 {
        fill: #91241f;
      }

      .cls-8 {
        fill: #911f1d;
      }

      .cls-9 {
        fill: #fdb915;
      }

      .cls-10 {
        fill: #fdfaf8;
      }

      .cls-11 {
        fill: #f89f5d;
      }

      .cls-12 {
        fill: #91201e;
      }

      .cls-13 {
        fill: #ab523b;
      }

      .cls-14 {
        fill: #8f2520;
      }

      .cls-15 {
        fill: #e48775;
      }

      .cls-16 {
        fill: #fefaf8;
      }

      .cls-17 {
        fill: #fffefe;
      }

      .cls-18 {
        fill: #facfab;
      }

      .cls-19 {
        fill: #fefaf7;
      }

      .cls-20 {
        fill: #8f2621;
      }

      .cls-21 {
        fill: #c53b27;
      }

      .cls-22 {
        fill: #f3bc92;
      }

      .cls-23 {
        fill: #fdf9f7;
      }

      .cls-24 {
        fill: #fdf9f6;
      }

      .cls-25 {
        fill: #fdd7ba;
      }

      .cls-26 {
        fill: #fbdbc2;
      }

      .cls-27 {
        fill: #fabc8d;
      }
    </style>
  </defs>
  <path class="cls-17" d="M1812,0v1665H0V0h1812ZM1478.25,756.78c25.85-9.34,50.23-22.58,73.67-36.8,27.39-16.62,50.98-35.22,75.1-56.87,94.43-84.75,185.07-234.73,158.5-366.31-12.42-61.49-47.55-104.8-105.53-128.39-3.62-1.47-13.9-3.66-15.95-5.04-1.18-.79-1.82-3.56-3.67-5.33-11.88-11.39-60.93-31.24-78.09-37.88-171.9-66.59-389.98-86.57-573.81-92.13-202.6-6.13-408.74,5.11-605.88,54-37.95,9.41-67.87,18.18-102.25,36.73-39.19,21.14-122,75.48-143.5,113.43-8.09,14.27-5.17,19.85-5.79,35.19-4.64,115.7,2.15,236.72,3.91,352.71.48,31.7.72,63.24.98,94.92-13.89,19.1-21.26,43.17-34.11,62.85-9.64,14.76-19.71,28.3-29.4,43.57-24.67,38.84-48.2,79.5-69.59,120.34-8.26,15.78-5.95,13.12-5.74,30.16,1.19,99.26,3.21,199.24,6.87,298.86,2.71,73.59-1.76,146.26,60.03,197.85,17.39,14.52,27.73,17.55,49.07,22.91,64.94,16.32,133.08,25.46,199.42,34.55,255.36,35.01,510.71,70.53,766.14,105.8,45.47,6.28,91.21,11.3,136.58,18.4,11.56,1.81,12.56,5.49,25.02.44,27.64-11.2,57.05-38.18,85.03-50.72,18.73-11.79,37.04-25.13,55.41-37.79,9.65-6.65,26.71-15.25,34.37-22.62,11.66-11.21,32.18-41.27,40.13-55.83,38.79-71.05,23.67-161.52,21.79-238.99-3.62-148.71-9.36-297.23-16.97-445.76-.65-12.59-2.7-25.54-2.9-38.11-.02-1.49.23-2.93,1.16-4.14Z"/>
  <path class="cls-12" d="M1478.25,756.78c-.93,1.2-1.18,2.65-1.16,4.14.2,12.58,2.25,25.53,2.9,38.11,7.61,148.54,13.35,297.06,16.97,445.76,1.89,77.46,17.01,167.93-21.79,238.99-7.95,14.57-28.48,44.63-40.13,55.83-7.66,7.36-24.72,15.96-34.37,22.62-18.36,12.65-36.68,25.99-55.41,37.79-27.99,12.54-57.39,39.53-85.03,50.72-12.46,5.05-13.46,1.37-25.02-.44-45.37-7.11-91.12-12.13-136.58-18.4-255.42-35.27-510.78-70.79-766.14-105.8-66.35-9.1-134.49-18.23-199.42-34.55-21.34-5.36-31.68-8.39-49.07-22.91-61.79-51.59-57.32-124.26-60.03-197.85-3.67-99.62-5.69-199.59-6.87-298.86-.2-17.04-2.52-14.38,5.74-30.16,21.39-40.84,44.93-81.5,69.59-120.34,9.7-15.27,19.77-28.81,29.4-43.57,12.86-19.69,20.22-43.75,34.11-62.85-.26-31.68-.5-63.21-.98-94.92-1.76-115.99-8.55-237-3.91-352.71.61-15.34-2.3-20.92,5.79-35.19,21.5-37.95,104.31-92.29,143.5-113.43,34.38-18.55,64.3-27.32,102.25-36.73,197.14-48.89,403.28-60.14,605.88-54,183.83,5.57,401.91,25.55,573.81,92.13,17.16,6.65,66.21,26.49,78.09,37.88,1.85,1.77,2.49,4.53,3.67,5.33,2.05,1.38,12.33,3.57,15.95,5.04,57.98,23.6,93.11,66.9,105.53,128.39,26.57,131.58-64.07,281.55-158.5,366.31-24.12,21.65-47.71,40.25-75.1,56.87-23.43,14.22-47.82,27.46-73.67,36.8ZM1621,154.9c-2.8-2.24-7.3-4.29-10.63-5.86-61.48-29.04-141.31-48.21-208.16-61.8-190.53-38.73-395.66-48.84-589.67-41.23-151.28,5.94-314.34,23.03-458.98,67.98-25.03,7.78-50.23,16.58-72.32,30.6-31.28,19.86-80.2,55.97-103.76,83.24-.9,1.04-8.17,10.41-7.47,11.01,6.15-.18,12.38.25,18.54.05,15.92-.53,32.03-2.22,48-3,213.2-10.45,426.61-17.52,640-25.98,193.15-7.66,386.87-18.23,579.97-20.52,36.59-17.02,76.62-29.56,117-33.47,15.76-1.53,31.67-.85,47.49-1.02ZM1703.64,201.24c-64.21-43.39-149.39-30.74-217.04-5.23-7.42,2.8-14.98,6.13-22.55,7.9l10.96,528.64c40.9-18.44,79.31-40.44,116.36-64.89,94.59-79.91,185.54-206.69,178.69-338.41-2.51-48.25-25.83-100.59-66.41-128.01ZM1432,205.88c-22.55.18-46.68,2.72-69.49,4.01-209.54,11.79-419.24,18.68-629.05,26.93-81.12,3.19-162.98,9.21-243.92,9.08-35.65-.06-71.67-2.44-107.03-1.03-64.01,2.55-128.06,6.17-191.97,9.03-7.24.32-14.57-.38-21.81,0-5.33,1.06-1.77,18.35-1.69,22.4.58,32.26-2.24,63.98-2.09,96.02.53,111.68,5.29,224.03,10.13,335.76.1,2.32-.65,4.29-1.1,6.48l159.01,6.01c.35-19.12,1.95-38.35,5.29-57.18,5.78-32.64,24.23-89.78,47.19-113.74,34.71-36.22,82.53-19.98,122.78-3.75,23.25,9.37,43.69,22.56,66.06,33.58,16.93-12.76,36.02-23.05,56.14-29.85,54.86-18.52,127.89-21.29,178.86,9.21,1.93,1.16,6.59,5.84,8.16,5.84,60.95-35.24,144.04-54.05,197.03,4.97,26.98,30.05,41.89,78.09,46.4,117.52.58,5.04.95,33.74,2.19,35.29l104.43,4.07c80.26,3.12,160.65,6.5,240.92,10.08,12.22.54,28.24-.79,39.98,1.02,3.66.56,7.61,4.26,11.91,2.81,3.35-1.13.74-6.08.66-8.38-4.43-125.15-4.48-250.62-6.96-375.8-.83-41.94-1.21-84.42-3.04-126.38-.33-7.62.64-15.31-1.17-22.81-1.16-1.8-14.76-1.2-17.83-1.18ZM760,560.66c-37.97-8.63-80.74-6.12-118,4.5-22.63,6.45-46.1,16.57-64.03,31.97l-2.43.57c-36.02-14.53-69.05-33.58-106.78-44.3-45.48-12.93-68.94-1.75-88.94,40.57-23.83,50.43-34.31,120.34-24.74,174.98,3.33,19.01,8.31,23.3.39,43.54-10.39,26.57-23.02,42.45-28.21,72.74-8.25,48.14-2.91,101.82,48.74,121.64,7.1,2.73,25.44,8.07,32.73,9.27,1.5.25,3.09.6,4.58.09,1.59-.55,8.18-10.68,10.16-12.86,29.87-32.87,78.85-37.89,109.52-3.21,10.96,12.39,13.1,31.35,17.76,46.96.41,1.37.21,2.84.24,4.24l120.38,15.11,46.1,7.88c3.68-.33,6.11-7.34,8.09-9.93,7.27-9.51,24.34-31.74,33.72-37.26,28.44-16.71,61.69-12.34,85.24,10.18,18.74,17.92,22.25,38.36,28.44,62.52,34.8,16.4,80.08,11.62,112.34-8.72,69.1-43.57,77.98-144.79,64.46-217.95l-10.86-50.2c9.03-81.96,15.61-249.66-93.88-267.86-30.56-5.08-64.18,3.54-92.81,14.23-9.31,3.47-28.67,14.19-36.8,15.19-6.47.8-11.87-4.43-17.41-7.91-13.45-8.44-21.34-12.2-38-15.99ZM333.01,736.56c-29.76-1.91-59.65-1.88-89.55-2.96-21.75-.78-48.78-.33-69.91-3.08-5.13-.67-.91-2.06-8.12,0-1.25.36-3.59-.41-4.29.18-.31.26-.26,2.35-1.09,3.36-21.89,26.42-39.47,65.63-56.68,96.3-15.34,27.34-32.02,55.33-47.3,82.85-.65,1.17-.51,3.1-1.29,4.5-6.6,11.87-14.26,23.24-19.77,35.71l304.99,50.97-15.98-19.5c-6.84-16.04-10.79-35.89-13.75-53.22-7.76-45.44,12.49-90.03,27.54-131.86-1.66-17.75-5.65-37-5.9-54.75-.04-2.98,1.19-5.56,1.1-8.49ZM1457,758.55c-11.78-1.19-23.69-3.2-35.51-3.99-4.98-.33-10.05.25-15.03.03-104.31-4.5-209.56-5.9-313.92-8.08-9.84-.2-19.72.24-29.55.04-.29,9.12.41,18.35,0,27.48-.78,17.19-6.05,39.77-4.97,55.97.94,14.12,9.96,35.69,12.68,51.28,7.85,44.88,5.38,91.36-5.78,135.6,8.78,20.84,20.86,47.98,19.06,70.97-.57,7.28-3.53,14.22-3.99,21.5l175.76,5.75,201.24-356.53ZM554,1064.36v26.48c0,.84-2.07,11.96-2.45,13.54-3.2,13.51-14.33,30.71-28.33,34.65-10.22,2.88-17.09.89-26.56-2.79-16.65,24.27-46.9,12.06-64.06-5.08l-7.59-13.36c-39.45-1.91-31.32-45.72-24.58-72.49.67-2.65,5.89-11.91,3.57-13.43l-371.01-60.47c.8,11.12.43,22.4.96,33.53,4.85,101.39,10.49,203.12,10.08,304.82-.05,11.83.49,20.3,1,31.9.77,17.41-1.75,35.62,7.45,51.47.87.09,8.32-8.31,9.48-9.72,11.88-14.51,20.91-26.56,36.71-38.04,135.36-98.37,330.31-79.04,476.09-16.46,31.75,13.63,62.52,31.75,94.54,46.46,53.98,24.79,111.27,44.42,168.5,61.46,75.05,22.34,188.56,55.65,257.8,4.91,17.31-12.69,29.08-23.65,47.79-34.69,25.5-15.04,59.96-39.21,90.21-38.77,4.84.07,10.64,2.96,15.39,3.9,1.78-14.4,1.4-29.01,2.01-43.47,2.05-48.41,4.23-97.36,7.99-145.94.61-7.91-1.7-15.65,4.22-22.25l8.55,1.01c4.7,20.37,1.08,42.48.61,63.39-1.01,45.6-1.91,92.27-3.48,137.64-.23,6.65-1.66,13.96-.93,20.93,16.91,6.59,23.99,23.4,36.16,34.98,12.8,12.18,35.01,25.51,52.39,26.64,15.12.98,38.16-7.46,50.24-16.65,28.91-22,23.68-64.77,34.19-95.82,4.13-12.22,16.21-31.47,25.5-40.47,4.11-3.98,12.38-7.42,12.62-13.38-4.25-147.28-10.19-294.39-12.1-441.75-.25-19.49.28-39.02.03-58.5l-34.67,60.73c-49.37,81.19-94.35,166.29-142.35,248.35-6.77,11.58-14.77,26.85-22.1,37.85-1.69,2.54-6.85,6.76-9.81,7.42-11.83,2.63-28.3.55-40.53.38-73.64-.97-148.25-3.01-222.08-6.91-6.89-.36-17.9-3.13-23.87-2.94-3.87.12-10.95,3.57-15.39,4.6-16.95,3.93-34.06,4.73-51.69,4.28l-36.51-4.98c.85,4.42-2.2,7.34-3.32,11.18-2.88,9.88-4.51,19.83-9.85,29.14-3.51,6.12-8.2,11.76-14.85,14.14-9.6,3.43-15.41,3.23-24.43-1.54-1.14,1.25-6.91,3.91-7.31,4.35-.55.58.07,2.07-.84,2.79-5.23,4.11-29.92,7.69-36.9,6.92-2.26-.25-17.28-5.3-18.24-6.31-.46-.49-.11-1.9-.5-2.37-.77-.92-2.98-1.02-4.28-2.29-3.93-3.79-7.26-11.47-7.51-16.98-9.04.16-19.69-2.94-26.44-9.06-12.91-11.7-12.69-38.4-8.24-54.17.57-2.02,5.61-10.92,4.71-11.77l-155.99-26.99ZM525.66,1119.98c27.85-26.79,10.18-112.56-28.57-124.94-29.97-9.57-55.14,7.52-72.5,30.43-8.73,11.52-12.67,46.67-12.58,61.37s10.59,18.58,23,18.99c2.7,2.7,3.27,6.22,5.58,9.42,5.38,7.43,21.53,17.4,30.9,17.52,9.99.13,11.02-6.98,18.08-9.37,13.4-4.52,24.58,7.65,36.09-3.41ZM741.61,1069.98c-1.75,2.21-4.59,4.4-6.44,7.04-10.62,15.15-21.42,44.03-14.37,61.99,5.72,14.58,18.18,8.59,28.53,16.46,6.68,5.08,5.87,10.16,10.13,14.86,10.84,11.96,40.12,4.91,51.1-5.07,8.23,2.54,17.48,6.07,24.94-.98,6.89-6.51,16.44-37.28,18.64-47.33s3.41-14.72,1.15-24.4c-5.44-23.31-15.28-44.57-38.59-54.38-32.22-13.56-56.68,8.58-75.08,31.8ZM1063.95,1108.28c.48-6.53,3.45-12.97,4.03-19.45,1.24-13.75-4.2-35.33-9.93-48.01-.34-.76-1.15-2.92-2.03-2.44-9.15,15.64-16.96,32.54-28.99,46.49-5.89,6.83-13.08,12.25-19.74,18.18-.66.59-1.93-.06-1.28,2.28l57.95,2.95ZM1267.01,1399.16l-7.05,172.35c-.96,15.95-.34,34.32-1.96,50.01-1.04,10.06-14.02,11.08-17.48,3.48-.5-1.09-1.3-10.53-1.32-12.47-.04-4.34,1.3-10.58,1.43-15.16,1.37-49.57,3.45-99.18,5.33-148.79.57-14.97,3.42-33.91,2.45-48.57-.11-1.71-.24-4.04-1.41-5.37-.5-.57-12.52-6.13-13.78-6.29-11.98-1.59-35.14,10.76-45.92,16.6-14.39,7.8-33.23,18.31-46.61,27.37-12.89,8.73-24.39,20.67-37.38,29.61-33.14,22.81-76.3,30.38-115.83,28.2-36.58-2.01-77.89-9.19-113.29-18.72-80.33-21.62-162.42-51.56-237.55-87.39-50.68-24.17-109.64-57.75-165.26-67.7-24.92-4.45-49.4-11.26-74.89-14.1-75.75-8.45-167.62-6.02-236.87,28.1-28.95,14.27-57.75,31.06-77.66,56.31-3.08,3.91-20.97,24.34-20.96,27.02,10.56,18.71,27.14,39.07,45.69,50.27,13.65,8.24,47,16.54,62.96,17.12,9.18.33,10.45,1.2,19.12,2.79,36.49,6.7,72.78,12.82,109.27,19.72,80.15,15.16,163.17,21.9,244.34,32.64,195.94,25.94,391.62,55.03,587.24,81.71,39.55,5.39,79.29,10.34,118.79,16.01,29.82-12.02,56.6-33.54,84.28-50.68,35.02-21.68,68.14-34.61,94.72-68.24,35.6-45.03,51.99-86.64,51.54-144.29-.17-21.82.62-43.71-.45-65.5-4.64,5.07-9.87,11.71-13.33,17.66-23.97,41.23-5.66,92.18-53.85,123.08-39.56,25.37-79.16,19.01-113.34-11.3-10.88-9.65-15.41-20.85-24.47-30.51-.79-.84-5.54-6.13-6.51-4.98Z"/>
  <path class="cls-3" d="M1432,205.88l8,.99c-1.34,9.35,7.44,15.24,11,22.99,1.84,41.97,2.21,84.44,3.04,126.38,2.48,125.18,2.54,250.65,6.96,375.8.08,2.3,2.69,7.24-.66,8.38-4.3,1.45-8.25-2.24-11.91-2.81-11.73-1.81-27.76-.48-39.98-1.02-80.27-3.57-160.66-6.95-240.92-10.08l-104.43-4.07c-1.24-1.55-1.62-30.25-2.19-35.29-4.51-39.44-19.42-87.48-46.4-117.52-52.99-59.01-136.08-40.21-197.03-4.97-1.57,0-6.23-4.68-8.16-5.84-50.97-30.49-124-27.73-178.86-9.21-20.12,6.79-39.22,17.08-56.14,29.85-22.36-11.02-42.81-24.2-66.06-33.58-40.25-16.23-88.06-32.46-122.78,3.75-22.97,23.96-41.41,81.1-47.19,113.74-3.34,18.83-4.94,38.06-5.29,57.18l-159.01-6.01c.45-2.19,1.2-4.16,1.1-6.48-4.84-111.74-9.6-224.08-10.13-335.76-.15-32.05,2.66-63.76,2.09-96.02-.07-4.04-3.64-21.34,1.69-22.4,7.24-.38,14.57.32,21.81,0,63.9-2.86,127.96-6.47,191.97-9.03,35.36-1.41,71.38.97,107.03,1.03,80.94.13,162.8-5.89,243.92-9.08,209.81-8.26,419.51-15.14,629.05-26.93,22.81-1.28,46.94-3.83,69.49-4.01Z"/>
  <path class="cls-21" d="M554,1064.36l155.99,26.99c.9.85-4.15,9.75-4.71,11.77-4.44,15.76-4.67,42.47,8.24,54.17,6.75,6.12,17.4,9.21,26.44,9.06.25,5.51,3.58,13.19,7.51,16.98,1.31,1.26,3.52,1.37,4.28,2.29.39.47.03,1.88.5,2.37.96,1.02,15.98,6.06,18.24,6.31,6.97.77,31.66-2.81,36.9-6.92.91-.72.3-2.2.84-2.79.4-.43,6.17-3.1,7.31-4.35,9.02,4.76,14.83,4.97,24.43,1.54,6.66-2.38,11.34-8.02,14.85-14.14,5.33-9.3,6.96-19.26,9.85-29.14,1.12-3.84,4.16-6.76,3.32-11.18l36.51,4.98c17.63.45,34.74-.35,51.69-4.28,4.44-1.03,11.52-4.48,15.39-4.6,5.97-.19,16.97,2.58,23.87,2.94,73.83,3.9,148.44,5.94,222.08,6.91,12.23.16,28.69,2.25,40.53-.38,2.95-.66,8.11-4.88,9.81-7.42,7.33-11.01,15.33-26.28,22.1-37.85,48-82.06,92.99-167.16,142.35-248.35l34.67-60.73c.25,19.48-.28,39.01-.03,58.5,1.91,147.37,7.85,294.47,12.1,441.75-.24,5.96-8.51,9.4-12.62,13.38-9.28,9-21.36,28.26-25.5,40.47-10.51,31.05-5.28,73.82-34.19,95.82-12.08,9.19-35.12,17.63-50.24,16.65-17.39-1.13-39.59-14.46-52.39-26.64-12.17-11.57-19.25-28.38-36.16-34.98-.72-6.96.7-14.28.93-20.93,1.57-45.37,2.47-92.03,3.48-137.64.47-20.91,4.08-43.02-.61-63.39l-8.55-1.01c-5.92,6.6-3.61,14.34-4.22,22.25-3.76,48.58-5.94,97.53-7.99,145.94-.61,14.46-.23,29.06-2.01,43.47-4.74-.94-10.55-3.83-15.39-3.9-30.26-.44-64.71,23.73-90.21,38.77-18.7,11.03-30.47,22-47.79,34.69-69.25,50.74-182.76,17.43-257.8-4.91-57.23-17.04-114.52-36.67-168.5-61.46-32.02-14.71-62.79-32.83-94.54-46.46-145.77-62.58-340.73-81.91-476.09,16.46-15.79,11.48-24.83,23.53-36.71,38.04-1.15,1.41-8.61,9.81-9.48,9.72-9.2-15.84-6.68-34.06-7.45-51.47-.51-11.59-1.05-20.07-1-31.9.41-101.7-5.24-203.43-10.08-304.82-.53-11.12-.16-22.4-.96-33.53l371.01,60.47c2.32,1.52-2.91,10.78-3.57,13.43-6.73,26.78-14.87,70.58,24.58,72.49l7.59,13.36c17.15,17.15,47.41,29.35,64.06,5.08,9.47,3.69,16.34,5.67,26.56,2.79,13.99-3.94,25.13-21.14,28.33-34.65.38-1.58,2.45-12.7,2.45-13.54v-26.48Z"/>
  <path class="cls-11" d="M760,560.66c-.65,6.68,3.61,5.17,7.32,6.01.44.1,6.08,3.27,7.01,3.65,5.99,2.44,11.15,2.74,17.12,4.38,2.22.61,3.84,2.63,6.56,1.96,5.54,3.48,10.94,8.71,17.41,7.91,8.12-1.01,27.49-11.72,36.8-15.19,28.63-10.68,62.25-19.31,92.81-14.23,109.49,18.2,102.92,185.9,93.88,267.86l10.86,50.2c13.52,73.16,4.64,174.38-64.46,217.95-32.26,20.34-77.54,25.12-112.34,8.72-6.18-24.16-9.69-44.61-28.44-62.52-23.55-22.52-56.8-26.89-85.24-10.18-9.38,5.51-26.45,27.74-33.72,37.26-1.97,2.58-4.41,9.6-8.09,9.93l-46.1-7.88-120.38-15.11c-.03-1.39.17-2.87-.24-4.24-4.65-15.61-6.8-34.56-17.76-46.96-30.67-34.68-79.65-29.66-109.52,3.21-1.97,2.17-8.57,12.31-10.16,12.86-1.5.52-3.08.16-4.58-.09-7.29-1.2-25.63-6.55-32.73-9.27-51.65-19.82-56.99-73.5-48.74-121.64,5.19-30.3,17.82-46.18,28.21-72.74,7.92-20.24,2.94-24.53-.39-43.54-9.58-54.64.9-124.55,24.74-174.98,20-42.32,43.46-53.49,88.94-40.57,37.73,10.72,70.76,29.78,106.78,44.3l2.43-.57c17.92-15.4,41.4-25.52,64.03-31.97,37.25-10.62,80.02-13.14,118-4.5ZM490,610.63c2.07-1.24,4.34-6.87,4-9.42-1.17-8.75-23.03-16.48-30.61-17.46-48.75-6.28-78.08,35.05-86.73,78.09-3.37,16.77-4.53,51.76.79,67.76,2.54,7.63,7.7,3.79,11.54,3.95.15,0,1.16,1.04,2.43,1.03,6.36-.02,10.47.88,16.17-2.46.49-.28,7.86-7.33,8.08-7.85,2.25-5.23,4.24-10.56,6.66-15.38.29-.57,2.82-1.06,1.66-4.33h4c-.29-5.38,6.94-9.1,10.33-13.24,2.38-2.91,9.16-12.63,9.68-15.75l9.96-9.75c6.24-10.92,15.1-20.46,22.04-30.23.8-1.12,9.6-9.9,9.98-11.7.5-2.35-.48-5.3.05-7.61.08-.34,5.65-4.91-.02-5.68ZM878,618.63c-.75.31-2.68-.47-3.49.99-1.73,2.13-.53,4.5-.89,6.31-.21,1.06-1.39,2.02-1.56,3.25-1.79,12.99,11.64,17.56,17.62,25.75.74,1.02,1.05,5.6,4.32,6.69,3.04,7.1,12.99,16.37,17.68,23.3,3.87,5.7,5.21,14,8.19,20.52,6.46,14.14,16.13,26.69,23.33,40.42,5.78,11.03,10.25,22.38,16.79,33.69-1.39,3.88,1.31,4.46,1.91,5.83,1.06,2.42,3.19,9.04,4.39,10.85,2.21,3.31,4.18,3.82,7.7,4.3.48.63.9,2.87,2.78,3.94,4.23,2.41,12.88,3.79,13.22-2.94,6.8-.37,6.36-4.52,7.69-9.81,12.2-48.55,14.02-112.61-7.8-158.48-25.28-53.15-71.3-31.4-111.89-14.6ZM453.35,795.88c-33.71,33.66,14.57,83.92,51.66,54.13,43.37-34.84-13.3-92.42-51.66-54.13ZM671.67,817.87c-80.68-39.35-162.09,46.15-111.97,126.87.57.92.04,2.54.62,3.38,60.47,69.57,177.56,24.82,159.63-70.09-.76-4.04-10.06-26.96-12.17-29.32-.43-.48-2.22-.15-3.23-1.23-1.23-1.33-3.34-6.61-4.95-8.62-6.57-8.15-17.72-14.54-26.89-19.36-.64-.34-.78-1.51-1.04-1.63ZM843.78,813.79c-20.94,2.51-41.48,23.92-35.25,45.67,14.7,51.31,88.05,27.61,76.2-19.19-4.5-17.78-23.19-28.61-40.95-26.48Z"/>
  <path class="cls-9" d="M1267.01,1399.16c.97-1.16,5.72,4.14,6.51,4.98,9.06,9.66,13.59,20.86,24.47,30.51,34.17,30.31,73.78,36.67,113.34,11.3,48.19-30.9,29.88-81.85,53.85-123.08,3.46-5.95,8.7-12.59,13.33-17.66,1.08,21.78.28,43.67.45,65.5.45,57.65-15.94,99.26-51.54,144.29-26.58,33.62-59.71,46.55-94.72,68.24-27.68,17.14-54.46,38.66-84.28,50.68-39.5-5.67-79.24-10.62-118.79-16.01-195.62-26.68-391.3-55.77-587.24-81.71-81.17-10.75-164.18-17.49-244.34-32.64-36.49-6.9-72.78-13.02-109.27-19.72-8.67-1.59-9.94-2.46-19.12-2.79-15.96-.58-49.31-8.89-62.96-17.12-18.55-11.2-35.13-31.56-45.69-50.27,0-2.68,17.87-23.11,20.96-27.02,19.91-25.25,48.7-42.04,77.66-56.31,69.25-34.12,161.12-36.55,236.87-28.1,25.49,2.84,49.97,9.65,74.89,14.1,55.62,9.94,114.58,43.53,165.26,67.7,75.13,35.83,157.22,65.78,237.55,87.39,35.39,9.52,76.71,16.71,113.29,18.72,39.53,2.17,82.7-5.39,115.83-28.2,12.98-8.94,24.49-20.88,37.38-29.61,13.39-9.07,32.22-19.58,46.61-27.37,10.78-5.84,33.94-18.19,45.92-16.6,1.26.17,13.28,5.72,13.78,6.29,1.17,1.33,1.29,3.66,1.41,5.37.96,14.66-1.89,33.6-2.45,48.57-1.88,49.6-3.96,99.21-5.33,148.79-.13,4.58-1.46,10.82-1.43,15.16.02,1.94.82,11.38,1.32,12.47,3.46,7.6,16.44,6.58,17.48-3.48,1.62-15.69,1-34.06,1.96-50.01l7.05-172.35Z"/>
  <path class="cls-21" d="M1621,154.9c-15.82.17-31.73-.51-47.49,1.02-40.38,3.91-80.42,16.46-117,33.47-193.1,2.29-386.82,12.86-579.97,20.52-213.39,8.47-426.8,15.54-640,25.98-15.97.78-32.08,2.46-48,3-6.16.21-12.38-.23-18.54-.05-.71-.61,6.57-9.98,7.47-11.01,23.56-27.27,72.48-63.39,103.76-83.24,22.09-14.02,47.29-22.82,72.32-30.6,144.64-44.95,307.7-62.04,458.98-67.98,194-7.61,399.14,2.49,589.67,41.23,66.85,13.59,146.68,32.76,208.16,61.8,3.32,1.57,7.83,3.62,10.63,5.86Z"/>
  <path class="cls-21" d="M1703.64,201.24c40.58,27.42,63.9,79.76,66.41,128.01,6.85,131.71-84.1,258.49-178.69,338.41-37.04,24.45-75.45,46.45-116.36,64.89l-10.96-528.64c7.58-1.77,15.14-5.1,22.55-7.9,67.65-25.51,152.83-38.16,217.04,5.23Z"/>
  <path class="cls-13" d="M1457,758.55l-201.24,356.53-175.76-5.75c.46-7.29,3.42-14.23,3.99-21.5,1.8-22.98-10.28-50.13-19.06-70.97,11.16-44.24,13.63-90.72,5.78-135.6-2.73-15.59-11.74-37.15-12.68-51.28-1.08-16.19,4.18-38.78,4.97-55.97.42-9.12-.28-18.36,0-27.48,9.83.2,19.71-.24,29.55-.04,104.36,2.17,209.61,3.57,313.92,8.08,4.98.22,10.05-.37,15.03-.03,11.82.79,23.73,2.81,35.51,3.99Z"/>
  <path class="cls-13" d="M333.01,736.56c.09,2.93-1.14,5.51-1.1,8.49.25,17.75,4.25,37,5.9,54.75-15.05,41.83-35.3,86.42-27.54,131.86,2.96,17.33,6.91,37.18,13.75,53.22l15.98,19.5-304.99-50.97c5.5-12.47,13.17-23.84,19.77-35.71.78-1.4.64-3.33,1.29-4.5,15.28-27.53,31.97-55.51,47.3-82.85,17.21-30.67,34.78-69.88,56.68-96.3.84-1.01.78-3.09,1.09-3.36.7-.59,3.04.18,4.29-.18,7.21-2.06,2.99-.67,8.12,0,21.13,2.75,48.17,2.29,69.91,3.08,29.9,1.08,59.79,1.05,89.55,2.96Z"/>
  <path class="cls-10" d="M741.61,1069.98c18.41-23.22,42.86-45.36,75.08-31.8,23.31,9.81,33.15,31.06,38.59,54.38,2.26,9.68.93,14.85-1.15,24.4-2.2,10.05-11.75,40.82-18.64,47.33-7.46,7.05-16.71,3.52-24.94.98-10.98,9.98-40.26,17.03-51.1,5.07-4.26-4.7-3.45-9.78-10.13-14.86-10.35-7.88-22.8-1.88-28.53-16.46-7.05-17.96,3.75-46.85,14.37-61.99,1.85-2.64,4.69-4.83,6.44-7.04Z"/>
  <path class="cls-16" d="M525.66,1119.98c-11.5,11.07-22.69-1.11-36.09,3.41-7.07,2.39-8.1,9.5-18.08,9.37-9.37-.12-25.53-10.09-30.9-17.52-2.31-3.19-2.87-6.71-5.58-9.42-12.41-.41-22.91-4.99-23-18.99-.1-14.7,3.85-49.85,12.58-61.37,17.36-22.91,42.53-40.01,72.5-30.43,38.75,12.38,56.42,98.16,28.57,124.94Z"/>
  <path class="cls-1" d="M1063.95,1108.28l-57.95-2.95c-.65-2.34.61-1.69,1.28-2.28,6.66-5.93,13.85-11.35,19.74-18.18,12.03-13.95,19.84-30.85,28.99-46.49.88-.48,1.69,1.68,2.03,2.44,5.74,12.68,11.18,34.26,9.93,48.01-.59,6.49-3.55,12.92-4.03,19.45Z"/>
  <path class="cls-15" d="M1432,205.88c3.07-.02,16.67-.62,17.83,1.18,1.81,7.5.84,15.19,1.17,22.81-3.55-7.75-12.34-13.64-11-22.99l-8-.99Z"/>
  <path class="cls-2" d="M760,560.66c16.66,3.79,24.55,7.55,38,15.99-2.72.68-4.34-1.35-6.56-1.96-5.96-1.64-11.12-1.94-17.12-4.38-.93-.38-6.57-3.55-7.01-3.65-3.7-.84-7.97.67-7.32-6.01Z"/>
  <path class="cls-24" d="M671.67,817.87c.26.13.4,1.3,1.04,1.63,9.17,4.82,20.32,11.2,26.89,19.36,1.62,2.01,3.72,7.29,4.95,8.62,1.01,1.08,2.8.75,3.23,1.23,2.1,2.36,11.4,25.28,12.17,29.32,17.94,94.92-99.16,139.67-159.63,70.09-.58-.84-.04-2.46-.62-3.38-50.13-80.72,31.29-166.22,111.97-126.87ZM624.78,854.77c-14.54,1.84-12.12,10.51-6.2,20.62,1.29,2.2,5.08,7.66,6.9,9.1,9.76,7.7,25.94-8.07,27.7-17.42,2.73-14.53-19.5-13.42-28.39-12.3ZM671.65,891.81c-5.38-5.2-12.26-.89-11.6,6.03.28,2.94,2.46,5.45,2.89,8.17,3.23,20.58-12.64,17.01-25.26,10.25-8.53-4.57-10.92-16.74-22.42-12.06-4.9,2-12.4,15.08-19.04,4.53-.87-2.99.16-10.29,1.28-13.29,2.01-5.42,7.92-6.5,4.37-13.35-2.68-5.17-9.44-4.7-13.51-1.28-10.59,8.91-12.72,32.76-2.74,42.52,8.14,7.97,21.2,5.81,30.86,2.07,18.48,15.71,59.34,26.42,64.29-7.7,1.06-7.33-3.84-20.81-9.1-25.9Z"/>
  <path class="cls-19" d="M880,628.62c1.77-.36,3.8.89,5.36.7,11.13-1.34,29-9.97,41.38-12.45,14.38-2.89,26.04-2.51,37.3,8.22,15.44,14.72,24.42,58.98,24.97,79.98.33,12.57-1.18,26.15-.82,38,.09,2.92,1.93,5.49,1.75,8.85-.63,12.35-8.05,29.12-7.94,41.61l-5.45,3.01c-.6-2.86-2.93-1.49-4.24-2.33-1.66-1.07-3.54-5.68-6.31-5.68-1.79-3.03-4.68-6.72-6-8.99-6.54-11.31-11.01-22.66-16.79-33.69-7.2-13.74-16.87-26.28-23.33-40.42-2.98-6.52-4.32-14.82-8.19-20.52-4.7-6.92-14.65-16.19-17.68-23.3-1.24-2.9-1.4-6.38-2.33-8.72-.33-.84-11.47-10.21-11.64-10.99-.64-2.96.94-4.1-2.15-6.74l2.12-6.53Z"/>
  <path class="cls-7" d="M878,618.63c40.59-16.81,86.61-38.55,111.89,14.6,21.82,45.88,20,109.94,7.8,158.48-1.33,5.28-.89,9.44-7.69,9.81-1.81.1-3.4-.17-5-1-3.46-1.42-2.97-3.91-3-7-.11-12.49,7.31-29.25,7.94-41.61.17-3.36-1.66-5.93-1.75-8.85-.37-11.85,1.15-25.44.82-38-.55-21-9.53-65.26-24.97-79.98-11.26-10.73-22.92-11.11-37.3-8.22-12.37,2.49-30.24,11.11-41.38,12.45-1.57.19-3.59-1.05-5.36-.7-2.43-2.8-3.41-4.08-3-8l1-1v-1Z"/>
  <path class="cls-8" d="M843.78,813.79c17.76-2.13,36.45,8.7,40.95,26.48,11.85,46.8-61.5,70.51-76.2,19.19-6.23-21.75,14.31-43.16,35.25-45.67Z"/>
  <path class="cls-8" d="M453.35,795.88c38.35-38.29,95.03,19.28,51.66,54.13-37.08,29.79-85.37-20.47-51.66-54.13Z"/>
  <path class="cls-4" d="M490,610.63c-1.54.92-6.09,1.23-8,1-4.14-.49-7.47-4.01-11.01-5.48-57.58-23.93-80.7,45.53-81.42,89.93-.14,8.46,1.3,17.04,1.44,25.49.06,3.81,1.04,9.33-2,11.99-3.85-.16-9.01,3.68-11.54-3.95-5.32-16-4.16-50.99-.79-67.76,8.65-43.04,37.98-84.38,86.73-78.09,7.57.98,29.44,8.71,30.61,17.46.34,2.54-1.93,8.18-4,9.42Z"/>
  <path class="cls-26" d="M448,674.59c-.05.33.05.68,0,1-.52,3.12-7.3,12.84-9.68,15.75-3.39,4.14-10.62,7.86-10.33,13.23h-4c1.16,3.29-1.38,3.77-1.66,4.34-2.42,4.82-4.41,10.14-6.66,15.38-.22.52-7.59,7.56-8.08,7.85-5.7,3.34-9.82,2.43-16.17,2.46-1.27,0-2.28-1.02-2.43-1.03,3.04-2.66,2.06-8.18,2-11.99,1.23,3.04,1.37,3.52,5.01,2.99v4.01s7.74-.31,7.74-.31l11.71-11.73c2.25-12.65,14.99-20.77,20.86-31.64l11.69-10.3Z"/>
  <path class="cls-6" d="M478,634.62l2,1c-6.94,9.77-15.8,19.3-22.04,30.23l-9.96,9.75c.05-.32-.05-.67,0-1,1.39-8.77,4.3-7.5,8.32-13.23s3.04-5.73,8.36-11c1.62-1.61,4-7.3,5.35-8.99,1.83-2.29,6.89-5.48,7.96-6.75Z"/>
  <path class="cls-18" d="M878,618.63v1c-.46.12-.95.55-1,1-.41,3.92.57,5.19,3,8l-2.12,6.53c3.09,2.64,1.52,3.78,2.15,6.74.17.78,11.31,10.15,11.64,10.99.92,2.33,1.09,5.82,2.33,8.72-3.27-1.09-3.57-5.67-4.32-6.69-5.98-8.18-19.42-12.75-17.62-25.75.17-1.23,1.35-2.19,1.56-3.25.36-1.8-.84-4.18.89-6.31.81-1.46,2.74-.68,3.49-.99Z"/>
  <path class="cls-25" d="M490,610.63c5.67.77.1,5.34.02,5.68-.53,2.3.45,5.26-.05,7.61-.38,1.79-9.18,10.57-9.98,11.7l-2-1c.66-.79,5.82-10.07,5.97-10.7.54-2.21,1.02-11.23-1.97-12.29,1.91.23,6.46-.08,8-1Z"/>
  <path class="cls-27" d="M974,800.52c1.32.18,2.9-.16,4.4.05,2.56.37,6.89,4.32,6.6-.05,1.6.83,3.19,1.1,5,1-.34,6.73-8.99,5.36-13.22,2.94-1.88-1.07-2.29-3.31-2.78-3.94Z"/>
  <path class="cls-22" d="M966,788.53c3.05,5.16,4.55,7.48,8,11.99-3.53-.48-5.49-.99-7.7-4.3-1.21-1.81-3.33-8.43-4.39-10.85-.6-1.38-3.29-1.96-1.91-5.83,1.32,2.28,4.21,5.96,6,8.99Z"/>
  <path class="cls-14" d="M671.65,891.81c5.27,5.09,10.17,18.58,9.1,25.9-4.95,34.11-45.82,23.41-64.29,7.7-9.66,3.74-22.71,5.9-30.86-2.07-9.97-9.76-7.84-33.6,2.74-42.52,4.07-3.42,10.83-3.89,13.51,1.28,3.55,6.85-2.36,7.93-4.37,13.35-1.11,3-2.15,10.31-1.28,13.29,6.63,10.55,14.14-2.54,19.04-4.53,11.5-4.69,13.89,7.49,22.42,12.06,12.62,6.76,28.49,10.32,25.26-10.25-.43-2.72-2.61-5.23-2.89-8.17-.66-6.93,6.22-11.24,11.6-6.03Z"/>
  <path class="cls-20" d="M624.78,854.77c8.89-1.12,31.12-2.23,28.39,12.3-1.76,9.35-17.94,25.12-27.7,17.42-1.82-1.43-5.61-6.9-6.9-9.1-5.92-10.11-8.34-18.79,6.2-20.62Z"/>
  <path class="cls-5" d="M966,788.53c2.76,0,4.65,4.61,6.31,5.68,1.3.84,3.63-.54,4.24,2.33l5.45-3.01c.03,3.09-.46,5.57,3,7,.29,4.37-4.03.42-6.6.05-1.51-.22-3.08.13-4.4-.05-3.45-4.51-4.95-6.83-8-11.99Z"/>
  <path class="cls-11" d="M877,620.63c.05-.45.54-.88,1-1l-1,1Z"/>
  <path class="cls-23" d="M482,611.63c2.99,1.06,2.51,10.08,1.97,12.29-.15.62-5.31,9.91-5.97,10.7-1.07,1.27-6.13,4.46-7.96,6.75-1.35,1.69-3.73,7.38-5.35,8.99-5.33,5.28-4.16,5.02-8.36,11s-6.94,4.46-8.32,13.23l-11.69,10.3c-5.86,10.87-18.61,18.99-20.86,31.64l-11.71,11.73-7.75.31v-4.01c-3.62.53-3.77.05-4.99-2.99-.14-8.45-1.58-17.03-1.44-25.49.73-44.4,23.84-113.86,81.42-89.93,3.54,1.47,6.87,4.99,11.01,5.48Z"/>
</svg>