<svg width="431" height="25" viewBox="0 0 431 25" fill="none" xmlns="http://www.w3.org/2000/svg">
<path d="M0 5C0 3.34315 1.34315 2 3 2H428C429.657 2 431 3.34315 431 5V24H0V5Z" fill="#FFD598"/>
<rect x="412.24" y="5.15" width="15.7896" height="15.7896" rx="1.85" fill="#FFBD5C" stroke="black" stroke-width="0.3"/>
<rect x="393.195" y="5.15" width="15.7896" height="15.7896" rx="1.85" fill="#FFBD5C" stroke="black" stroke-width="0.3"/>
<rect x="374.15" y="5.15" width="15.7896" height="15.7896" rx="1.85" fill="#FFBD5C" stroke="black" stroke-width="0.3"/>
<rect x="377.941" y="12.7163" width="8.37313" height="0.492537" rx="0.246269" fill="black"/>
<rect x="397.879" y="8.53525" width="8.23564" height="8.23564" rx="0.85" fill="#FFBD5C" stroke="black" stroke-width="0.3"/>
<rect x="396.659" y="9.75449" width="8.23564" height="8.23564" rx="0.85" fill="#FFBD5C" stroke="black" stroke-width="0.3"/>
<path d="M417.661 16.3546L417.317 16.0107L420.037 13.2908L417.317 10.5709L417.661 10.2271L420.381 12.947L423.101 10.2271L423.445 10.5709L420.725 13.2908L423.445 16.0107L423.101 16.3546L420.381 13.6347L417.661 16.3546Z" fill="black"/>
<path d="M7.9 9.2V7.4H16.9V9.2H13.3V18.2H12.4V19.1H13.3V20H11.5V9.2H7.9ZM18.693 20V7.4H20.493V13.7H25.893V7.4H27.693V20H25.893V15.5H21.393V14.6H20.493V20H18.693ZM30.3859 8.3H29.4859V7.4H36.6859V9.2H31.2859V12.8H35.7859V13.7H34.8859V14.6H31.2859V18.2H36.6859V20H29.4859V9.2H30.3859V8.3ZM44.7789 20V7.4H49.2789V8.3H51.0789V9.2H51.9789V10.1H52.8789V14.6H51.9789V15.5H50.1789V16.4H46.5789V20H44.7789ZM45.6789 12.8H46.5789V14.6H50.1789V13.7H51.0789V11H50.1789V10.1H49.2789V9.2H46.5789V11.9H45.6789V12.8ZM54.6754 20V7.4H59.1754V8.3H60.9754V9.2H61.8754V10.1H62.7754V14.6H61.8754V15.5H60.0754V16.4H60.9754V17.3H61.8754V18.2H62.7754V20H60.9754V18.2H59.1754V17.3H58.2754V16.4H56.4754V20H54.6754ZM55.5754 12.8H56.4754V14.6H60.0754V13.7H60.9754V11H60.0754V10.1H59.1754V9.2H56.4754V11.9H55.5754V12.8ZM71.7719 9.2H68.1719V10.1H67.2719V11H66.3719V13.7H65.4719V14.6H66.3719V16.4H67.2719V17.3H68.1719V18.2H71.7719V17.3H72.6719V15.5H73.5719V13.7H74.4719V12.8H73.5719V11H72.6719V10.1H71.7719V9.2ZM64.5719 17.3V10.1H65.4719V9.2H66.3719V8.3H67.2719V7.4H72.6719V8.3H73.5719V9.2H74.4719V10.1H75.3719V16.4H74.4719V18.2H73.5719V19.1H72.6719V20H67.2719V19.1H65.4719V17.3H64.5719ZM76.6305 9.2V7.4H85.6305V9.2H82.0305V18.2H81.1305V19.1H82.0305V20H80.2305V9.2H76.6305ZM94.0785 9.2H90.4785V10.1H89.5785V11H88.6785V13.7H87.7785V14.6H88.6785V16.4H89.5785V17.3H90.4785V18.2H94.0785V17.3H94.9785V15.5H95.8785V13.7H96.7785V12.8H95.8785V11H94.9785V10.1H94.0785V9.2ZM86.8785 17.3V10.1H87.7785V9.2H88.6785V8.3H89.5785V7.4H94.9785V8.3H95.8785V9.2H96.7785V10.1H97.6785V16.4H96.7785V18.2H95.8785V19.1H94.9785V20H89.5785V19.1H87.7785V17.3H86.8785ZM98.9371 9.2V7.4H107.937V9.2H104.337V18.2H103.437V19.1H104.337V20H102.537V9.2H98.9371ZM110.63 9.2H109.73V7.4H111.53V8.3H112.43V9.2H113.33V11H114.23V12.8H116.03V11H116.93V9.2H117.83V8.3H118.73V7.4H120.53V9.2H119.63V10.1H118.73V11.9H117.83V12.8H116.93V14.6H116.03V20H114.23V14.6H113.33V12.8H112.43V11.9H111.53V10.1H110.63V9.2ZM122.334 20V7.4H126.834V8.3H128.634V9.2H129.534V10.1H130.434V14.6H129.534V15.5H127.734V16.4H124.134V20H122.334ZM123.234 12.8H124.134V14.6H127.734V13.7H128.634V11H127.734V10.1H126.834V9.2H124.134V11.9H123.234V12.8ZM133.13 8.3H132.23V7.4H139.43V9.2H134.03V12.8H138.53V13.7H137.63V14.6H134.03V18.2H139.43V20H132.23V9.2H133.13V8.3Z" fill="black"/>
</svg>
