<svg width="161" height="25" viewBox="0 0 161 25" fill="none" xmlns="http://www.w3.org/2000/svg">
<path d="M125.816 2L154 24H1V5C1 3.34315 3.16318 2 5.83158 2H125.816Z" fill="#FFD598" stroke="black"/>
<path d="M8.9 9.2V7.4H17.9V9.2H14.3V18.2H13.4V19.1H14.3V20H12.5V9.2H8.9ZM19.693 20V7.4H21.493V13.7H26.893V7.4H28.693V20H26.893V15.5H22.393V14.6H21.493V20H19.693ZM31.3859 8.3H30.4859V7.4H37.6859V9.2H32.2859V12.8H36.7859V13.7H35.8859V14.6H32.2859V18.2H37.6859V20H30.4859V9.2H31.3859V8.3ZM52.9789 10.1H52.0789V9.2H51.1789V8.3H50.2789V9.2H48.4789V10.1H47.5789V11.9H48.4789V12.8H51.1789V13.7H52.9789V14.6H53.8789V15.5H54.7789V18.2H53.8789V19.1H52.9789V20H47.5789V19.1H46.6789V18.2H45.7789V16.4H47.5789V17.3H48.4789V18.2H50.2789V19.1H51.1789V18.2H52.9789V15.5H51.1789V14.6H48.4789V13.7H46.6789V12.8H45.7789V9.2H46.6789V8.3H47.5789V7.4H52.0789V8.3H53.8789V10.1H54.7789V11.9H52.9789V10.1ZM56.3961 9.2V7.4H65.3961V9.2H61.7961V18.2H60.8961V19.1H61.7961V20H59.9961V9.2H56.3961ZM68.0891 9.2H67.1891V7.4H68.9891V8.3H69.8891V9.2H70.7891V11H71.6891V12.8H73.4891V11H74.3891V9.2H75.2891V8.3H76.1891V7.4H77.9891V9.2H77.0891V10.1H76.1891V11.9H75.2891V12.8H74.3891V14.6H73.4891V20H71.6891V14.6H70.7891V12.8H69.8891V11.9H68.9891V10.1H68.0891V9.2ZM79.7926 7.4H81.5926V18.2H86.9926V19.1H86.0926V20H80.6926V19.1H79.7926V7.4ZM89.6926 8.3H88.7926V7.4H95.9926V9.2H90.5926V12.8H95.0926V13.7H94.1926V14.6H90.5926V18.2H95.9926V20H88.7926V9.2H89.6926V8.3Z" fill="black"/>
</svg>
