<svg width="431" height="25" viewBox="0 0 431 25" fill="none" xmlns="http://www.w3.org/2000/svg">
<path d="M0 5C0 3.34315 1.34315 2 3 2H428C429.657 2 431 3.34315 431 5V24H0V5Z" fill="#FFD598"/>
<rect x="412.24" y="5.15" width="15.7896" height="15.7896" rx="1.85" fill="#FFBD5C" stroke="black" stroke-width="0.3"/>
<rect x="393.195" y="5.15" width="15.7896" height="15.7896" rx="1.85" fill="#FFBD5C" stroke="black" stroke-width="0.3"/>
<rect x="374.15" y="5.15" width="15.7896" height="15.7896" rx="1.85" fill="#FFBD5C" stroke="black" stroke-width="0.3"/>
<rect x="377.941" y="12.7163" width="8.37313" height="0.492537" rx="0.246269" fill="black"/>
<rect x="397.879" y="8.5355" width="8.23564" height="8.23564" rx="0.85" fill="#FFBD5C" stroke="black" stroke-width="0.3"/>
<rect x="396.659" y="9.75474" width="8.23564" height="8.23564" rx="0.85" fill="#FFBD5C" stroke="black" stroke-width="0.3"/>
<path d="M417.661 16.3546L417.317 16.0107L420.037 13.2908L417.317 10.5709L417.661 10.2271L420.381 12.947L423.101 10.2271L423.445 10.5709L420.725 13.2908L423.445 16.0107L423.101 16.3546L420.381 13.6347L417.661 16.3546Z" fill="black"/>
<path d="M7.9 9.2V7.4H16.9V9.2H13.3V18.2H12.4V19.1H13.3V20H11.5V9.2H7.9ZM18.693 20V7.4H20.493V13.7H25.893V7.4H27.693V20H25.893V15.5H21.393V14.6H20.493V20H18.693ZM30.3859 8.3H29.4859V7.4H36.6859V9.2H31.2859V12.8H35.7859V13.7H34.8859V14.6H31.2859V18.2H36.6859V20H29.4859V9.2H30.3859V8.3ZM53.7789 18.2V19.1H52.8789V20H46.5789V19.1H45.6789V18.2H44.7789V7.4H46.5789V17.3H47.4789V18.2H49.2789V19.1H50.1789V18.2H51.9789V17.3H52.8789V7.4H54.6789V18.2H53.7789ZM63.6859 10.1H62.7859V9.2H61.8859V8.3H60.9859V9.2H59.1859V10.1H58.2859V11.9H59.1859V12.8H61.8859V13.7H63.6859V14.6H64.5859V15.5H65.4859V18.2H64.5859V19.1H63.6859V20H58.2859V19.1H57.3859V18.2H56.4859V16.4H58.2859V17.3H59.1859V18.2H60.9859V19.1H61.8859V18.2H63.6859V15.5H61.8859V14.6H59.1859V13.7H57.3859V12.8H56.4859V9.2H57.3859V8.3H58.2859V7.4H62.7859V8.3H64.5859V10.1H65.4859V11.9H63.6859V10.1ZM68.1789 8.3H67.2789V7.4H80.7789V8.3H82.5789V9.2H83.4789V10.1H84.3789V14.6H83.4789V15.5H81.6789V16.4H82.5789V17.3H83.4789V18.2H84.3789V20H82.5789V18.2H80.7789V17.3H79.8789V16.4H78.0789V20H76.2789V9.2H69.0789V12.8H73.5789V13.7H72.6789V14.6H69.0789V18.2H74.4789V20H67.2789V9.2H68.1789V8.3ZM77.1789 12.8H78.0789V14.6H81.6789V13.7H82.5789V11H81.6789V10.1H80.7789V9.2H78.0789V11.9H77.1789V12.8Z" fill="black"/>
</svg>
