<svg width="132" height="25" viewBox="0 0 132 25" fill="none" xmlns="http://www.w3.org/2000/svg">
<path d="M106.237 2L130 24H1V5C1 3.34315 2.82386 2 5.07368 2H106.237Z" fill="#FFD598" stroke="black"/>
<path d="M11.5 8.3V9.2H9.7V12.8H12.4V11.9H13.3V11H14.2V10.1H13.3V9.2H12.4V8.3H11.5ZM7.9 20V7.4H14.2V8.3H15.1V9.2H16V11.9H15.1V12.8H14.2V13.7H15.1V14.6H16V15.5H16.9V18.2H16V19.1H15.1V20H7.9ZM9.7 18.2H11.5V19.1H12.4V18.2H14.2V17.3H15.1V16.4H14.2V15.5H13.3V13.7H12.4V14.6H9.7V18.2ZM19.593 8.3H18.693V7.4H25.893V9.2H20.493V12.8H24.993V13.7H24.093V14.6H20.493V18.2H25.893V20H18.693V9.2H19.593V8.3ZM28.593 8.3H27.693V7.4H34.893V9.2H29.493V12.8H33.993V13.7H33.093V14.6H29.493V18.2H34.893V20H27.693V9.2H28.593V8.3ZM36.693 20V7.4H41.193V8.3H42.993V9.2H43.893V10.1H44.793V14.6H43.893V15.5H42.093V16.4H38.493V20H36.693ZM37.593 12.8H38.493V14.6H42.093V13.7H42.993V11H42.093V10.1H41.193V9.2H38.493V11.9H37.593V12.8ZM50.1895 8.3V9.2H48.3895V12.8H51.0895V11.9H51.9895V11H52.8895V10.1H51.9895V9.2H51.0895V8.3H50.1895ZM46.5895 20V7.4H52.8895V8.3H53.7895V9.2H54.6895V11.9H53.7895V12.8H52.8895V13.7H53.7895V14.6H54.6895V15.5H55.5895V18.2H54.6895V19.1H53.7895V20H46.5895ZM48.3895 18.2H50.1895V19.1H51.0895V18.2H52.8895V17.3H53.7895V16.4H52.8895V15.5H51.9895V13.7H51.0895V14.6H48.3895V18.2ZM64.5824 9.2H60.9824V10.1H60.0824V11H59.1824V13.7H58.2824V14.6H59.1824V16.4H60.0824V17.3H60.9824V18.2H64.5824V17.3H65.4824V15.5H66.3824V13.7H67.2824V12.8H66.3824V11H65.4824V10.1H64.5824V9.2ZM57.3824 17.3V10.1H58.2824V9.2H59.1824V8.3H60.0824V7.4H65.4824V8.3H66.3824V9.2H67.2824V10.1H68.1824V16.4H67.2824V18.2H66.3824V19.1H65.4824V20H60.0824V19.1H58.2824V17.3H57.3824ZM69.9859 20V7.4H74.4859V8.3H76.2859V9.2H77.1859V10.1H78.0859V14.6H77.1859V15.5H75.3859V16.4H71.7859V20H69.9859ZM70.8859 12.8H71.7859V14.6H75.3859V13.7H76.2859V11H75.3859V10.1H74.4859V9.2H71.7859V11.9H70.8859V12.8Z" fill="black"/>
</svg>
