<svg width="161" height="25" viewBox="0 0 161 25" fill="none" xmlns="http://www.w3.org/2000/svg">
<path d="M125.816 2L154 24H1V5C1 3.34315 3.16318 2 5.83158 2H125.816Z" fill="#FFD598" stroke="black"/>
<path d="M16.1 9.2H12.5V10.1H11.6V11H10.7V13.7H9.8V14.6H10.7V16.4H11.6V17.3H12.5V18.2H16.1V17.3H17V15.5H17.9V13.7H18.8V12.8H17.9V11H17V10.1H16.1V9.2ZM8.9 17.3V10.1H9.8V9.2H10.7V8.3H11.6V7.4H17V8.3H17.9V9.2H18.8V10.1H19.7V16.4H18.8V18.2H17.9V19.1H17V20H11.6V19.1H9.8V17.3H8.9ZM30.5035 18.2V19.1H29.6035V20H23.3035V19.1H22.4035V18.2H21.5035V7.4H23.3035V17.3H24.2035V18.2H26.0035V19.1H26.9035V18.2H28.7035V17.3H29.6035V7.4H31.4035V18.2H30.5035ZM33.2105 20V7.4H37.7105V8.3H39.5105V9.2H40.4105V10.1H41.3105V14.6H40.4105V15.5H38.6105V16.4H39.5105V17.3H40.4105V18.2H41.3105V20H39.5105V18.2H37.7105V17.3H36.8105V16.4H35.0105V20H33.2105ZM34.1105 12.8H35.0105V14.6H38.6105V13.7H39.5105V11H38.6105V10.1H37.7105V9.2H35.0105V11.9H34.1105V12.8ZM56.6 9.2H53V10.1H52.1V11H51.2V16.4H52.1V17.3H53V18.2H56.6V17.3H57.5V15.5H53.9V14.6H53V13.7H59.3V18.2H58.4V19.1H57.5V20H52.1V19.1H50.3V17.3H49.4V10.1H50.3V9.2H51.2V8.3H52.1V7.4H57.5V8.3H58.4V9.2H59.3V11H57.5V10.1H56.6V9.2ZM68.307 9.2H64.707V10.1H63.807V11H62.907V13.7H62.007V14.6H62.907V16.4H63.807V17.3H64.707V18.2H68.307V17.3H69.207V15.5H70.107V13.7H71.007V12.8H70.107V11H69.207V10.1H68.307V9.2ZM61.107 17.3V10.1H62.007V9.2H62.907V8.3H63.807V7.4H69.207V8.3H70.107V9.2H71.007V10.1H71.907V16.4H71.007V18.2H70.107V19.1H69.207V20H63.807V19.1H62.007V17.3H61.107ZM73.7105 16.4H74.6105V13.7H75.5105V11.9H76.4105V10.1H77.3105V8.3H78.2105V7.4H79.1105V8.3H80.0105V10.1H80.9105V11.9H81.8105V13.7H82.7105V16.4H83.6105V20H81.8105V17.3H77.3105V16.4H76.4105V17.3H75.5105V20H73.7105V16.4ZM76.4105 15.5H80.9105V13.7H80.0105V11.9H79.1105V10.1H78.2105V11.9H77.3105V13.7H76.4105V15.5ZM85.4176 7.4H87.2176V18.2H92.6176V19.1H91.7176V20H86.3176V19.1H85.4176V7.4ZM101.266 10.1H100.366V9.2H99.466V8.3H98.566V9.2H96.766V10.1H95.866V11.9H96.766V12.8H99.466V13.7H101.266V14.6H102.166V15.5H103.066V18.2H102.166V19.1H101.266V20H95.866V19.1H94.966V18.2H94.066V16.4H95.866V17.3H96.766V18.2H98.566V19.1H99.466V18.2H101.266V15.5H99.466V14.6H96.766V13.7H94.966V12.8H94.066V9.2H94.966V8.3H95.866V7.4H100.366V8.3H102.166V10.1H103.066V11.9H101.266V10.1Z" fill="black"/>
</svg>
