<?xml version="1.0" encoding="utf-8"?>
<!-- Generator: Adobe Illustrator 27.9.0, SVG Export Plug-In . SVG Version: 6.00 Build 0)  -->
<svg version="1.1" id="Layer_1" xmlns="http://www.w3.org/2000/svg" xmlns:xlink="http://www.w3.org/1999/xlink" x="0px" y="0px"
	 viewBox="0 0 1812 1665" style="enable-background:new 0 0 1812 1665;" xml:space="preserve">
<style type="text/css">
	.st0{fill:#91201E;}
	.st1{fill:#E79C8D;}
	.st2{fill:#C53B27;}
	.st3{fill:#F89F5D;}
	.st4{fill:#FDB915;}
	.st5{fill:#AB523B;}
	.st6{fill:#FDFAF8;}
	.st7{fill:#FEFAF8;}
	.st8{fill:#DF742C;}
	.st9{fill:#E48775;}
	.st10{fill:#EE9475;}
	.st11{fill:#FDF9F6;}
	.st12{fill:#FEFAF7;}
	.st13{fill:#91241F;}
	.st14{fill:#911F1D;}
	.st15{fill:#91231F;}
	.st16{fill:#FBDBC2;}
	.st17{fill:#FBD5B9;}
	.st18{fill:#FACFAB;}
	.st19{fill:#FDD7BA;}
	.st20{fill:#FABC8D;}
	.st21{fill:#F3BC92;}
	.st22{fill:#8F2520;}
	.st23{fill:#8F2621;}
	.st24{fill:#FBDFCA;}
	.st25{fill:#FDF9F7;}
</style>
<path class="st0" d="M1478.2,756.8c-0.9,1.2-1.2,2.7-1.2,4.1c0.2,12.6,2.2,25.5,2.9,38.1c7.6,148.5,13.3,297.1,17,445.8
	c1.9,77.5,17,167.9-21.8,239c-7.9,14.6-28.5,44.6-40.1,55.8c-7.7,7.4-24.7,16-34.4,22.6c-18.4,12.7-36.7,26-55.4,37.8
	c-28,12.5-57.4,39.5-85,50.7c-12.5,5.1-13.5,1.4-25-0.4c-45.4-7.1-91.1-12.1-136.6-18.4c-255.4-35.3-510.8-70.8-766.1-105.8
	c-66.4-9.1-134.5-18.2-199.4-34.6c-21.3-5.4-31.7-8.4-49.1-22.9c-61.8-51.6-57.3-124.3-60-197.8c-3.7-99.6-5.7-199.6-6.9-298.9
	c-0.2-17-2.5-14.4,5.7-30.2c21.4-40.8,44.9-81.5,69.6-120.3c9.7-15.3,19.8-28.8,29.4-43.6c12.9-19.7,20.2-43.8,34.1-62.8
	c-0.3-31.7-0.5-63.2-1-94.9c-1.8-116-8.6-237-3.9-352.7c0.6-15.3-2.3-20.9,5.8-35.2c21.5-37.9,104.3-92.3,143.5-113.4
	c34.4-18.5,64.3-27.3,102.2-36.7c197.1-48.9,403.3-60.1,605.9-54c183.8,5.6,401.9,25.5,573.8,92.1c17.2,6.7,66.2,26.5,78.1,37.9
	c1.8,1.8,2.5,4.5,3.7,5.3c2.1,1.4,12.3,3.6,15.9,5c58,23.6,93.1,66.9,105.5,128.4c26.6,131.6-64.1,281.6-158.5,366.3
	c-24.1,21.7-47.7,40.2-75.1,56.9C1528.5,734.2,1504.1,747.4,1478.2,756.8L1478.2,756.8z M1621,154.9c-2.8-2.2-7.3-4.3-10.6-5.9
	c-61.5-29-141.3-48.2-208.2-61.8C1211.7,48.5,1006.5,38.4,812.5,46c-151.3,5.9-314.3,23-459,68c-25,7.8-50.2,16.6-72.3,30.6
	c-31.3,19.9-80.2,56-103.8,83.2c-0.9,1-8.2,10.4-7.5,11c6.1-0.2,12.4,0.2,18.5,0.1c15.9-0.5,32-2.2,48-3
	c213.2-10.4,426.6-17.5,640-26c193.2-7.7,386.9-18.2,580-20.5c36.6-17,76.6-29.6,117-33.5C1589.3,154.4,1605.2,155.1,1621,154.9
	L1621,154.9z M1703.6,201.2c-64.2-43.4-149.4-30.7-217-5.2c-7.4,2.8-15,6.1-22.6,7.9l11,528.6c40.9-18.4,79.3-40.4,116.4-64.9
	c94.6-79.9,185.5-206.7,178.7-338.4C1767.5,281,1744.2,228.7,1703.6,201.2L1703.6,201.2z M1432,205.9c-22.6,0.2-46.7,2.7-69.5,4
	c-209.5,11.8-419.2,18.7-629,26.9c-81.1,3.2-163,9.2-243.9,9.1c-35.6-0.1-71.7-2.4-107-1c-64,2.6-128.1,6.2-192,9
	c-7.2,0.3-14.6-0.4-21.8,0c-5.3,1.1-1.8,18.3-1.7,22.4c0.6,32.3-2.2,64-2.1,96c0.5,111.7,5.3,224,10.1,335.8
	c0.1,2.3-0.6,4.3-1.1,6.5l159,6c0.4-19.1,2-38.3,5.3-57.2c5.8-32.6,24.2-89.8,47.2-113.7c34.7-36.2,82.5-20,122.8-3.8
	c23.2,9.4,43.7,22.6,66.1,33.6c16.9-12.8,36-23,56.1-29.8c54.9-18.5,127.9-21.3,178.9,9.2c1.9,1.2,6.6,5.8,8.2,5.8
	c61-35.2,144-54,197,5c27,30,41.9,78.1,46.4,117.5c0.6,5,0.9,33.7,2.2,35.3l104.4,4.1c80.3,3.1,160.7,6.5,240.9,10.1
	c12.2,0.5,28.2-0.8,40,1c3.7,0.6,7.6,4.3,11.9,2.8c3.3-1.1,0.7-6.1,0.7-8.4c-4.4-125.2-4.5-250.6-7-375.8
	c-0.8-41.9-1.2-84.4-3-126.4c-0.3-7.6,0.6-15.3-1.2-22.8C1448.7,205.3,1435.1,205.9,1432,205.9L1432,205.9z M760,560.7
	c-38-8.6-80.7-6.1-118,4.5c-22.6,6.5-46.1,16.6-64,32l-2.4,0.6c-36-14.5-69-33.6-106.8-44.3c-45.5-12.9-68.9-1.8-88.9,40.6
	c-23.8,50.4-34.3,120.3-24.7,175c3.3,19,8.3,23.3,0.4,43.5c-10.4,26.6-23,42.5-28.2,72.7c-8.2,48.1-2.9,101.8,48.7,121.6
	c7.1,2.7,25.4,8.1,32.7,9.3c1.5,0.2,3.1,0.6,4.6,0.1c1.6-0.5,8.2-10.7,10.2-12.9c29.9-32.9,78.9-37.9,109.5-3.2
	c11,12.4,13.1,31.4,17.8,47c0.4,1.4,0.2,2.8,0.2,4.2l120.4,15.1l46.1,7.9c3.7-0.3,6.1-7.3,8.1-9.9c7.3-9.5,24.3-31.7,33.7-37.3
	c28.4-16.7,61.7-12.3,85.2,10.2c18.7,17.9,22.2,38.4,28.4,62.5c34.8,16.4,80.1,11.6,112.3-8.7c69.1-43.6,78-144.8,64.5-218
	l-10.9-50.2c9-82,15.6-249.7-93.9-267.9c-30.6-5.1-64.2,3.5-92.8,14.2c-9.3,3.5-28.7,14.2-36.8,15.2c-6.5,0.8-11.9-4.4-17.4-7.9
	C784.6,568.2,776.7,564.4,760,560.7L760,560.7z M333,736.6c-29.8-1.9-59.6-1.9-89.6-3c-21.8-0.8-48.8-0.3-69.9-3.1
	c-5.1-0.7-0.9-2.1-8.1,0c-1.2,0.4-3.6-0.4-4.3,0.2c-0.3,0.3-0.3,2.3-1.1,3.4c-21.9,26.4-39.5,65.6-56.7,96.3
	c-15.3,27.3-32,55.3-47.3,82.8c-0.7,1.2-0.5,3.1-1.3,4.5c-6.6,11.9-14.3,23.2-19.8,35.7l305,51l-16-19.5
	c-6.8-16-10.8-35.9-13.8-53.2c-7.8-45.4,12.5-90,27.5-131.9c-1.7-17.8-5.6-37-5.9-54.8C331.9,742.1,333.1,739.5,333,736.6L333,736.6
	z M1457,758.5c-11.8-1.2-23.7-3.2-35.5-4c-5-0.3-10.1,0.2-15,0c-104.3-4.5-209.6-5.9-313.9-8.1c-9.8-0.2-19.7,0.2-29.6,0
	c-0.3,9.1,0.4,18.3,0,27.5c-0.8,17.2-6.1,39.8-5,56c0.9,14.1,10,35.7,12.7,51.3c7.8,44.9,5.4,91.4-5.8,135.6
	c8.8,20.8,20.9,48,19.1,71c-0.6,7.3-3.5,14.2-4,21.5l175.8,5.8L1457,758.5L1457,758.5z M554,1064.4v26.5c0,0.8-2.1,12-2.5,13.5
	c-3.2,13.5-14.3,30.7-28.3,34.7c-10.2,2.9-17.1,0.9-26.6-2.8c-16.6,24.3-46.9,12.1-64.1-5.1l-7.6-13.4
	c-39.5-1.9-31.3-45.7-24.6-72.5c0.7-2.7,5.9-11.9,3.6-13.4L33,971.4c0.8,11.1,0.4,22.4,1,33.5c4.8,101.4,10.5,203.1,10.1,304.8
	c0,11.8,0.5,20.3,1,31.9c0.8,17.4-1.8,35.6,7.5,51.5c0.9,0.1,8.3-8.3,9.5-9.7c11.9-14.5,20.9-26.6,36.7-38
	c135.4-98.4,330.3-79,476.1-16.5c31.8,13.6,62.5,31.8,94.5,46.5c54,24.8,111.3,44.4,168.5,61.5c75,22.3,188.6,55.7,257.8,4.9
	c17.3-12.7,29.1-23.7,47.8-34.7c25.5-15,60-39.2,90.2-38.8c4.8,0.1,10.6,3,15.4,3.9c1.8-14.4,1.4-29,2-43.5
	c2.1-48.4,4.2-97.4,8-145.9c0.6-7.9-1.7-15.7,4.2-22.2l8.6,1c4.7,20.4,1.1,42.5,0.6,63.4c-1,45.6-1.9,92.3-3.5,137.6
	c-0.2,6.7-1.7,14-0.9,20.9c16.9,6.6,24,23.4,36.2,35c12.8,12.2,35,25.5,52.4,26.6c15.1,1,38.2-7.5,50.2-16.7
	c28.9-22,23.7-64.8,34.2-95.8c4.1-12.2,16.2-31.5,25.5-40.5c4.1-4,12.4-7.4,12.6-13.4c-4.2-147.3-10.2-294.4-12.1-441.8
	c-0.2-19.5,0.3-39,0-58.5l-34.7,60.7c-49.4,81.2-94.3,166.3-142.3,248.3c-6.8,11.6-14.8,26.8-22.1,37.8c-1.7,2.5-6.8,6.8-9.8,7.4
	c-11.8,2.6-28.3,0.6-40.5,0.4c-73.6-1-148.2-3-222.1-6.9c-6.9-0.4-17.9-3.1-23.9-2.9c-3.9,0.1-11,3.6-15.4,4.6
	c-17,3.9-34.1,4.7-51.7,4.3l-36.5-5c0.8,4.4-2.2,7.3-3.3,11.2c-2.9,9.9-4.5,19.8-9.8,29.1c-3.5,6.1-8.2,11.8-14.8,14.1
	c-9.6,3.4-15.4,3.2-24.4-1.5c-1.1,1.2-6.9,3.9-7.3,4.3c-0.5,0.6,0.1,2.1-0.8,2.8c-5.2,4.1-29.9,7.7-36.9,6.9
	c-2.3-0.2-17.3-5.3-18.2-6.3c-0.5-0.5-0.1-1.9-0.5-2.4c-0.8-0.9-3-1-4.3-2.3c-3.9-3.8-7.3-11.5-7.5-17c-9,0.2-19.7-2.9-26.4-9.1
	c-12.9-11.7-12.7-38.4-8.2-54.2c0.6-2,5.6-10.9,4.7-11.8L554,1064.4L554,1064.4z M525.7,1120c27.8-26.8,10.2-112.6-28.6-124.9
	c-30-9.6-55.1,7.5-72.5,30.4c-8.7,11.5-12.7,46.7-12.6,61.4s10.6,18.6,23,19c2.7,2.7,3.3,6.2,5.6,9.4c5.4,7.4,21.5,17.4,30.9,17.5
	c10,0.1,11-7,18.1-9.4C503,1118.9,514.1,1131.1,525.7,1120L525.7,1120z M741.6,1070c-1.8,2.2-4.6,4.4-6.4,7
	c-10.6,15.2-21.4,44-14.4,62c5.7,14.6,18.2,8.6,28.5,16.5c6.7,5.1,5.9,10.2,10.1,14.9c10.8,12,40.1,4.9,51.1-5.1
	c8.2,2.5,17.5,6.1,24.9-1c6.9-6.5,16.4-37.3,18.6-47.3s3.4-14.7,1.2-24.4c-5.4-23.3-15.3-44.6-38.6-54.4
	C784.5,1024.6,760,1046.8,741.6,1070L741.6,1070z M1063.9,1108.3c0.5-6.5,3.4-13,4-19.4c1.2-13.8-4.2-35.3-9.9-48
	c-0.3-0.8-1.2-2.9-2-2.4c-9.2,15.6-17,32.5-29,46.5c-5.9,6.8-13.1,12.2-19.7,18.2c-0.7,0.6-1.9-0.1-1.3,2.3L1063.9,1108.3
	L1063.9,1108.3z M1267,1399.2l-7.1,172.3c-1,15.9-0.3,34.3-2,50c-1,10.1-14,11.1-17.5,3.5c-0.5-1.1-1.3-10.5-1.3-12.5
	c0-4.3,1.3-10.6,1.4-15.2c1.4-49.6,3.4-99.2,5.3-148.8c0.6-15,3.4-33.9,2.4-48.6c-0.1-1.7-0.2-4-1.4-5.4c-0.5-0.6-12.5-6.1-13.8-6.3
	c-12-1.6-35.1,10.8-45.9,16.6c-14.4,7.8-33.2,18.3-46.6,27.4c-12.9,8.7-24.4,20.7-37.4,29.6c-33.1,22.8-76.3,30.4-115.8,28.2
	c-36.6-2-77.9-9.2-113.3-18.7c-80.3-21.6-162.4-51.6-237.5-87.4c-50.7-24.2-109.6-57.8-165.3-67.7c-24.9-4.4-49.4-11.3-74.9-14.1
	c-75.8-8.4-167.6-6-236.9,28.1c-28.9,14.3-57.8,31.1-77.7,56.3c-3.1,3.9-21,24.3-21,27c10.6,18.7,27.1,39.1,45.7,50.3
	c13.7,8.2,47,16.5,63,17.1c9.2,0.3,10.4,1.2,19.1,2.8c36.5,6.7,72.8,12.8,109.3,19.7c80.1,15.2,163.2,21.9,244.3,32.6
	c195.9,25.9,391.6,55,587.2,81.7c39.6,5.4,79.3,10.3,118.8,16c29.8-12,56.6-33.5,84.3-50.7c35-21.7,68.1-34.6,94.7-68.2
	c35.6-45,52-86.6,51.5-144.3c-0.2-21.8,0.6-43.7-0.4-65.5c-4.6,5.1-9.9,11.7-13.3,17.7c-24,41.2-5.7,92.2-53.8,123.1
	c-39.6,25.4-79.2,19-113.3-11.3c-10.9-9.7-15.4-20.8-24.5-30.5C1272.7,1403.3,1268,1398,1267,1399.2L1267,1399.2z"/>
<path class="st1" d="M1432,205.9l8,1c-1.3,9.4,7.4,15.2,11,23c1.8,42,2.2,84.4,3,126.4c2.5,125.2,2.5,250.6,7,375.8
	c0.1,2.3,2.7,7.2-0.7,8.4c-4.3,1.5-8.2-2.2-11.9-2.8c-11.7-1.8-27.8-0.5-40-1c-80.3-3.6-160.7-7-240.9-10.1l-104.4-4.1
	c-1.2-1.5-1.6-30.2-2.2-35.3c-4.5-39.4-19.4-87.5-46.4-117.5c-53-59-136.1-40.2-197-5c-1.6,0-6.2-4.7-8.2-5.8
	c-51-30.5-124-27.7-178.9-9.2c-20.1,6.8-39.2,17.1-56.1,29.8c-22.4-11-42.8-24.2-66.1-33.6c-40.2-16.2-88.1-32.5-122.8,3.8
	c-23,24-41.4,81.1-47.2,113.7c-3.3,18.8-4.9,38.1-5.3,57.2l-159-6c0.4-2.2,1.2-4.2,1.1-6.5c-4.8-111.7-9.6-224.1-10.1-335.8
	c-0.1-32,2.7-63.8,2.1-96c-0.1-4-3.6-21.3,1.7-22.4c7.2-0.4,14.6,0.3,21.8,0c63.9-2.9,128-6.5,192-9c35.4-1.4,71.4,1,107,1
	c80.9,0.1,162.8-5.9,243.9-9.1c209.8-8.3,419.5-15.1,629-26.9C1385.3,208.6,1409.5,206,1432,205.9L1432,205.9z"/>
<path class="st2" d="M554,1064.4l156,27c0.9,0.8-4.2,9.8-4.7,11.8c-4.4,15.8-4.7,42.5,8.2,54.2c6.8,6.1,17.4,9.2,26.4,9.1
	c0.2,5.5,3.6,13.2,7.5,17c1.3,1.3,3.5,1.4,4.3,2.3c0.4,0.5,0,1.9,0.5,2.4c1,1,16,6.1,18.2,6.3c7,0.8,31.7-2.8,36.9-6.9
	c0.9-0.7,0.3-2.2,0.8-2.8c0.4-0.4,6.2-3.1,7.3-4.3c9,4.8,14.8,5,24.4,1.5c6.7-2.4,11.3-8,14.8-14.1c5.3-9.3,7-19.3,9.8-29.1
	c1.1-3.8,4.2-6.8,3.3-11.2l36.5,5c17.6,0.4,34.7-0.3,51.7-4.3c4.4-1,11.5-4.5,15.4-4.6c6-0.2,17,2.6,23.9,2.9
	c73.8,3.9,148.4,5.9,222.1,6.9c12.2,0.2,28.7,2.2,40.5-0.4c2.9-0.7,8.1-4.9,9.8-7.4c7.3-11,15.3-26.3,22.1-37.8
	c48-82.1,93-167.2,142.3-248.3l34.7-60.7c0.2,19.5-0.3,39,0,58.5c1.9,147.4,7.8,294.5,12.1,441.8c-0.2,6-8.5,9.4-12.6,13.4
	c-9.3,9-21.4,28.3-25.5,40.5c-10.5,31.1-5.3,73.8-34.2,95.8c-12.1,9.2-35.1,17.6-50.2,16.7c-17.4-1.1-39.6-14.5-52.4-26.6
	c-12.2-11.6-19.2-28.4-36.2-35c-0.7-7,0.7-14.3,0.9-20.9c1.6-45.4,2.5-92,3.5-137.6c0.5-20.9,4.1-43-0.6-63.4l-8.6-1
	c-5.9,6.6-3.6,14.3-4.2,22.2c-3.8,48.6-5.9,97.5-8,145.9c-0.6,14.5-0.2,29.1-2,43.5c-4.7-0.9-10.6-3.8-15.4-3.9
	c-30.3-0.4-64.7,23.7-90.2,38.8c-18.7,11-30.5,22-47.8,34.7c-69.2,50.7-182.8,17.4-257.8-4.9c-57.2-17-114.5-36.7-168.5-61.5
	c-32-14.7-62.8-32.8-94.5-46.5C429,1266.3,234,1247,98.7,1345.4c-15.8,11.5-24.8,23.5-36.7,38c-1.2,1.4-8.6,9.8-9.5,9.7
	c-9.2-15.8-6.7-34.1-7.5-51.5c-0.5-11.6-1-20.1-1-31.9c0.4-101.7-5.2-203.4-10.1-304.8c-0.5-11.1-0.2-22.4-1-33.5l371,60.5
	c2.3,1.5-2.9,10.8-3.6,13.4c-6.7,26.8-14.9,70.6,24.6,72.5l7.6,13.4c17.1,17.2,47.4,29.3,64.1,5.1c9.5,3.7,16.3,5.7,26.6,2.8
	c14-3.9,25.1-21.1,28.3-34.7c0.4-1.6,2.5-12.7,2.5-13.5L554,1064.4L554,1064.4z"/>
<path class="st3" d="M760,560.7c-0.7,6.7,3.6,5.2,7.3,6c0.4,0.1,6.1,3.3,7,3.7c6,2.4,11.2,2.7,17.1,4.4c2.2,0.6,3.8,2.6,6.6,2
	c5.5,3.5,10.9,8.7,17.4,7.9c8.1-1,27.5-11.7,36.8-15.2c28.6-10.7,62.2-19.3,92.8-14.2c109.5,18.2,102.9,185.9,93.9,267.9l10.9,50.2
	c13.5,73.2,4.6,174.4-64.5,218c-32.3,20.3-77.5,25.1-112.3,8.7c-6.2-24.2-9.7-44.6-28.4-62.5c-23.5-22.5-56.8-26.9-85.2-10.2
	c-9.4,5.5-26.5,27.7-33.7,37.3c-2,2.6-4.4,9.6-8.1,9.9l-46.1-7.9L551,1051.4c0-1.4,0.2-2.9-0.2-4.2c-4.7-15.6-6.8-34.6-17.8-47
	c-30.7-34.7-79.6-29.7-109.5,3.2c-2,2.2-8.6,12.3-10.2,12.9c-1.5,0.5-3.1,0.2-4.6-0.1c-7.3-1.2-25.6-6.5-32.7-9.3
	c-51.6-19.8-57-73.5-48.7-121.6c5.2-30.3,17.8-46.2,28.2-72.7c7.9-20.2,2.9-24.5-0.4-43.5c-9.6-54.6,0.9-124.5,24.7-175
	c20-42.3,43.5-53.5,88.9-40.6c37.7,10.7,70.8,29.8,106.8,44.3l2.4-0.6c17.9-15.4,41.4-25.5,64-32C679.3,554.6,722,552,760,560.7
	L760,560.7z M490,610.6c2.1-1.2,4.3-6.9,4-9.4c-1.2-8.8-23-16.5-30.6-17.5c-48.8-6.3-78.1,35-86.7,78.1c-3.4,16.8-4.5,51.8,0.8,67.8
	c2.5,7.6,7.7,3.8,11.5,4c0.1,0,1.2,1,2.4,1c6.4,0,10.5,0.9,16.2-2.5c0.5-0.3,7.9-7.3,8.1-7.8c2.2-5.2,4.2-10.6,6.7-15.4
	c0.3-0.6,2.8-1.1,1.7-4.3h4c-0.3-5.4,6.9-9.1,10.3-13.2c2.4-2.9,9.2-12.6,9.7-15.8l10-9.8c6.2-10.9,15.1-20.5,22-30.2
	c0.8-1.1,9.6-9.9,10-11.7c0.5-2.3-0.5-5.3,0-7.6C490.1,615.9,495.7,611.4,490,610.6L490,610.6z M878,618.6c-0.8,0.3-2.7-0.5-3.5,1
	c-1.7,2.1-0.5,4.5-0.9,6.3c-0.2,1.1-1.4,2-1.6,3.2c-1.8,13,11.6,17.6,17.6,25.8c0.7,1,1,5.6,4.3,6.7c3,7.1,13,16.4,17.7,23.3
	c3.9,5.7,5.2,14,8.2,20.5c6.5,14.1,16.1,26.7,23.3,40.4c5.8,11,10.2,22.4,16.8,33.7c-1.4,3.9,1.3,4.5,1.9,5.8
	c1.1,2.4,3.2,9,4.4,10.8c2.2,3.3,4.2,3.8,7.7,4.3c0.5,0.6,0.9,2.9,2.8,3.9c4.2,2.4,12.9,3.8,13.2-2.9c6.8-0.4,6.4-4.5,7.7-9.8
	c12.2-48.5,14-112.6-7.8-158.5C964.6,580.1,918.6,601.8,878,618.6L878,618.6z M453.4,795.9c-33.7,33.7,14.6,83.9,51.7,54.1
	C548.4,815.2,491.7,757.6,453.4,795.9z M671.7,817.9c-80.7-39.3-162.1,46.2-112,126.9c0.6,0.9,0,2.5,0.6,3.4
	c60.5,69.6,177.6,24.8,159.6-70.1c-0.8-4-10.1-27-12.2-29.3c-0.4-0.5-2.2-0.2-3.2-1.2c-1.2-1.3-3.3-6.6-5-8.6
	c-6.6-8.2-17.7-14.5-26.9-19.4C672.1,819.2,671.9,818,671.7,817.9L671.7,817.9z M843.8,813.8c-20.9,2.5-41.5,23.9-35.2,45.7
	c14.7,51.3,88,27.6,76.2-19.2C880.2,822.5,861.5,811.7,843.8,813.8z"/>
<path class="st4" d="M1267,1399.2c1-1.2,5.7,4.1,6.5,5c9.1,9.7,13.6,20.9,24.5,30.5c34.2,30.3,73.8,36.7,113.3,11.3
	c48.2-30.9,29.9-81.8,53.8-123.1c3.5-5.9,8.7-12.6,13.3-17.7c1.1,21.8,0.3,43.7,0.4,65.5c0.4,57.7-15.9,99.3-51.5,144.3
	c-26.6,33.6-59.7,46.6-94.7,68.2c-27.7,17.1-54.5,38.7-84.3,50.7c-39.5-5.7-79.2-10.6-118.8-16c-195.6-26.7-391.3-55.8-587.2-81.7
	c-81.2-10.8-164.2-17.5-244.3-32.6c-36.5-6.9-72.8-13-109.3-19.7c-8.7-1.6-9.9-2.5-19.1-2.8c-16-0.6-49.3-8.9-63-17.1
	c-18.5-11.2-35.1-31.6-45.7-50.3c0-2.7,17.9-23.1,21-27c19.9-25.2,48.7-42,77.7-56.3c69.2-34.1,161.1-36.6,236.9-28.1
	c25.5,2.8,50,9.7,74.9,14.1c55.6,9.9,114.6,43.5,165.3,67.7c75.1,35.8,157.2,65.8,237.5,87.4c35.4,9.5,76.7,16.7,113.3,18.7
	c39.5,2.2,82.7-5.4,115.8-28.2c13-8.9,24.5-20.9,37.4-29.6c13.4-9.1,32.2-19.6,46.6-27.4c10.8-5.8,33.9-18.2,45.9-16.6
	c1.3,0.2,13.3,5.7,13.8,6.3c1.2,1.3,1.3,3.7,1.4,5.4c1,14.7-1.9,33.6-2.4,48.6c-1.9,49.6-4,99.2-5.3,148.8
	c-0.1,4.6-1.5,10.8-1.4,15.2c0,1.9,0.8,11.4,1.3,12.5c3.5,7.6,16.4,6.6,17.5-3.5c1.6-15.7,1-34.1,2-50L1267,1399.2L1267,1399.2z"/>
<path class="st2" d="M1621,154.9c-15.8,0.2-31.7-0.5-47.5,1c-40.4,3.9-80.4,16.5-117,33.5c-193.1,2.3-386.8,12.9-580,20.5
	c-213.4,8.5-426.8,15.5-640,26c-16,0.8-32.1,2.5-48,3c-6.2,0.2-12.4-0.2-18.5-0.1c-0.7-0.6,6.6-10,7.5-11
	c23.6-27.3,72.5-63.4,103.8-83.2c22.1-14,47.3-22.8,72.3-30.6c144.6-45,307.7-62,459-68c194-7.6,399.1,2.5,589.7,41.2
	c66.8,13.6,146.7,32.8,208.2,61.8C1613.7,150.6,1618.2,152.7,1621,154.9L1621,154.9z"/>
<path class="st2" d="M1703.6,201.2c40.6,27.4,63.9,79.8,66.4,128c6.8,131.7-84.1,258.5-178.7,338.4c-37,24.5-75.4,46.5-116.4,64.9
	l-11-528.6c7.6-1.8,15.1-5.1,22.6-7.9C1554.2,170.5,1639.4,157.9,1703.6,201.2L1703.6,201.2z"/>
<path class="st5" d="M1457,758.5l-201.2,356.5l-175.8-5.8c0.5-7.3,3.4-14.2,4-21.5c1.8-23-10.3-50.1-19.1-71
	c11.2-44.2,13.6-90.7,5.8-135.6c-2.7-15.6-11.7-37.2-12.7-51.3c-1.1-16.2,4.2-38.8,5-56c0.4-9.1-0.3-18.4,0-27.5
	c9.8,0.2,19.7-0.2,29.6,0c104.4,2.2,209.6,3.6,313.9,8.1c5,0.2,10.1-0.4,15,0C1433.3,755.3,1445.2,757.4,1457,758.5L1457,758.5z"/>
<path class="st5" d="M333,736.6c0.1,2.9-1.1,5.5-1.1,8.5c0.2,17.8,4.2,37,5.9,54.8c-15,41.8-35.3,86.4-27.5,131.9
	c3,17.3,6.9,37.2,13.8,53.2l16,19.5l-305-51c5.5-12.5,13.2-23.8,19.8-35.7c0.8-1.4,0.6-3.3,1.3-4.5c15.3-27.5,32-55.5,47.3-82.8
	c17.2-30.7,34.8-69.9,56.7-96.3c0.8-1,0.8-3.1,1.1-3.4c0.7-0.6,3,0.2,4.3-0.2c7.2-2.1,3-0.7,8.1,0c21.1,2.8,48.2,2.3,69.9,3.1
	C273.4,734.7,303.2,734.6,333,736.6L333,736.6z"/>
<path class="st6" d="M741.6,1070c18.4-23.2,42.9-45.4,75.1-31.8c23.3,9.8,33.2,31.1,38.6,54.4c2.3,9.7,0.9,14.8-1.2,24.4
	c-2.2,10.1-11.8,40.8-18.6,47.3c-7.5,7.1-16.7,3.5-24.9,1c-11,10-40.3,17-51.1,5.1c-4.3-4.7-3.5-9.8-10.1-14.9
	c-10.3-7.9-22.8-1.9-28.5-16.5c-7-18,3.8-46.8,14.4-62C737,1074.4,739.8,1072.2,741.6,1070L741.6,1070z"/>
<path class="st7" d="M525.7,1120c-11.5,11.1-22.7-1.1-36.1,3.4c-7.1,2.4-8.1,9.5-18.1,9.4c-9.4-0.1-25.5-10.1-30.9-17.5
	c-2.3-3.2-2.9-6.7-5.6-9.4c-12.4-0.4-22.9-5-23-19c-0.1-14.7,3.9-49.8,12.6-61.4c17.4-22.9,42.5-40,72.5-30.4
	C535.8,1007.4,553.5,1093.2,525.7,1120L525.7,1120z"/>
<path class="st8" d="M1063.9,1108.3l-58-2.9c-0.7-2.3,0.6-1.7,1.3-2.3c6.7-5.9,13.8-11.3,19.7-18.2c12-13.9,19.8-30.8,29-46.5
	c0.9-0.5,1.7,1.7,2,2.4c5.7,12.7,11.2,34.3,9.9,48C1067.4,1095.3,1064.4,1101.8,1063.9,1108.3L1063.9,1108.3z"/>
<path class="st9" d="M1432,205.9c3.1,0,16.7-0.6,17.8,1.2c1.8,7.5,0.8,15.2,1.2,22.8c-3.6-7.8-12.3-13.6-11-23L1432,205.9
	L1432,205.9z"/>
<path class="st10" d="M760,560.7c16.7,3.8,24.5,7.5,38,16c-2.7,0.7-4.3-1.3-6.6-2c-6-1.6-11.1-1.9-17.1-4.4c-0.9-0.4-6.6-3.5-7-3.7
	C763.6,565.8,759.3,567.3,760,560.7L760,560.7z"/>
<path class="st11" d="M671.7,817.9c0.3,0.1,0.4,1.3,1,1.6c9.2,4.8,20.3,11.2,26.9,19.4c1.6,2,3.7,7.3,5,8.6c1,1.1,2.8,0.8,3.2,1.2
	c2.1,2.4,11.4,25.3,12.2,29.3c17.9,94.9-99.2,139.7-159.6,70.1c-0.6-0.8,0-2.5-0.6-3.4C509.6,864,591,778.5,671.7,817.9L671.7,817.9
	z M624.8,854.8c-14.5,1.8-12.1,10.5-6.2,20.6c1.3,2.2,5.1,7.7,6.9,9.1c9.8,7.7,25.9-8.1,27.7-17.4
	C655.9,852.5,633.7,853.7,624.8,854.8L624.8,854.8z M671.7,891.8c-5.4-5.2-12.3-0.9-11.6,6c0.3,2.9,2.5,5.5,2.9,8.2
	c3.2,20.6-12.6,17-25.3,10.2c-8.5-4.6-10.9-16.7-22.4-12.1c-4.9,2-12.4,15.1-19,4.5c-0.9-3,0.2-10.3,1.3-13.3
	c2-5.4,7.9-6.5,4.4-13.3c-2.7-5.2-9.4-4.7-13.5-1.3c-10.6,8.9-12.7,32.8-2.7,42.5c8.1,8,21.2,5.8,30.9,2.1
	c18.5,15.7,59.3,26.4,64.3-7.7C681.8,910.4,676.9,896.9,671.7,891.8L671.7,891.8z"/>
<path class="st12" d="M880,628.6c1.8-0.4,3.8,0.9,5.4,0.7c11.1-1.3,29-10,41.4-12.5c14.4-2.9,26-2.5,37.3,8.2
	c15.4,14.7,24.4,59,25,80c0.3,12.6-1.2,26.2-0.8,38c0.1,2.9,1.9,5.5,1.8,8.8c-0.6,12.3-8,29.1-7.9,41.6l-5.5,3
	c-0.6-2.9-2.9-1.5-4.2-2.3c-1.7-1.1-3.5-5.7-6.3-5.7c-1.8-3-4.7-6.7-6-9c-6.5-11.3-11-22.7-16.8-33.7c-7.2-13.7-16.9-26.3-23.3-40.4
	c-3-6.5-4.3-14.8-8.2-20.5C907,678,897,668.7,894,661.6c-1.2-2.9-1.4-6.4-2.3-8.7c-0.3-0.8-11.5-10.2-11.6-11
	c-0.6-3,0.9-4.1-2.2-6.7L880,628.6L880,628.6z"/>
<path class="st13" d="M878,618.6c40.6-16.8,86.6-38.5,111.9,14.6c21.8,45.9,20,109.9,7.8,158.5c-1.3,5.3-0.9,9.4-7.7,9.8
	c-1.8,0.1-3.4-0.2-5-1c-3.5-1.4-3-3.9-3-7c-0.1-12.5,7.3-29.2,7.9-41.6c0.2-3.4-1.7-5.9-1.8-8.8c-0.4-11.8,1.2-25.4,0.8-38
	c-0.5-21-9.5-65.3-25-80c-11.3-10.7-22.9-11.1-37.3-8.2c-12.4,2.5-30.2,11.1-41.4,12.5c-1.6,0.2-3.6-1-5.4-0.7c-2.4-2.8-3.4-4.1-3-8
	l1-1L878,618.6L878,618.6z"/>
<path class="st14" d="M843.8,813.8c17.8-2.1,36.5,8.7,41,26.5c11.8,46.8-61.5,70.5-76.2,19.2C802.3,837.7,822.8,816.3,843.8,813.8z"
	/>
<path class="st14" d="M453.4,795.9c38.4-38.3,95,19.3,51.7,54.1C467.9,879.8,419.6,829.5,453.4,795.9z"/>
<path class="st15" d="M490,610.6c-1.5,0.9-6.1,1.2-8,1c-4.1-0.5-7.5-4-11-5.5c-57.6-23.9-80.7,45.5-81.4,89.9
	c-0.1,8.5,1.3,17,1.4,25.5c0.1,3.8,1,9.3-2,12c-3.9-0.2-9,3.7-11.5-4c-5.3-16-4.2-51-0.8-67.8c8.6-43,38-84.4,86.7-78.1
	c7.6,1,29.4,8.7,30.6,17.5C494.4,603.8,492.1,609.4,490,610.6L490,610.6z"/>
<path class="st16" d="M448,674.6c0,0.3,0,0.7,0,1c-0.5,3.1-7.3,12.8-9.7,15.8c-3.4,4.1-10.6,7.9-10.3,13.2h-4
	c1.2,3.3-1.4,3.8-1.7,4.3c-2.4,4.8-4.4,10.1-6.7,15.4c-0.2,0.5-7.6,7.6-8.1,7.8c-5.7,3.3-9.8,2.4-16.2,2.5c-1.3,0-2.3-1-2.4-1
	c3-2.7,2.1-8.2,2-12c1.2,3,1.4,3.5,5,3v4l7.7-0.3l11.7-11.7c2.2-12.7,15-20.8,20.9-31.6L448,674.6L448,674.6z"/>
<path class="st17" d="M478,634.6l2,1c-6.9,9.8-15.8,19.3-22,30.2l-10,9.8c0-0.3,0-0.7,0-1c1.4-8.8,4.3-7.5,8.3-13.2s3-5.7,8.4-11
	c1.6-1.6,4-7.3,5.4-9C471.9,639.1,476.9,635.9,478,634.6L478,634.6z"/>
<path class="st18" d="M878,618.6v1c-0.5,0.1-1,0.5-1,1c-0.4,3.9,0.6,5.2,3,8l-2.1,6.5c3.1,2.6,1.5,3.8,2.2,6.7
	c0.2,0.8,11.3,10.2,11.6,11c0.9,2.3,1.1,5.8,2.3,8.7c-3.3-1.1-3.6-5.7-4.3-6.7c-6-8.2-19.4-12.8-17.6-25.8c0.2-1.2,1.3-2.2,1.6-3.2
	c0.4-1.8-0.8-4.2,0.9-6.3C875.3,618.1,877.3,618.9,878,618.6L878,618.6z"/>
<path class="st19" d="M490,610.6c5.7,0.8,0.1,5.3,0,5.7c-0.5,2.3,0.5,5.3,0,7.6c-0.4,1.8-9.2,10.6-10,11.7l-2-1
	c0.7-0.8,5.8-10.1,6-10.7c0.5-2.2,1-11.2-2-12.3C483.9,611.9,488.4,611.5,490,610.6L490,610.6z"/>
<path class="st20" d="M974,800.5c1.3,0.2,2.9-0.2,4.4,0c2.6,0.4,6.9,4.3,6.6,0c1.6,0.8,3.2,1.1,5,1c-0.3,6.7-9,5.4-13.2,2.9
	C974.9,803.4,974.5,801.2,974,800.5z"/>
<path class="st21" d="M966,788.5c3,5.2,4.5,7.5,8,12c-3.5-0.5-5.5-1-7.7-4.3c-1.2-1.8-3.3-8.4-4.4-10.8c-0.6-1.4-3.3-2-1.9-5.8
	C961.3,781.8,964.2,785.5,966,788.5z"/>
<path class="st22" d="M671.7,891.8c5.3,5.1,10.2,18.6,9.1,25.9c-5,34.1-45.8,23.4-64.3,7.7c-9.7,3.7-22.7,5.9-30.9-2.1
	c-10-9.8-7.8-33.6,2.7-42.5c4.1-3.4,10.8-3.9,13.5,1.3c3.5,6.8-2.4,7.9-4.4,13.3c-1.1,3-2.2,10.3-1.3,13.3c6.6,10.5,14.1-2.5,19-4.5
	c11.5-4.7,13.9,7.5,22.4,12.1c12.6,6.8,28.5,10.3,25.3-10.2c-0.4-2.7-2.6-5.2-2.9-8.2C659.4,890.9,666.2,886.6,671.7,891.8
	L671.7,891.8z"/>
<path class="st23" d="M624.8,854.8c8.9-1.1,31.1-2.2,28.4,12.3c-1.8,9.3-17.9,25.1-27.7,17.4c-1.8-1.4-5.6-6.9-6.9-9.1
	C612.7,865.3,610.2,856.6,624.8,854.8L624.8,854.8z"/>
<path class="st24" d="M966,788.5c2.8,0,4.7,4.6,6.3,5.7c1.3,0.8,3.6-0.5,4.2,2.3l5.5-3c0,3.1-0.5,5.6,3,7c0.3,4.4-4,0.4-6.6,0
	c-1.5-0.2-3.1,0.1-4.4,0C970.5,796,969,793.7,966,788.5L966,788.5z"/>
<path class="st3" d="M877,620.6c0-0.5,0.5-0.9,1-1L877,620.6z"/>
<path class="st25" d="M482,611.6c3,1.1,2.5,10.1,2,12.3c-0.1,0.6-5.3,9.9-6,10.7c-1.1,1.3-6.1,4.5-8,6.8c-1.4,1.7-3.7,7.4-5.4,9
	c-5.3,5.3-4.2,5-8.4,11s-6.9,4.5-8.3,13.2l-11.7,10.3c-5.9,10.9-18.6,19-20.9,31.6l-11.7,11.7l-7.8,0.3v-4c-3.6,0.5-3.8,0-5-3
	c-0.1-8.5-1.6-17-1.4-25.5c0.7-44.4,23.8-113.9,81.4-89.9C474.5,607.6,477.9,611.1,482,611.6L482,611.6z"/>
</svg>
