<svg width="431" height="25" viewBox="0 0 431 25" fill="none" xmlns="http://www.w3.org/2000/svg">
<path d="M0 5C0 3.34315 1.34315 2 3 2H428C429.657 2 431 3.34315 431 5V24H0V5Z" fill="#FFD598"/>
<rect x="412.24" y="5.15" width="15.7896" height="15.7896" rx="1.85" fill="#FFBD5C" stroke="black" stroke-width="0.3"/>
<rect x="393.195" y="5.15" width="15.7896" height="15.7896" rx="1.85" fill="#FFBD5C" stroke="black" stroke-width="0.3"/>
<rect x="374.15" y="5.15" width="15.7896" height="15.7896" rx="1.85" fill="#FFBD5C" stroke="black" stroke-width="0.3"/>
<rect x="377.941" y="12.7163" width="8.37313" height="0.492537" rx="0.246269" fill="black"/>
<rect x="397.879" y="8.5355" width="8.23564" height="8.23564" rx="0.85" fill="#FFBD5C" stroke="black" stroke-width="0.3"/>
<rect x="396.659" y="9.75474" width="8.23564" height="8.23564" rx="0.85" fill="#FFBD5C" stroke="black" stroke-width="0.3"/>
<path d="M417.661 16.3546L417.317 16.0107L420.037 13.2908L417.317 10.5709L417.661 10.2271L420.381 12.947L423.101 10.2271L423.445 10.5709L420.725 13.2908L423.445 16.0107L423.101 16.3546L420.381 13.6347L417.661 16.3546Z" fill="black"/>
<path d="M7.9 9.2V7.4H16.9V9.2H13.3V18.2H12.4V19.1H13.3V20H11.5V9.2H7.9ZM18.693 20V7.4H20.493V13.7H25.893V7.4H27.693V20H25.893V15.5H21.393V14.6H20.493V20H18.693ZM30.3859 8.3H29.4859V7.4H36.6859V9.2H31.2859V12.8H35.7859V13.7H34.8859V14.6H31.2859V18.2H36.6859V20H29.4859V9.2H30.3859V8.3ZM51.9789 10.1H51.0789V9.2H50.1789V8.3H49.2789V9.2H47.4789V10.1H46.5789V11.9H47.4789V12.8H50.1789V13.7H51.9789V14.6H52.8789V15.5H53.7789V18.2H52.8789V19.1H51.9789V20H46.5789V19.1H45.6789V18.2H44.7789V16.4H46.5789V17.3H47.4789V18.2H49.2789V19.1H50.1789V18.2H51.9789V15.5H50.1789V14.6H47.4789V13.7H45.6789V12.8H44.7789V9.2H45.6789V8.3H46.5789V7.4H51.0789V8.3H52.8789V10.1H53.7789V11.9H51.9789V10.1ZM55.3961 9.2V7.4H64.3961V9.2H60.7961V18.2H59.8961V19.1H60.7961V20H58.9961V9.2H55.3961ZM67.0891 9.2H66.1891V7.4H67.9891V8.3H68.8891V9.2H69.7891V11H70.6891V12.8H72.4891V11H73.3891V9.2H74.2891V8.3H75.1891V7.4H76.9891V9.2H76.0891V10.1H75.1891V11.9H74.2891V12.8H73.3891V14.6H72.4891V20H70.6891V14.6H69.7891V12.8H68.8891V11.9H67.9891V10.1H67.0891V9.2ZM78.7926 7.4H80.5926V18.2H85.9926V19.1H85.0926V20H79.6926V19.1H78.7926V7.4ZM88.6926 8.3H87.7926V7.4H94.9926V9.2H89.5926V12.8H94.0926V13.7H93.1926V14.6H89.5926V18.2H94.9926V20H87.7926V9.2H88.6926V8.3Z" fill="black"/>
</svg>
